<svg xmlns="http://www.w3.org/2000/svg" viewBox="0 0 167.0883789 242.6669922"><path d="M49.337 181.104l-5.63-3.615 74.66-116.294 5.63 3.615-74.66 116.294z"/><path d="M79.088 129.782c.966.62 1.256 1.89.648 2.838-.608.95-1.883 1.215-2.85.596-.964-.617-1.254-1.89-.646-2.838.608-.947 1.883-1.213 2.848-.596z" fill="#fff"/><path d="M78.342 130.948c.298.19.38.592.183.897-.195.304-.593.398-.89.207-.3-.192-.38-.592-.186-.897.195-.306.595-.398.892-.207z"/><path d="M81.914 125.22c.965.62 1.255 1.89.647 2.838-.607.95-1.882 1.214-2.847.595-.966-.617-1.256-1.888-.65-2.838.61-.947 1.885-1.214 2.85-.595z" fill="#fff"/><path d="M81.168 126.384c.297.19.38.594.184.898-.196.305-.596.4-.893.207-.298-.19-.38-.593-.185-.897.196-.307.595-.4.893-.21z"/><path d="M85.004 120.147c.965.62 1.256 1.89.65 2.838-.61.948-1.886 1.215-2.85.596-.967-.618-1.257-1.89-.65-2.837.61-.948 1.886-1.215 2.85-.596z" fill="#fff"/><path d="M84.258 121.31c.297.19.38.594.184.898-.195.307-.596.398-.893.21-.298-.192-.38-.595-.185-.9.196-.305.596-.398.893-.207z"/><path d="M88.163 115.14c.966.618 1.255 1.89.648 2.837-.606.947-1.882 1.215-2.85.596-.963-.62-1.252-1.89-.645-2.838.607-.947 1.883-1.215 2.848-.596z" fill="#fff"/><path d="M87.417 116.303c.296.192.38.593.185.9-.197.303-.596.396-.893.206-.3-.193-.38-.594-.186-.9.195-.304.596-.397.893-.207z"/><path d="M91.393 110.208c.967.62 1.256 1.888.65 2.836-.61.95-1.884 1.216-2.85.597-.966-.618-1.257-1.89-.648-2.837.608-.948 1.883-1.215 2.848-.595z" fill="#fff"/><path d="M90.647 111.372c.3.19.38.59.184.897-.195.304-.593.397-.892.206-.297-.19-.38-.593-.184-.897.196-.306.596-.4.893-.208z"/><path d="M94.497 105.144c.966.62 1.255 1.89.648 2.837-.607.95-1.883 1.217-2.85.598-.964-.62-1.255-1.89-.646-2.838.606-.948 1.882-1.215 2.847-.596z" fill="#fff"/><path d="M93.75 106.308c.297.19.38.593.186.898-.197.304-.596.398-.893.207-.298-.19-.38-.592-.185-.897.195-.306.596-.398.892-.208z"/><path d="M97.83 100.104c.963.62 1.254 1.89.645 2.837-.607.95-1.883 1.216-2.848.598-.966-.62-1.255-1.89-.648-2.84.606-.947 1.882-1.214 2.85-.594z" fill="#fff"/><path d="M97.083 101.268c.296.19.378.592.183.897-.195.305-.596.398-.892.208-.297-.19-.38-.593-.184-.898.195-.305.594-.398.893-.207z"/><path d="M100.932 95.208c.965.618 1.256 1.89.647 2.836-.61.95-1.884 1.216-2.85.597-.966-.618-1.255-1.89-.647-2.837.607-.948 1.882-1.215 2.85-.595z" fill="#fff"/><path d="M100.186 96.372c.297.19.38.592.184.897-.196.304-.596.397-.893.207-.297-.19-.38-.593-.184-.898.196-.306.594-.4.893-.208z"/><path d="M104.407 89.895c.965.62 1.256 1.89.648 2.837-.61.95-1.885 1.215-2.85.597-.964-.62-1.255-1.89-.648-2.84.61-.947 1.885-1.214 2.85-.595z" fill="#fff"/><path d="M103.66 91.06c.298.19.38.59.184.897-.195.305-.595.397-.892.207-.297-.19-.38-.593-.184-.897.195-.306.596-.4.893-.208z"/><path d="M107.4 85.277c.964.62 1.255 1.89.645 2.837-.607.948-1.882 1.215-2.847.596-.967-.62-1.256-1.89-.65-2.837.61-.948 1.884-1.215 2.85-.596z" fill="#fff"/><path d="M106.653 86.44c.297.19.38.593.183.898-.195.306-.595.398-.892.208-.297-.19-.38-.593-.184-.898.196-.305.594-.398.893-.207z"/><path d="M110.877 79.758c.967.62 1.256 1.89.65 2.837-.61.95-1.884 1.216-2.85.596-.966-.617-1.257-1.888-.647-2.836.607-.948 1.883-1.215 2.847-.596z" fill="#fff"/><path d="M110.13 80.922c.3.19.382.593.187.898-.197.305-.596.398-.893.207-.3-.19-.38-.592-.185-.897.194-.305.594-.4.89-.208z"/><path d="M114.092 74.806c.965.62 1.256 1.89.65 2.838-.61.948-1.886 1.215-2.85.596-.966-.62-1.257-1.89-.647-2.838.607-.948 1.882-1.215 2.847-.596z" fill="#fff"/><path d="M113.346 75.97c.297.19.38.593.184.898-.196.305-.594.398-.893.207-.297-.19-.38-.592-.183-.897.195-.305.595-.398.892-.208z"/><g><path d="M117.434 69.985c.965.62 1.256 1.89.647 2.838-.607.948-1.882 1.215-2.847.595-.965-.618-1.256-1.89-.65-2.837.61-.947 1.886-1.214 2.85-.595z" fill="#fff"/><path d="M116.688 71.15c.297.19.38.592.184.897-.196.305-.596.398-.893.207-.298-.19-.38-.592-.185-.897.196-.305.596-.4.893-.208z"/></g><g><path d="M120.65 65.034c.964.618 1.253 1.89.645 2.837-.607.95-1.882 1.216-2.847.597-.967-.62-1.256-1.89-.65-2.838.61-.948 1.884-1.215 2.85-.596z" fill="#fff"/><path d="M119.903 66.198c.297.19.38.592.183.897-.195.305-.595.398-.892.208-.297-.19-.38-.593-.184-.898.196-.305.594-.398.893-.207z"/></g><g><path d="M50.458 174.91c.966.62 1.255 1.892.647 2.84-.607.948-1.882 1.214-2.848.595-.966-.62-1.255-1.89-.648-2.838.607-.947 1.882-1.215 2.848-.596z" fill="#fff"/><path d="M49.712 176.075c.298.192.38.594.184.9-.196.303-.595.397-.892.206-.298-.19-.38-.59-.185-.896.195-.305.594-.398.892-.21z"/></g><g><path d="M53.543 169.71c.967.62 1.256 1.89.648 2.838-.606.947-1.882 1.215-2.848.596-.965-.62-1.255-1.89-.647-2.838.608-.948 1.883-1.215 2.848-.596z" fill="#fff"/><path d="M52.797 170.874c.298.19.38.594.184.898-.194.305-.593.4-.89.207-.3-.192-.38-.592-.186-.9.197-.304.596-.395.893-.206z"/></g><g><path d="M63.152 155.14c.966.62 1.256 1.888.65 2.838-.61.947-1.885 1.214-2.85.595-.966-.62-1.256-1.89-.647-2.838.607-.947 1.883-1.214 2.847-.595z" fill="#fff"/><path d="M62.406 156.304c.298.19.38.592.185.896-.195.307-.594.4-.892.21-.298-.192-.38-.595-.184-.9.195-.304.595-.398.892-.206z"/></g><g><path d="M56.568 164.91c.965.62 1.255 1.892.647 2.84-.608.948-1.883 1.214-2.85.595-.965-.62-1.254-1.89-.646-2.838.606-.947 1.883-1.215 2.848-.596z" fill="#fff"/><path d="M55.822 166.075c.297.192.38.594.184.9-.195.303-.596.397-.893.206-.297-.19-.38-.59-.183-.896.195-.306.593-.398.892-.21z"/></g><g><path d="M59.782 160.126c.966.62 1.255 1.89.648 2.838-.608.95-1.883 1.215-2.85.596-.965-.62-1.254-1.89-.646-2.836.607-.95 1.882-1.215 2.848-.598z" fill="#fff"/><path d="M59.036 161.29c.298.19.38.594.185.898-.196.305-.595.4-.892.208-.298-.19-.38-.592-.184-.897.196-.308.594-.4.892-.21z"/></g><g><path d="M69.352 145.075c.964.62 1.255 1.89.647 2.836-.61.95-1.885 1.218-2.85.6-.964-.62-1.255-1.892-.647-2.84.608-.948 1.884-1.214 2.85-.595z" fill="#fff"/><path d="M68.605 146.24c.297.19.38.59.184.896-.196.304-.596.398-.894.207-.296-.19-.378-.592-.183-.897.195-.304.596-.398.892-.207z"/></g><g><path d="M66.172 149.854c.965.62 1.255 1.89.647 2.836-.61.95-1.884 1.217-2.85.598-.965-.62-1.255-1.89-.648-2.838.61-.95 1.884-1.215 2.85-.596z" fill="#fff"/><path d="M65.426 151.02c.297.188.38.59.183.895-.196.305-.595.398-.893.21-.297-.192-.38-.595-.184-.9.196-.304.595-.398.893-.206z"/></g><g><path d="M72.228 139.864c.965.62 1.254 1.89.647 2.838-.607.947-1.883 1.215-2.85.596-.964-.62-1.254-1.89-.646-2.838.606-.947 1.882-1.215 2.848-.596z" fill="#fff"/><path d="M71.48 141.028c.3.192.38.594.186.9-.196.303-.596.395-.893.206-.297-.192-.38-.594-.184-.9.194-.303.594-.397.89-.206z"/></g><g><path d="M75.664 134.856c.966.62 1.256 1.89.648 2.838-.608.95-1.883 1.215-2.85.596-.964-.62-1.254-1.89-.646-2.836.608-.95 1.883-1.215 2.848-.598z" fill="#fff"/><path d="M74.918 136.02c.298.192.38.594.184.9-.196.304-.594.397-.892.206-.298-.19-.38-.592-.185-.897.196-.307.596-.4.893-.21z"/></g><path d="M67.59 10.317l-1.744-.054-.737-.137-2.456 2.837L53.107 20l2.755 1.964 5.537 2.81 4.336-2.538 6.683-1.527 8.264.572 8.182 2.59 7.53 3.765 5.89-5.618 1.773-2.047-3.247-1.064-5.81-2.592-5.727-3.41-4.527-3.054-4.148.38-6.247.493-5.21-.055M37.393 111.88l-1.776-4.903-1.353-2.57-2.383-2.38-.653.372-.84.093-.235-.934 2.056-2.243 2.57-1.075 2.148-1.307 2.988-8.735 2.943-.047v21.766" fill="#1c1585"/><path d="M41.596 86.285h16.3v24.428h-16.3V86.285z" fill="#1c1585"/><path d="M56.123 118.56H37.486v-9.294h18.637v9.294z" fill="#1c1585"/><path d="M50.89 124.585H38.7v-6.678h12.19v6.678z" fill="#1c1585"/><path d="M47.435 132.013h-7.8v-8.268h7.8v8.268zM99.14 53.296l2.382-.047 2.336.904 2.002-.095 1.62.62 1.954.14 2.383 1.955-3.05 5.577-4.862 11.105-5.004 17.3-.655 2.05-7.54 11.582-3.34.43.145-4.72 1.192-12.01 2.048-11.297 4.29-13.917M63.254 54.74l2.234-.09 3.488 22.04 1.475 20.075-.09 6.616-3.977-1.027-4.48-1.48-.75-12.29-1.476-11.58-3.13-10.505-2.37-4.158-3.442-4.157 6.706-1.52" fill="#1c1585"/><path d="M57.977 108.848l1.228 1.865 1.11 1.893-13.173 29.32-4.184-6.085 7.85-15.455M62.32 148.427l10.477-16.217 1.625-15.836-6.36 2.662-5.88 27.695M49.908 57.927l4.54 4.748 3.624 8.123 2.25 10.788 1.415 14.912.167 4.374-2.25-.583-1.332.915-5.832-8.58-2.416-3.167-3.25-2.5-2.164-.75-4.707 1.084-.96-3.04 2.417-5.457.834-3.25.416-7.913.708-2.957L45.45 61.3l2.625-2.332M112.194 72.525l5.87-11.473-5.54-3.913-2.553 2.85-6.5 14.558-3.81 13.994.96.498" fill="#e61408"/><path d="M59.995 152.056l1-1.75 7.077-30.76-2.264.163-1.173-2.184-2.305-3.114-1.174-1.375-1.01-.12-7.118 15.365-5.904 13.87 1.456 4.693 1.832 4.01 9.27 1.5M67.568 63.717l4.04.79 6 .334 5.04.126 2.665-.25 4.082-.25 4.79-.666.458.375-1.082 2.915-1.874 6.582-1.79 7.372-1.25 6.58-1.042 9.75-.416 7.37-3.624.418h-3.166l-2.583-.333-5.248-.917-2.374-.584.5-5.874-.75-8.748-.71-10.663" fill="#f8c20f"/><path d="M7.036 146.354l-.013-1.703.32-1.5.59-1.91 3.003-4.368 3.64-3.775 4.908-2.565 3.676-1.04h6.113l5.375.974 4.2 2.217 4.433 4.064 2.957 4.703 2.217 4.502" fill="#f8c20f"/><path d="M48.253 179.677H7.07v-33.793h41.183v33.793z" fill="#f8c20f"/><path d="M49.126 177.526H47.75v-29.93h1.376v29.93z" fill="#f8c20f"/><path d="M49.73 175.007h-.738v-24.555h.738v24.555z" fill="#f8c20f"/><path d="M50.066 172.993h-.402v-19.08h.402v19.08z" fill="#f8c20f"/><path d="M50.806 168.155h-.974V156.13h.974v12.025zM7.372 179.407l.974 1.983 2.217 4.03 1.814 2.823 1.915 2.385 1.848 1.41 3.292 2.05 3.728 1.712 3.796.47 4.5-.402 3.898-1.31 6.55-5.172 4.098-5.78 2.318-4.77M20.365 122.096l2.2.025-.465 2.143-1.018.345.647 2.715 1.83.694 1.338-1.123.957.154 1.866.658.527-1.77-.694-2.453.993-.716L30.053 124l.323 2.15-.287 1.484-.994 1.412-3.278.455-4.532.216-1.543-1.688-.634-2.187.298-1.722" fill="#f8c20f"/><path d="M67.313 10.307c.69.65 2.14.5 3 .5 1.146 0 2.29.004 3.433.065 1.006.054 2.082-.026 3.09-.08 1.096-.058 2.227.045 3.312-.092 1.036-.13 2.178-.45 3.207-.48.716-.022.944-.038 1.542.34.502.316.934.7 1.39 1.082.77.65 1.827 1.08 2.65 1.694.876.65 1.79 1.157 2.753 1.672 1.852.99 3.73 1.933 5.666 2.748 1.908.804 3.89 1.986 5.957 2.3-1.32 2.26-4.125.362-5.81-.472-1.98-.98-3.963-1.957-5.905-3.01-1.974-1.068-3.762-2.536-5.668-3.722-.967-.6-1.836-1.054-2.993-.886-1.04.15-2.093.184-3.138.286-1.15.112-2.315.066-3.467.074-1.065.008-2.082.185-3.15.093-2.077-.18-4.186.002-6.27-.2-.535-.053-1.112-.225-1.6.087-.405.258-.77.75-1.098 1.108-.795.864-1.658 1.652-2.49 2.48-1.55 1.545-3.43 2.733-5.207 3.992-.497.35-.953.6-1.51.848-.336.15-1.11-.314-1.446-.43.958-.913 2.108-1.514 3.217-2.227 1.095-.703 2.058-1.634 3.072-2.447 1.06-.85 2.07-1.792 3.003-2.78.844-.895 1.5-2.582 2.958-2.543-1.462-1.89-3.644 2.296-4.537 3.017-1.706 1.38-3.34 2.926-5.143 4.174-1.01.7-1.996 1.456-3.07 2.058-.17.095-1.014.456-.965.6.18.526.56.84 1.04 1.105.95.528 2.016.842 2.96 1.388 1.008.584 1.995 1.188 2.966 1.832.37.243.75.524 1.16.69.55.222.115.66-.038 1.14-.333 1.054-.373 2.148-.373 3.246 0 .982.412 2.152-.415 2.957-.736.718-1.707 1.47-2.01 2.483-.166.556-.306.975-.18 1.56.085.387.546 1.174.392 1.543-.432 1.03-.94 2.07-.74 3.226.185 1.07.453 2.278.42 3.355-.024.938-1.38 1.72-1.858 2.525-.37.62-.62 1.245-1.02 1.852-.334.505-1.146.36-1.715.41-1.34.12-2.696.835-3.054 2.245-.088.343-.475 1.527-.07 1.844.478.375 1.055-.855 1.36-1.063.618-.423 1.112-.89 1.89-.893.607-.002 1.183.267 1.75.456-1.31 1.058-2.56 2.026-3.71 3.27-1.24 1.34-2.912 1.258-4.54.98.16.79 1.074 1.41 1.75 1.75-1.735 1.58-3.348 3.028-4.444 5.14-1.036 1.998-1.806 3.922-1.807 6.188-.002 2.254-.22 4.505-.28 6.764-.056 2.153-1.562 3.866-2.277 5.814-.325.887-.78 2.01-.623 2.975.18 1.12.445 2.214.625 3.334.066.414-.362 1.177-.488 1.572-.16.5-.372.964-.586 1.444-.426.954-.74 1.948-1.098 2.926-.315.852-.566 2.33-1.354 2.877-.86.6-2.05.622-2.928 1.236-.958.67-1.752 1.492-2.578 2.318-.66.658-1.23 1.628-2.163 1.912-.072-.745.285-1.46.496-2.156.274-.91.467-1.744.488-2.696.016-.735-.033-1.964-.57-2.49-.548-.536-1.72-.404-2.416-.408.608.51 1.544.413 2 1.256.46.845.127 2.097-.03 2.96-.16.9-1.098 4.85-2.47 4.376-.95-.33-1.1-1.78-1.255-2.568-.16-.805-.36-1.74-.165-2.554.124-.52.32-.77-.292-.91-.38-.088-.79-.282-1.184-.22-1.035.163-1.71.446-1.604 1.66-1.218-.656-1.22-2.977.27-3.29 1.338-.28 2.86-.408 4.23-.46-.62-.53-1.904-.146-2.604-.053-.87.117-2.07-.104-2.81.492-.818.66-.837 1.546-2.054 1.58-1.027.03-2.004.262-2.965.616-1.67.616-3.825 1.675-5.09 2.958-.604.615-1.507 1.315-1.906 2.093-.542 1.06-.712 1.884-.822 3.066.268-.267.385-.655.522-1 .2-.5.537-.938.823-1.39.48-.757 1.243-1.497 1.92-2.09 1.627-1.428 3.455-2.356 5.417-3.264.96-.444 1.662-.687 2.578-.015.778.57 1.633 1.266 2.168 2.078.603.914 1.207 1.816 1.748 2.768.566.996.717 1.772.825 2.913-1.443.105-3.15-.81-4.5-1.25-1.532-.5-3.088-.913-4.684-1.152-1.51-.228-3.245 1.024-4.526 1.714-1.54.83-2.16 2.55-2.292 4.188.527-.25.635-.728.75-1.25.46.86.24 2.132.2 3.056-.03.637-.018 1.263-.003 1.902.01.526-.358 1.033-.448 1.542.776-.09 1.334-.68 1.862-1.193.617-.603 1.18-.48 1.89-.807.497 1.597-2.152 2.93-3.222 3.576-.186.113-.93.08-1.03.174-.068.068 0 .586 0 .684 0 .33-.044.316.297.316.816 0 1.677-.524 2.452-.75l-1.477 1.108c-.38.284-1.003.552-1.184 1.027-.33.875.455.63 1.12.648.5.014 1.052.305 1.543.218-.25 1.16-1.335 2.026-1.5 3.25 1.022.16 2.173-1.007 2.867-1.6.808-.692 1.8-1.696 2.883-1.9-2.813 2.814-6.403 6.033-6.75 10.25.683.054 1.4-.194 2-.5 0 .67.007 1.338-.106 2-.106.62-.45 1.388-.145 2 1.24-.366 1.985-1.85 2.647-2.844.79-1.186 1.194-2.566 2.02-3.75.336-.486.93-.824 1.362-1.238.568-.545 1.104-1.084 1.625-1.676.806-.914 1.52-2.13 2.596-2.742 0 .794-.006 1.527-.323 2.26-.37.857-.654 1.54-.677 2.49-.043 1.793 1.048 2.746 1.75 4.25-.934.257-1.945.826-2.817 1.263-.974.492-1.903 1.1-2.757 1.78-1.742 1.39-3.437 3.008-4.725 4.83-.66.936-1.33 1.885-1.902 2.876-.57.99-.76 1.914-1.05 3-.54 2.04-.25 4.404-.25 6.5v27.566c0 .604-.208 2.934.528 2.934.462 0 1.285 2.21 1.494 2.625.89 1.782 2.07 3.514 3.176 5.173.54.806 1.073 1.64 1.76 2.328.695.694 1.574 1.098 2.21 1.876.575.705 1.71 1.46 2.582 1.75.512.172.903.494 1.375.73.524.262 1.09.338 1.625.563.975.405 2.084.72 3.125.893.485.082.964.063 1.454.063.587 0 1.098.2 1.672.25 1.002.09 2.204-.196 3.172-.438 1.02-.256 2.06-.43 3.078-.728 1.93-.56 3.678-1.823 5.25-3.04.817-.634 1.447-1.4 2.168-2.126.688-.694 1.415-1.383 2-2.168.597-.8 1.062-1.713 1.564-2.573.524-.9 1.173-1.724 1.697-2.625.967-1.658 1.96-3.683 2.428-5.552.256-1.026.503-2.073.838-3.078.344-1.03.422-2.108.6-3.172.175-1.06.267-2.11.445-3.172.182-1.098.052-1.885.715-2.88.71-1.064 1.385-2.167 2.03-3.27.646-1.112 1.464-2.153 2.04-3.303 1.15-2.3 2.985-4.242 3.977-6.624-2.22 0-4.36-.522-6.534-.957-1.002-.2-2.517-.35-3.122-1.285-.103-.158-.59-1.134-.037-.994.564.144 1.122.232 1.693.343 1.076.21 2.115.367 3.195.533.873.135 2.418.71 3.22.14.72-.517.82-2.448.975-3.245.195-.99.35-1.99.55-2.984.813-4.05 1.848-8.017 2.83-12.03.493-2.016.997-4.026 1.583-6.02.276-.938.56-1.893.912-2.805.428-1.108.637-2.225 1.984-2.444-.857 4.306-1.86 8.595-2.865 12.87-.496 2.106-.77 4.25-1.272 6.358-.484 2.026-.946 4.164-1.288 6.217-.24 1.452-.912 3.087-.825 4.556.885-.524 1.368-1.897 1.8-2.766.408-.818.355-2.184.566-3.103.478-2.094.867-4.252 1.273-6.36.808-4.19 1.768-8.338 2.614-12.52.196-.964.418-1.92.65-2.876.2-.82.32-1.957.774-2.675 1.036-1.638 3.38-1.996 5.075-2.7.39 1.265-.21 2.526-.25 3.794-.045 1.338-.33 2.63-.5 3.956-.33 2.59-.75 5.134-.75 7.75 1.28-.74 1.094-2.725 1.218-4 .146-1.502.404-2.994.55-4.5.143-1.475.423-2.955.473-4.433.04-1.167.26-3.612 1.76-3.817 0 .954-.01 1.87-.174 2.81-.146.843-.32 1.87-.328 2.72-.017 2.085-.25 4.13-.25 6.22 1.063-.618 1.786-2.3 2.45-3.297.28-.423.634-.843.85-1.304.233-.502.177-.31-.194-.64-.19-.17-.418-.348-.57-.552-.4-.528-.96-1.105-.627-1.774.315-.63 1.024-1.125 1.274-1.727.102-.244.41-.697.4-.957-.015-.28-.423-.76-.558-1.003-.297-.54-.758-1.11-.773-1.747.787.425 3.114 2.302 2.615 3.26-.353.677-1.207 1.39-1.415 2.068-.23.755.086 1.45.3 2.172.834-.626.498-1.862 1.24-2.594.763-.75 1.654-1.342 2.01-2.406-1.465-.208-3.008-1.877-3.5-3.25.516.028.943.032 1.42.22.482.187.902.56 1.386.772.862.376 1.745-1.104 2.693-.492.092-.33.197-.66.25-1-1.63 0-3.42-.105-5-.5.355-.566.583-1.243.967-1.78.633-.89.953-1.374 2.09-1.455 1.636-.114 3.3-.264 4.943-.264-.488-.722-2.088-.35-2.816-.298-1.225.086-2.457.048-3.684.048.19-1.24 2.304-.903 3.184-.964 1.273-.088 2.543-.244 3.816-.286-.484-.413-1.41-.253-2-.233-.807.025-1.643.076-2.443.17-.733.084-1.946.134-2.452-.49-.364-.45-.975-1.878.025-2.028 1.79-.267 3.61-.17 5.42-.17.802 0 1.593-.213 2.384-.344.65-.108 1.652-.097 1.816-.904-.592.11-2.557.71-2.87-.06-.273-.676-.378-.95-.294-1.668.06-.508.157-1.037.16-1.547.003-2.21.13-4.48.462-6.668.15-.992.2-2.09.28-3.1.087-1.1.396-2.174.468-3.272.14-2.152.773-4.256 1.174-6.367 1.62-8.54 4.332-17.02 7.705-25.024.214-.512.47-1.008.706-1.51.18-.38.293-1.088.727-.944.39.128.85.067 1.25.05.652-.027 1.097.07 1.73.24.506.133.982.26 1.5.316.58.063 1.184-.067 1.75.01.508.07 1.06.337 1.557.486.54.163 1.086.224 1.627.405 1.05.35 2.117.884 1.68 2.153-.337.97-1.126 1.932-1.606 2.852-1.01 1.93-2.05 3.89-2.896 5.898-3.377 8.013-6.11 16.352-7.703 24.906-.102.555-.157 1.032-.157 1.594.834-.485 1.37-1.675 1.885-2.452.63-.956 1.217-1.94 1.85-2.893 1.273-1.917 2.546-3.832 3.898-5.695 1.334-1.838 2.644-3.694 3.963-5.543 1.24-1.743 2.565-3.573 3.153-5.666-.594.405-.934 1.278-1.29 1.877-.427.715-.946 1.373-1.433 2.048-.44.61-.82 1.257-1.285 1.846-.44.557-1.086 1.218-.992 1.98-.502-.08-1.084-.514-1.17.215-.068.597-.22 1.196-.33 1.786-.223-.352-.434-.722-.75-1-.445.84-.5 1.824-.5 2.75-.113-.22-.25-.577-.25-.828 0-.127.076-.422-.078-.422-.367 0-.414-.08-.447.297-.07.756-.225 1.433-.225 2.203-.266-.308-.592-.647-1-.75 0 .52-.125.998-.25 1.5-.17-.287-.38-.25-.672-.25-.163 0-.095.542-.1.685-.012.36.003 1.34-.227 1.566-.055.055-.367.017-.492.097-.146.096-.234.316-.288.48-.18.555-.326 1.108-.47 1.673-.476-.928-.093-1.872.163-2.805.297-1.08.553-2.184.902-3.25.668-2.03 1.233-4.093 1.913-6.122 1.46-4.36 3.154-8.737 5.23-12.843.873-1.728 1.81-4.11 3.502-5.127.178-.107 1.178.34 1.355.49.407.346.786.722 1.174 1.087.896.84 1.394 1.506 2.013 2.57.572-.337.902-.957 1.25-1.5-.902-.472-1.547-1.34-2.324-1.983-.988-.815-2.01-1.568-3.04-2.33-.494-.365-2.21-.99-2.295-1.686-.05-.416.506-1.13.748-1.454.353-.472.527-.966.596-1.546.14-1.21-.234-2.272-.646-3.39-.373-1.008.11-2.134-.684-3.093-.763-.927-1.837-1.033-2.857-1.385-.783-.27-1.9-1.627-2.104-2.425-.288-1.118-.715-2.155-1.897-2.564-.492-.17-1.084-.133-1.594-.14-.653-.012-.895-.33-1.23-.825-.622-.907-1.245-1.574-2-2.36-.915-.95-1.556-1.62-1.845-2.944-.22-1-.05-2.098-.113-3.124-.03-.47-.145-.98.13-1.398.344-.533.723-1.007 1.126-1.498 1.404-1.707 2.886-3.162 4.627-4.53.197-.156 2.437-1.97 1.794-2.094-.993-.192-1.907-.664-2.83-1.058-2.186-.933-4.33-1.964-6.51-2.897-1.87-.798-3.745-1.944-5.455-3.037-.98-.627-1.91-1.28-2.81-2.017-.864-.706-1.58-1.507-2.726-1.643-1.23-.147-2.58.376-3.817.456-1.428.092-2.805.21-4.25.217-1.45.006-2.884.25-4.327.25h-4.424m-10.25 11c.88-.417 1.7-1.17 2.444-1.788.89-.74 1.805-1.44 2.675-2.203.825-.72 1.574-1.5 2.346-2.273.39-.39.795-.77 1.196-1.15.29-.275 1.196-.32 1.59-.333.53-.017 1.08.122 1.594.218.5.092 1.03.02 1.537.032 1.13.025 2.243.15 3.37.16 2.177.017 4.335-.292 6.5-.413 1.066-.06 2.114-.234 3.183-.28 1.042-.044 2.06.857 2.903 1.4 1.813 1.166 3.563 2.47 5.49 3.455 1.972 1.01 3.898 2.11 5.943 2.966.816.34 2.697.855 2.02 2.034-.52.908-1.558 1.71-2.278 2.456-.37.383-.873.648-1.31.948-.42.288-.95.035-1.368-.18-.928-.477-1.842-.983-2.748-1.5-1.91-1.09-3.985-2.054-6.11-2.635-2.098-.574-4.208-1.38-6.375-1.63-2.216-.255-4.38-.514-6.615-.532-2.987-.024-5.83.874-8.554 2.03-.725.308-1.432.636-2.1 1.055-.67.42-1.214.895-2.023.66-1.068-.31-3.28-1.157-3.31-2.497m34.25 24.25c0 .675-.014.666-.447 1.106-.455.46-.555 1-.715 1.602-.112.425.194 1.096.288 1.507.113.5-.21 1.034-.19 1.536.044 1.084 1.46 1.814.51 2.896-.703.8-1.756 1.456-2.65 2.017-3.69 2.313-8.37 3.098-12.58 2.182-1.387-.302-3.49-.668-4.526-1.748-.508-.53-1.48-1.174-1.572-1.922-.114-.9-.118-1.767-.118-2.676.825.002 1.256.8 1.877 1.194.708.452 1.545 1.03 2.373 1.225 1.635.386 3.654.01 5.25-.39 3-.75 7.113-2.18 8.75-5.03-3.475 3.165-7.614 4.645-12.23 5.145-2.328.253-4.094-1.44-5.373-3.144-1.39-1.848-2.78-3.605-3.794-5.694-.818-1.684-.873-3.707-1.266-5.507-.216-.99-.254-1.934-.388-2.93-.138-1.027.01-1.856.05-2.87.56.34 1.098.864 1.75 1-.12-.232-.48-1.233-.12-1.258.867-.06 1.404-.11 2.18-.47.515-.24 1.214-.586 1.573-1.02.347-.42.38-1.028.618-1.5.48.205 1.006.688 1 1.25-1.502.016-1.334 2.305-2 3.25 1.22-.23.998-2.005 2-2.25-.046 1.188-.25 2.342-.25 3.546 0 .64-.04 1.27-.083 1.91-.04.577-.54 1.102-.663 1.668-.142.656.25 1.008.79 1.343.403.25 1.278.794 1.74.7.678-.14 1.298-.315 1.987-.266.663.046 1.338.07 1.978-.15-.908-.46-2.015-.644-2.943-.273-.567.227-.9.2-1.477.062-.85-.2-.83-.306-.866-1.165-.05-1.13.14-2.19.25-3.307.106-1.067-.04-2.132.145-3.192.17-.988.422-2.202.324-3.198-.098-.994-.675-2.403-1.718-2.825-2.122-.86-4.487-.92-6.466.332-.166.104-.314.23-.5.316-.44-.86-.25-2.023-.25-2.957 0-.997.295-2.217 1.33-2.627 2.117-.838 4.16-1.382 6.42-1.667.457-.057.95-.218 1.407-.164.53.063 1.083.16 1.62.165 1.168.008 2.268.013 3.418.238 1.02.2 2.058.122 3.09.373 1.076.262 2.195.48 3.235.86.96.35 2.37.594 2.955 1.51.6.943 1.066 1.957 1.416 3.018.687 2.09.798 4.376 1.113 6.55.32 2.215-.385 4.507-.924 6.635-.47 1.856.7 4.245 2.47 4.983l.2.083m-28.75-20.75c.574 1.167-.18 1.976-.51 3.035-.373 1.192-.49 2.293-.49 3.544 0 .978.274 2.444-.512 3.163-.777.71-1.682 1.71-2.737 2.01-.413-.795-.1-1.997.554-2.578.946-.84 1.992-1.6 2.123-2.945.11-1.103-.1-2.306.103-3.385.188-.997.187-2.674 1.47-2.844m26.75 0c2.05 2.29 1.062 5.63 2.02 8.344.212.598.59 1.16.92 1.696.44.704.73 1.412 1.044 2.18.395.965.854 2.934.016 3.78-.568-1.26.242-2.614-.55-3.838-.81-1.256-2.013-2.544-2.43-3.976-.387-1.342-.368-2.75-.62-4.13-.148-.82-.316-1.64-.478-2.46-.096-.48-.283-1.18.078-1.596m2.5 1.25c2.426 2.063 1.125 6.123 2.275 8.75.686 1.566.647 2.84.495 4.5-.155 1.652.218 2.937.73 4.5-1.502-.82-1.25-2.642-1.25-4.102 0-1.696-.152-3.045-.908-4.588-.692-1.408-1.338-2.984-1.342-4.59-.002-.862-.002-1.705-.088-2.564-.06-.617-.344-1.364.088-1.906m-15.5 4.5c.77.105.556-.59.613-1.203.044-.464.527-.827.886-1.047.03.356.215.976.082 1.306-.173.427-.382.785-.582 1.194.824-.14 1.606-.555 2.442-.716.736-.142 1.558-.25 2.308-.284-.406-.33-1.517-.117-1.777-.515-.39-.596-.8-1.52.278-1.734.03.456-.042 1.09.5 1.25-.025-.406-.25-1.5.25-1.5.496 0 .5 1.066.5 1.5.342-.37.175-1.046.62-1.38.307-.232 1.25-.35 1.614-.208.723.28 1.264.49 1.864.97.38.303.72.64 1.153.868-.256-1.25-1.338-2.015-2.5-2.336-.643-.178-1.34-.152-2-.164-.605-.01-1.217-.154-1.817-.082-1.072.13-2.798.172-3.718.757l-.953.607c-.138.087-.02.873-.018 1.035.008.58.25 1.108.255 1.684m17.5-3.5c.702.537.72 1.822.86 2.625.18 1.042-.066 2.172.153 3.182.26 1.202.734 2.09 1.332 3.164.484.87.873 1.815.406 2.78-.273-.305-.3-.863-.404-1.25-.142-.523-.368-.89-.648-1.36-.625-1.05-1.166-1.94-1.324-3.164-.135-1.054.03-2.08-.094-3.132-.084-.717-.738-2.235-.28-2.844m-14.5 2.5c-1-.028-.96-.988-1-1.75.977-.027.96 1.062 1 1.75m-13-1.5c.594.836-.503 2.5-.503 2.5s-.59 1.75-1.455 1.75c-.753 0-.543-2.086-.345-2.66.275-.798 1.51-1.467 2.302-1.59m-3.5.25c0 1.537-.018 3.12.1 4.648.017.218.164.73.02.91-.305.382-.608.763-.91 1.145-.524.657-.797 1.126-1.71 1.046.346-.578 1.126-1.088 1.604-1.56.426-.424.542-1.414.475-2.006-.083-.74-.078-1.464-.078-2.21v-1.455c0-.507-.06-.567.5-.52m5 0c0 .427-.048.87-.25 1.25-.44-.29-.45-.763-.5-1.25h.75m1.25 0c.05.316.145.617.23.923.086.31-.664.488-.754.267-.093-.23-.225-.517-.225-.767 0-.587.197-.422.75-.422m26.25 0c1.096 1.652.057 3.892 1.053 5.65.55.968 1.43 1.385 2.177 2.167.784.818.74 1.738.614 2.808-.158 1.354 1 .844 1.812.574 1.01-.335 1.976-.61 2.67.36.245.344.792.812.648 1.275-.123.398-.858.655-1.225.758-.732.204-2.01.814-2.75.658.285-.483.975-.853 1.5-1-.957-.48-2.195.505-3.125.68-.445.084-1.236-.03-1.545-.392-.365-.426-.172-1.05-.08-1.538.484.57.967 1.352 1.816 1.227.923-.136 1.57-.687 2.433-.977-.62-.19-1.37.2-1.957.385-.77.242-1.047-.828-1.043-1.384.002-.333.162-.667.186-1 .026-.396-.052-.828-.078-1.225-.043-.716-.79-1.16-1.275-1.625-.947-.91-1.834-1.886-1.834-3.305 0-.77-.002-1.54-.004-2.31-.003-.533-.286-1.304.003-1.784m-24.25 2c-.68-.177-1.262-.568-1.5-1.25.855-.474 1.533.447 1.5 1.25m-1.75 0c-.478.42-1.7.34-2.273.34.416-.605 1.69-.653 2.272-.34m13.75-.25c.3.506.958.83 1.5 1-.296-.454-.97-.89-1.5-1m-6.25 3c.838.503 1.13 1.522 2 2-.024-.147-.34-1.5-.207-1.5.707 0 1.36-.02 2.06-.114.636-.086 1.1-.272 1.647-.636.47-.31.895-.745 1.5-.75-.06.494-.572 1.028-1 1.25.607.462 1.66-.232 2.25-.5-.413.564-.554 1.34-.75 2 1.278-.238.87-2.354 2-2.5-.265-.592-.792-1.24-1.5-1.25.085.167.17.334.25.5-.704-.107-1.362-.393-2.042-.596-.912-.272-1.725-.337-2.677-.402-1.36-.09-3.537.866-3.53 2.498m-7.5-1.25c-.1.66-.372.843-.986.917-.713.085-1.34.244-1.514-.667.448.02.89.15 1.328.237.296.06.896-.338 1.172-.487m10.25 0c.862.327 1.38.192 2.25 0-.02 1.95-2.958.923-2.25 0m-13 1.75c-.52.064-1.143-.185-1.25-.75.532-.017 1.133.18 1.25.75m-3.25 1.5c-.25 1.534-2.083 2.32-3.5 2.25.362-.49 1.24-.682 1.75-.98.627-.367 1.126-.905 1.75-1.27m.25 1.75c.068.24.15.48.198.726.08.415-.21.43-.563.64-.547.323-1.04.673-1.64.888-.898.32-2.548 1.345-3.495.996.46-.963 1.27-1.468 2.235-1.84 1.054-.404 2.17-1.196 3.266-1.41m27.25.25c0 1.26.207 2.267.582 3.465.16.513.854 1.094 1.188 1.513.388.49.804.957 1.21 1.43.797.928 1.268 1.827 1.477 3.038.19 1.096-.154 2.04-.457 3.056.805-.483 1.244-1.334 2.25-1.5 0 1.338.156 2.89-1.086 3.72-.52.35-1.453.28-2.066.36-.613.08-1.08-.83-1.097-1.33.793.353 1.316.602 2.203.657.776.05 1.414-1.024 1.547-1.657-.795.57-1.416 1.344-2.5 1 .156-.462.44-.878.75-1.25-.563.188-1.8.795-2.334.445-.73-.475-1.9-.92-1.644-2.014.08-.334.21-.974.727-.68.322.184.207.826.75.91.988.156 1.252-1.303.83-1.898-.256-.36-.457-.775-.84-1.002-.414-.245-.838-.475-1.226-.76-.89-.655-1.078-1.456-1.504-2.477-.254-.608.023-1.99.203-2.59.22-.73.39-1.953 1.037-2.434m1.25 0c.385.722.242 1.72.25 2.5-.793.108-.5-.636-.5-1.25 0-.445-.037-.883.25-1.25m3.5.5c0 1.416.437 2.827.5 4.25-1.023-.3-1.078-3.514-.5-4.25m-32 1.25c-.594 2.206-3.622 1.84-4.25 4 1.54-.94 3.196-1.44 5-1.5-.117.898-1.695 1.014-2.376 1.19-.972.253-1.65.625-2.374 1.31.946-.133 1.773-.437 2.75-.5-.137 1.04-1.774 1.112-2.56 1.078-.735-.032-1.124.073-1.587-.518-.39-.494-.198-.903.05-1.372.628-1.192.922-1.865 2.208-2.374.986-.39 2.094-1.152 3.14-1.314m12.498 1c.165.286.48.348.75.5-.204-.258-.447-.383-.75-.5m28.5 7c.202-.673.622-1.192.673-1.922.02-.292-.395-.745-.54-.99-.22-.366-.552-.417-.948-.58-.66-.274-1.35.005-2 .275-.575.238-1.56.862-2.184.716.164-.768 1.582-1.142 2.195-1.44.985-.477 1.832-.515 2.883-.336 1.103.188 1.142 1.46 1.364 2.327.223.867-.523 1.952-1.44 1.95m-33.75-2.75c0 .613-.052 1.474.715 1.52.724.044 1.377-.235 2.1-.236.675 0 1.325.216 1.987.216.737 0 1.46-.037 2.195 0-.003-.345.14-1.755-.25-2-.164-.103-1.006.216-1.216.26-.28.06-.754-.254-1.034-.327-.738-.192-1.495-.112-2.25-.078-.804.035-1.46.64-2.25.644m20.75-.75c.26.38.808.672 1.25.75-.294-.46-.75-.6-1.25-.75m-26.75.5c-.388 1.872-3.203 1.843-4.656 2.188-1.705.404-4.1 1.568-4.343 3.562-.533-.65.234-1.906.642-2.435.603-.78 1.672-1.426 2.608-1.678.972-.262 1.976-.41 2.965-.603.974-.19 1.785-.995 2.785-1.034m10 .5h-.75c.068-.137.17-.54.328-.46.237.117.498.147.422.46m29.25 1.75c-.134-.41-.058-.928-.315-1.29-.29-.405-.97-.478-1.434-.46.986-1.278 2.96.893 1.75 1.75m-8.25-1.75c.902.54 1.764 2.945.25 3.25.008-.885-.805-2.503-.25-3.25m1.5 0c.88.745 1.178 3.14-.25 3.5-.102-.51.174-1.31.217-1.844.045-.525-.25-1.186.033-1.656m-32 .75c1.19 1.78-.864 3.473-2.52 3.804-1.86.372-3.712-.163-5.23 1.196 1.726 0 3.36.127 5.056.462 1.806.357 2.928-.74 4.443-1.462-.05 1.518-1.548 1.97-2.735 2.34-1.166.363-2.523-.273-3.635-.657-1.364-.472-2.166.19-3.197.91-.604.42-1.068.774-1.686.16-.47-.468-.498-1.142-.498-1.754.32.254.356.75.75.75.353 0 .495-.74.72-1.072.468-.695 1.43-1.517 2.28-1.678-.613-.314-1.375.16-2 .25.32-1.673 2.81-1.61 4.043-1.755.85-.098 1.606-.2 2.403-.514.64-.254 1.107-.833 1.804-.98m28.25 0c.183.558.804 1.755.554 2.293-.22.477-.367.884-.748 1.245-.287.274-.688.568-.805.96.406-.095.748-.3 1.074-.55.477-.367.47-.86.612-1.445.227-.946.32-1.942-.687-2.504m4.75 7.25c.445-.194 1.014-.002 1.5-.078.654-.103 1.105-.392 1.553-.878.816-.89-.17-2.34-.803-3.044.125.503.25.98.25 1.5-.62-.43-1.22-.956-1.764-1.477-.657-.63-.475-1.593-.602-2.455-.024-.156-.246-.965.177-.793.344.14.657.326.983.51.816.456 1.51.908 2.19 1.548 1.515 1.425 1.566 3.005.74 4.79-.29.627-1.31.986-1.975 1.013-.77.032-1.568-.306-2.25-.637m11.75-5c-.863-.22-1.53-1.24-2.25-1.75.414-.7 1.244-.043 1.705.22.432.248.555 1.062.545 1.53m-7.25-2c-.084.563-.533.79-1 1 .004-.58.473-.91 1-1m5.25 1.5c-.354.08-.703-.142-.75-.5.303.116.545.242.75.5m-35.5 0c.527 1.087 2.347.984 3.25.5-.417-.298-1.018-.095-1.5-.14-.59-.057-1.165-.268-1.75-.36m-6.25.5c.454.84-.452 2.015-1.198 2.356-.894.408-2.135.612-3.052.144.525-.53 1.43-.455 2.03-.86.77-.52 1.488-1.07 2.22-1.64m40.75 6.5c.412-.558 1.426-.642 2.035-.914.803-.358 1.254-1.077 1.05-1.96-.17-.743-.702-1.486-1.284-1.977-.545-.458-1.293-.65-1.8-1.15.905-.328 1.966.122 2.716.59.92.57 1.068 1.893 1.22 2.888.31 2.024-2.26 3.38-3.937 2.523m-4.25-.5c.37-.337 1.232-.37 1.7-.49.622-.155.94-.88 1.036-1.432.09-.512-.52-1.28-.856-1.637-.467-.497-.87-.973-.88-1.69 1.446.026 3.02 2.023 2.645 3.444-.41 1.564-2.12 2.587-3.647 1.806m-30.5-4.25c1.216-.265 2.1-.133 3.25.25-.33-1.19-2.69-1.298-3.25-.25m15.25-.5c-.193.77.28.444.5 0-.16 0-.344-.027-.5 0m11 2.5c.59.18 1.162.183 1.75 0-.418.673-1.828.473-2.25-.054-.436-.545-.31-1.863 0-2.446.406.207 1.03.485 1.078 1.017.046.5-.37 1.057-.577 1.483m10 1.25c-.105.178-.55.428-.75.25-.03-.026-.043-.65-.06-.75-.085-.556-.46-1.195-.19-1.75.893.51.912 1.317 1 2.25.562-.85.34-1.312-.145-2.12-.335-.56-1.177-.7-1.355-1.38 1.012-.022 2.236.78 2.39 1.82.057.397.223 1.128-.048 1.482-.182.24-.69.84-.842.198m-54-1.5c-.747 0-1.463.045-2.208.115-.617.06-1.2.465-1.792.636.216-1.717 3.167-2.277 4-.75m2.75-.75c-.223.223-.55.406-.5.75.3-.143.554-.398.5-.75m47.25.25c.46.464.52 1.577-.25 1.75 0-.523-.13-1.318.25-1.75m-13.25.25c.406.366.562.744.75 1.25-.633-.018-1.23-.672-.75-1.25m-23.5.5c-.038 1.95-4.4 3.015-5.25 1.25 1.006 0 1.975-.02 2.976-.116.796-.075 1.61-.702 2.272-1.134m-7 1.25c-.472.376-1.605.146-1.75-.5.598.01 1.23.22 1.75.5m2.75 1.5c.015.165 0 .336 0 .5-1.3-.07-2.428-.194-3.683-.543-.952-.266-2.4-.433-3.352-.078-1.202.45-2.184 1.015-3.237 1.75-1.005.703-1.967 1.468-3.227 1.62.308-.516.868-.937 1.288-1.364.39-.394.617-.923 1.034-1.292 1.085-.956 2.028-1.628 3.553-1.45 1.23.145 2.552-.063 3.756.203 1.275.282 2.563.656 3.87.656m31.5-.75c-.01.278-.06.56-.135.828-.035.132-.04.422-.193.422-.14 0-.4.073-.443-.078-.038-.13-.3-.79-.23-.922.108-.2.825-.223 1-.25m3 .25c-.022.99-.628 2.098-1 3-.405.984-.792 1.97-1.185 2.957-.402 1.016-.71 2.207-1.287 3.133-.308.49-.43.92-.984 1.084-.598.18-1.182.365-1.793.48-2.14.407-4.428.588-6.607.62-1.063.016-2.07.258-3.144.226-1.123-.033-2.215-.234-3.34-.248-2.85-.034-5.814-.047-8.6-.715-.602-.145-1.6-.224-2.102-.567-.727-.493-.913-1.164-1.037-2.025-.217-1.514-.603-2.9-.67-4.444.803.44 1.51 1.152 2.25 1.697.837.618 1.716 1.19 2.656 1.645 1.95.944 4.164 1.658 6.343 1.658-.842-.447-1.874-.507-2.77-.815-1.143-.39-2.197-.862-3.252-1.453-.99-.555-1.83-1.144-2.712-1.86-.734-.596-1.745-1.273-1.985-2.23-.134-.535-.153-.9.47-1.1.597-.19.998.15 1.29.62.59.95 1.487 1.71 2.418 2.312.89.574 2.097.872 3.105 1.167 1.028.302 2.06.593 3.133.64.96.04 1.748.066 2.713-.01.98-.077 1.925-.33 2.897-.422 1.046-.097 1.667.197 1.686 1.4.014.824-.888 1.682-1.74 1.5 1.05.547 3.033-.262 4.057-.642 1.466-.545 2.888-1.236 4.193-2.107 1.316-.877 2.453-1.952 3.566-3.067.95-.952 1.89-2.9 3.433-2.434m-4.75.5c.484.413.545 1.202.25 1.75-.55-.348-.63-1.262-.25-1.75m-33 1c.208 1.112-2.315 1.31-3.067 1.486-1.338.316-2.557.514-3.934.514 1.163-2.35 4.763-3.188 7-2m31.75 0c.605.442.562 1.4.25 2-.6-.357-.65-1.49-.25-2m-22.75 48c-1.113-.215-2.177-.563-3.273-.848-1.093-.285-2.245-.54-3.237-1.084-1.026-.562-.715-2.128-.84-3.134-.144-1.143-.15-2.26-.15-3.41-.002-2.095-.21-4.265-.477-6.34-.14-1.092-.234-2.144-.322-3.24-.08-.992-.435-1.975-.457-2.967-.096-4.297-1.46-8.675-2.83-12.717-.697-2.05-1.518-4.153-2.653-6-.57-.93-1.185-1.826-1.803-2.724-.547-.8-1.224-1.444-1.708-2.286 2.126-.457 4.31-.4 6.436-.966 1.047-.28 2.11-.583 3.107-1.014.807-.348 2.404-1.274 3.3-.77.65.364.954 2.427 1.058 3.035.197 1.163.465 2.297.738 3.444.486 2.03.753 4.154 1.084 6.217.337 2.097.55 4.207.88 6.306.172 1.085.104 2.17.297 3.25.204 1.133.325 2.22.35 3.37.046 2.078.502 4.142.502 6.23 0 2.262.25 4.49.25 6.747 0 2.94.374 6.013-.25 8.903m22-47c-.003.24.075 2.627-.75 2-.26-.197-.13-1.163-.128-1.393.004-.393.57-.598.88-.607m-1.5.75c.095.488.218 1.004.185 1.5-.02.245-.458 1.316-.712.688-.243-.605-.528-2.384.525-2.188m-1.75.75c.48.496.666 1.874-.25 2 0-.573-.17-1.52.25-2m-1.25.5c.38.697.717 2.252-.5 2.25 0-.66-.168-1.834.5-2.25m-1.25.5c.064.273.516 3.2-.5 2.5-.262-.18-.25-1.004-.25-1.273V58.34c0-.074.643-.034.75-.034m-24.25 41.75c-.958-.05-1.543-1.252-1.928-2-.533-1.037-.977-2.127-1.35-3.23-.696-2.054-1.197-4.116-1.472-6.27-.137-1.072-.293-2.144-.492-3.207-.2-1.076-.013-2.242-.186-3.343-.162-1.034-.28-2.09-.402-3.134-.12-1.026-.614-1.968-.998-2.914-.554-1.365-1.113-2.7-1.513-4.12-.41-1.45-.94-2.464-2.26-3.25-2.105-1.257-5.245-2.383-7.648-1.534-.18-.854.648-2.107 1.015-2.82.586-1.136 1.09-2.14 1.913-3.113.55-.648 1.633-1.62 2.453-1.854.686-.197.985-.387 1.62-.08.585.28.982.675 1.468 1.113 3.24 2.923 4.728 7.22 6.03 11.263.68 2.108 1.128 4.23 1.532 6.396.395 2.12.495 4.288.86 6.404.175 1 .245 2.083.344 3.096.102 1.052.11 2.193.29 3.225.385 2.226.462 4.586.477 6.847.005.83.222 1.682.25 2.522m16.5-38.25c.42.384 1.236.25 1.75.25-.417-.372-1.243-.242-1.75-.25m3 0c.22.205.464.19.75.25-.227-.19-.467-.197-.75-.25m13 2.25c.02 2.622-2.992 2.3-4.86 2.577-2.37.35-4.73.423-7.12.423h-3.094c-1.088 0-2.136-.247-3.22-.248-1.224-.002-2.36-.095-3.56-.324-.943-.178-2.064-.195-2.938-.61-.743-.353-1.417-.63-1.46-1.568 1.164.05 2.235.194 3.376.424 1.01.205 2.146.177 3.18.267 2.185.188 4.41.057 6.6.153 1.128.05 2.167.005 3.29-.085 1.086-.087 2.164.045 3.25-.104 1.09-.15 2.18-.195 3.262-.396 1.082-.2 2.133-.458 3.236-.505l.057-.004m-25 2.75c.78.398 1.78.26 2.624.427.93.182 1.95.323 2.897.323h6.84c1.867 0 3.692-.075 5.545-.195 2.034-.13 4.054-.486 6.093-.554.084 1.003-1.453 1.235-2.193 1.256-1.065.03-2.155.177-3.205.353-2.165.36-4.485.14-6.68.14-1.164 0-12.27-.437-12.075-1.582l.153-.167m-16.75 6c-1.657-.272-3.147-1.3-4.805-1.675-.797-.178-1.576-.31-2.39-.396-.79-.08-1.544.468-2.306.572 0-.93-.207-2.776.862-3.25.664-.292 1.17-.645 1.89-.54.66.096 1.305.26 1.956.413 1.037.244 2.566.786 3.392 1.462.484.394 1.014.693 1.167 1.333.17.717.213 1.34.233 2.08m40-4.5c.643 1.17-.307 3.1-.646 4.25-.42 1.43-.674 2.916-1.354 4.25-.785-.46-1.217-1.747-1.66-2.504-.518-.88-1.186-1.913-2.17-2.222-.832-.263-2.06-.022-2.938-.02-1.154.002-2.333.125-3.483.046-2.064-.14-4.16-.384-6.225-.422-.834-.015-1.735 1.41-2.202 2.034-.535.718-1.106 1.922-2.073 2.09-.447-2.404-.75-4.805-.75-7.25 1.86.003 3.708.2 5.567.26.987.034 1.944.24 2.933.24h3.222c3.987 0 7.862.033 11.778-.75m-38 9.75c-1.028-.16-1.983-.978-2.874-1.478-.978-.547-2-1.03-3.07-1.357-1.132-.342-2.222-.593-3.4-.654-.44-.023-.923-.003-1.35.103-.313.076-.51.254-.638-.064-.095-.237-.117-.467-.157-.722-.194-1.25.897-2.088 1.987-2.248 1.032-.152 2.023.068 3.02.33 1.135.3 2.172.765 3.23 1.27 1.21.576 1.745 1.223 2.536 2.296.468.637.718 1.743.715 2.524m19.25-5.63c1.044-.158 2.1-.154 3.148.003 1.085.16 2.163.126 3.26.126h3.698c.93 0 2.247-.427 2.905.353.668.79 1.094 1.673 1.59 2.578.51.93 1.318 2.026 1.554 3.068.465 2.048-.61 4.643-1.027 6.64-.207.984-.334 1.992-.5 2.985-.168 1.016-.37 2.213-.377 3.238-.01 1.16-.137 2.24-.25 3.388-.113 1.144-.506 1.898-1.156 2.84-.694 1.008-1.354 1.89-2.274 2.7-.555.49-2.067.363-2.78.41-1.053.066-2.138.05-3.197.05-1.1 0-2.21.08-3.287-.14-1.15-.235-1.803-1.18-2.458-2.075-.597-.816-1.375-1.708-1.502-2.735-.152-1.22-.347-2.408-.347-3.64 0-1.04.115-2.183-.042-3.214-.334-2.22.044-4.492-.364-6.694-.203-1.09-.125-2.24-.218-3.35-.05-.623-.092-.86.173-1.41.253-.522.486-1.052.787-1.546.798-1.307 1.583-2.486 2.665-3.574m-30.75 5.38c-.783-1.6.95-2.828 2.446-2.66.856.097 1.67.297 2.488.56.688.22 1.656.537 2.164 1.044.393.39.406.513.49 1.068.083.56-.027.614-.386 1.068-.315.398-1.89-.305-2.268-.455-.758-.3-1.525-.63-2.33-.772-1.027-.18-1.58-.093-2.603.148m34.25 4c-.68-.723-1.635-2.253-2.75-2.25.034 1.23 1.537 2.573 2.25 3.5-1.872.063-3.827.46-4.176 2.562-.143.85.2 1.776.925 2.296.84.602 1.78.642 2.75.642-.602 1.05-2.255 1.937-2.25 3.25 1.19.188 2.073-1.47 3-2-.628 1.227-.5 2.764-.5 4.094 0 1.315 1.233 2.897 2.657 2.757 1.587-.157 2.93-.47 3.186-2.25.204-1.42-.098-2.937-.344-4.35.817.493 1.614 2.4 2.75 1.75-.528-1.216-1.634-2.088-2.25-3.25 1.092 0 2.142-.015 3.226-.13 1.13-.118 1.6-1.244 1.744-2.215.35-2.365-2.158-3.095-3.97-3.156.482-.973 1.66-1.448 2-2.5-1.003-.523-1.945.853-2.75 1.25 0-2.056.383-5.266-2.5-5.482-1.36-.102-2.228.686-2.672 1.865-.447 1.183-.328 2.357-.328 3.616m1 .75c-.244-1.222-.49-2.767-.13-4 .193-.66.566-1.295 1.2-1.497.57-.182 1.36-.316 1.774.3.258.386.406 1.376.406 1.852 0 .69.015 1.416-.12 2.094-.3 1.542-1.912 1.25-3.13 1.25m-26.75-4.75v1.5c-.343-.42-.33-1.076 0-1.5m7 19.75c-.354.264-.545.616-.75 1-.355-.39-.25-1.113-.25-1.594 0-.66-.097-1.266-.25-1.906-.458.846-.416 1.81-.5 2.75-.404-.492-.238-1.276-.308-1.875-.096-.813-.19-1.546-.19-2.374-.358.46-.458.93-.502 1.5-.716-.428-.5-1.804-.5-2.5-.265.364-.423.807-.5 1.25-.37-.416-.394-1.23-.5-1.75-.156.31-.367.71-.75.75.014-.644-.18-1.305-.755-1.653-.702-.424-1.182-.954-1.7-1.58-1-1.204-2.156-2.12-3.553-2.826-.68-.343-1.177-.758-1.75-1.253-.593-.514-1.16-.594-1.898-.85-.77-.268-1.365-.66-2.07-1.066-.51-.294-1.338.883-1.523 1.228-.674-.82.056-2.097.35-2.916.37-1.025.875-1.95 1.545-2.807.696-.89 2.214-.767 3.197-.715 1.01.052 2.097.582 3.032.938 2.048.78 4.026 2.124 5.653 3.582.822.737 1.498 1.542 1.688 2.668.085.507-.055 1.052.046 1.556.122.604.24 1.21.36 1.814.293 1.5.522 2.956.93 4.436.384 1.4 1.274 2.754 1.45 4.194m-6.002-18.75v1.25c-.282-.34-.275-.907 0-1.25m1 .75v1c-.24-.266-.234-.73 0-1m1 .5c.2.402.204.85 0 1.25-.282-.34-.275-.907 0-1.25m24.75 3.375c2.114-.684 2.282 3.865.85 4.445-.215.086-1.11-.084-1.236-.27-.358-.517-.46-.89-.603-1.506-.173-.745.25-2.303.99-2.67m-4.5.462c.98-.067 2.34-.155 2.604 1.02.218.97.175 2.44-1.053 2.58-.998.116-2.42.01-2.813-1.046-.445-1.2.138-2.07 1.263-2.554m8.5 0c.953-.1 2.312-.055 2.848.835.692 1.15.046 2.227-1.044 2.72-.723.326-2.34.093-2.545-.675-.258-.972-.478-2.504.743-2.88m-41.25.164c.004.77-.364 2.085-1.25 2.25-.064-.7.353-2.418 1.25-2.25m1 1.25c.37.1.865.326 1.25.25-.368.387-1.77.17-1.25-.25m9.25 12.25c-.98-.536-1.55-2.057-2.126-2.97-.695-1.105-1.324-2.232-2.12-3.272-.786-1.032-1.65-1.897-2.733-2.615-.768-.51-3.035-.267-3.272-1.394.582.134 1.31-.387 1.907-.43.684-.052 1.43-.126 2.077.155 1.58.685 2.787 1.404 3.978 2.653.488.51 1.065 1.02 1.44 1.628.407.665.666 1.482 1 2.19.265.563.697 1.412.67 2.056-.03.64-.49 1.46-.822 2m1.75 16.5c-.608-.665-.197-2.21-.288-3.056-.12-1.118-.212-2.324-.212-3.444-.295.556-.255 1.245-.27 1.855-.014.657-.208 1.284-.23 1.93-.054 1.5-.25 2.965-.25 4.466-.584-.64-.25-2.192-.25-3.03v-2.734c0-.41.242-1.486-.25-1.486-.506 0-.27 1.41-.276 1.853-.008.52-.034 1.034-.096 1.553-.16 1.366-.127 2.72-.127 4.093-.532-.582-.25-1.95-.31-2.694-.076-.953-.19-1.838-.19-2.806-.983 1.334-.5 3.954-.5 5.5-.464-.51-.25-1.578-.25-2.207v-3.586c0-.335-.497-.326-.504-.05-.015.52-.017 1.02-.107 1.534-.162.94-.14 1.855-.14 2.808-.807-.53-.5-2.468-.5-3.25-.408.53-.467 1.163-.75 1.75-.372-.417-.395-1.23-.5-1.75-.75 1.263-1.532-1.57-1.685-1.956-.49-1.232-.967-2.467-1.56-3.654-.63-1.264-1.202-2.554-1.93-3.763-.554-.92-1.794-2-1.825-3.127.477.01.97.126 1.445.178.514.057 1.032-.05 1.554.012 1.254.15 1.905.59 2.67 1.585.74.96 1.37 1.92 2.002 2.954.174.283.45.736.766.824.336.094 1.39.366 1.11-.428-.15-.43-.23-1.033-.62-1.318-.492-.36-.978-.72-1.45-1.107-.806-.66-1.424-1.554-2.274-2.152-.42-.296-.888-.775-1.397-.888-.612-.136-1.186-.1-1.807-.16-1.07-.1-2.093-.31-3.177-.312-.947-.002-2.167-.233-1.976-1.457.184-1.177.533-2.24.966-3.35.418-1.072.742-2.058 1.264-3.103.536-1.074 1.467-1.378 2.59-1.258 2.49.265 4.05 1.69 5.33 3.77 1.15 1.874 2.23 3.773 3.342 5.665 1.368 2.327 2.578 5.05 3.16 7.702.3 1.38.018 2.548-.003 3.92-.024 1.398-.16 2.816-.498 4.174m24.75-25.066c.764.013 1.503.02 1.86.756.325.675.588 1.335.61 2.103.018.71.137 1.558.005 2.262-.07.365-.035.63-.342.837-.324.22-.757.66-1.132.77-.66.192-1.56-.212-2.014-.655-.495-.485-.487-1.355-.487-2.03 0-.995.222-3.83 1.5-4.045m-25 7.816c-.116.696-.432 1.376-.75 2-.586-.644.04-1.77.75-2m-29 7.25c-.948-.513-1.42-1.643-1.936-2.54-.708-1.232-.702-2.283.135-3.434.504-.692.88.513.99.82.186.515.042 1.168.087 1.72.096 1.193.752 2.224.723 3.434m46.75-6.25c.474.523.874 1.078 1.26 1.67.475.73 1.09 1.267 1.72 1.873.477.456 1.575.456 2.176.456.8 0 1.594-.225 2.385-.168.825.06 1.58-.01 2.4-.07.77-.057 1.538.164 2.308.056.998-.14 1.4-.697 2.08-1.393.524-.532.877-1.26 1.67-1.424-.03 1.157-.25 2.272-.25 3.426 0 .41.107 1.003-.04 1.373-.345.87-.392.85-1.294 1.093-.87.234-2.047.466-2.937.312-1.082-.187-2.18-.064-3.25-.25-2.147-.373-4.342-.44-6.48-.954-.46-.11-1.076-.237-1.5-.446-.626-.31-.598-.772-.72-1.41-.197-1.007-.04-2.192.012-3.22.018-.365.145-.712.457-.924m-34.5.5c.672.122 1.405.187 1.987.562.645.417 1.212.892 1.777 1.414 1.068.984 1.84 2.405 2.438 3.715.65 1.423 1.41 2.826 1.922 4.31.405 1.173.765 3.316-.624 4-.726-2.515-1.89-4.953-3-7.317-.59-1.254-1.368-2.41-2.188-3.524-.438-.594-.877-1.142-1.37-1.693-.333-.374-1.054-.922-.943-1.467m17.25 0c-.08.544-.183 1.04-.5 1.5-.3-.47.12-1.182.5-1.5m-7.5 24c-.744.465-.497 1.9-.513 2.648-.025 1.05-.237 2.05-.237 3.102-.576-.63-.25-2.29-.25-3.088v-2.912c-.556 1.09-.5 2.28-.502 3.476-.003 1.192-.248 2.336-.248 3.524-.607-.664-.25-2.446-.25-3.3 0-.562.018-1.14-.033-1.7-.043-.47-.3-1.035-.218-1.5-.3.568-.25 1.207-.253 1.83-.01.812-.1 1.61-.12 2.42-.03 1.502-.127 2.998-.127 4.5-.325-.393-.25-.926-.25-1.407v-2.463c0-1.385-.155-2.75-.25-4.13-.553 1.042-.504 2.25-.514 3.387-.005.553-.185 1.07-.237 1.612-.055.57 0 1.18 0 1.75-.374-.455-.25-1.147-.25-1.7v-2.53c0-1.366.083-2.936-.25-4.27-.604 1.132-.233 2.908-.252 4.156-.01.742-.18 1.52-.14 2.252.04.805.086 1.555-.108 2.342-.504-.614-.42-1.98-.528-2.75-.14-1.008-.29-2.016-.456-3.02-.373-2.254-.83-4.47-1.308-6.705-.93-4.33-2.16-8.585-4.163-12.545-.44-.87-1.013-1.66-1.587-2.445-.446-.605-1.384-1.537-2.208-1.534.145-.868 1.134-1.914 1.907-2.27.7-.323.82-.395 1.546-.207.67.173 1.19.258 1.736.674 1.706 1.303 2.973 3.282 3.93 5.178 1.01 1.998 1.894 4.078 2.64 6.19.746 2.114 1.21 4.305 1.908 6.434.548 1.674 1.13 3.3 1.583 5m12.25-23.75v1c-.24-.266-.235-.73 0-1m-4 1c-.088.583-.284 1.12-.75 1.5-.207-.56.04-1.656.75-1.5m.75 1.25c.017.653-.293 1.375-1 1.5.156-.553.513-1.18 1-1.5m5 .134c1.17.075 2.06.61 3.183.89 1.073.268 2.066.705 3.123 1.01 2.107.614 4.282.973 6.413 1.49.925.225 1.995.604 2.938.668.692.046 2.727-.04 3.112.714.5.974.832 2.018.727 3.137-.125 1.306-.494 2.2-1.123 3.348-.99 1.808-3.304 2.898-5.068 3.763-2.052 1.008-4.213 1.747-6.308 2.653-.37.16-1 .494-1.417.307-.418-.185-.766-.968-.96-1.364-.523-1.067-1.346-1.938-2.164-2.784-.733-.76-1.438-1.63-2.088-2.466-.62-.796-1.463-1.77-1.83-2.706-.63-1.6-.887-2.88-.767-4.61.054-.76.222-1.507.575-2.193.422-.818.957-1.245 1.653-1.857m-29.75.616c1.298 1.298-.69.505 0 0m1 .75c3.268 2.042 4.317 6.67 5.272 10.153.556 2.027-1.723 3.38-3.123 4.345-.76.524-1.523.998-2.42 1.238-1.017.274-1.93.263-2.98.263.01-.516.334-.968.75-1.253.21-.146.405-.196.657-.232.29-.042-.09-.63-.157-.764.43.136.826.353 1.25.5-.198-.297-1.778-2.08-1.5-.75-.938-.487-1.497-.925-1.5-2.066-.004-.595-.12-.974-.288-1.53-.144-.484-.35-.728.288-.806.552-.068 1.107.223 1.61.397.522.18 1.048.2 1.598.252.855.084 2.093-.19 2.543-.996-.612.452-1.372.51-2.102.616-.24.037-.74.22-.966.096l-1.49-.828c-.766-.425-1.134-.928-1.416-1.78-.033-.103-.026-.2-.026-.307 0-.478.065-.155.4-.297.333-.14.737-.187 1.1-.25-.384-.192-1.044-.367-.904-.78.137-.402.555-.545.904-.72-.53-.264-1.115-.002-1.67-.067-.41-.05-.82-.09-1.225-.165-.137-.025-.28.563-.366.748-.446.957-1.753 2.68-2.988 2.483.317-2.11.756-4.4 2.742-5.56.898-.525 2.038-.75 3.01-1.14 1.01-.405 2.026-.252 2.998-.8m24.5.25c-.01.743-.466 1.603-1.25 1.75.045-.347.163-.702.27-1.034.24-.744.205-.716.98-.716m9.5 2c.622.56 1.883.68 2.657.898 1.1.31 2.212.568 3.313.875 1.37.38 5.552.335 5.264 2.52-.31 2.348-2.058 3.862-4.07 4.918-.973.512-1.95.982-2.97 1.395-.876.355-2.226 1.273-3.087.564-1.14-.937-2.06-2.343-3.1-3.408-1.052-1.077-1.835-2.37-2.603-3.655-.53-.888-.897-2.963-.262-3.89.535-.782.735-1.192 1.733-.91.68.193 1.41.493 2.124.44-.513-.668-1.965-.94-2.75-1.174-1.146-.342-1.808.284-1.902 1.45-.1 1.26-.166 2.28.252 3.476.39 1.122.93 2.046 1.652 2.99 1.372 1.79 2.96 3.288 4.182 5.208 1 1.57 4.707-.86 5.973-1.363 1.97-.78 3.6-1.85 4.957-3.48.622-.748.782-1.77.87-2.697.033-.36.018-.935-.168-1.244-.28-.462-.808-.46-1.315-.596-1.78-.477-3.626-.778-5.424-1.186-1.7-.387-3.577-1.135-5.328-1.132m-47.75.5c.024.9-1.32 1.443-1.96 1.837-.813.5-1.668.98-2.39 1.606-1.466 1.27-2.663 2.834-4.15 4.056-.507-.997-.254-2.328-.08-3.38.17-1.02.258-2.87 1.215-3.51.877-.59 2.363-1.614 3.44-1.53 1.392.11 2.572.702 3.925.92m38.75-1c.008.763-.268 1.64-1 2-.12-.716.41-1.623 1-2m6.75 1c-.448.45-1.294 1.077-1.447 1.75-.15.67.224 1.547.197 2.25.42-.12.776-.46 1.09-.75.338-.31.924-.352.885-.796-.066-.726-.144-1.955-.725-2.454m-43.75.884c.77.038 1.403.076 2.06.512.23.152.66.433.43.738-.157.213-.538.965-.8 1.006-.814.13-1.456.03-2.155-.426-.774-.502.108-1.26.465-1.83m37.75-.134c-.18.648-.65 1.423-1.25 1.75-.09-.776.39-1.73 1.25-1.75m0 1.75c-.04.617-.044 1.284-.75 1.5-.095-.558.26-1.23.75-1.5m17 .5c-.43.475-.902.946-1.1 1.568-.273.86.083 1.34.1 2.182.45-.11.713-.484 1.126-.63.62-.217.628-.06.594-.814-.03-.684-.177-1.834-.72-2.306m-48 .25c.18.327.073.808-.25 1-.124-.337-.076-.8.25-1m28.5.25c.203 1.114 0 2.124 0 3.25-.5-.55-.45-2.675 0-3.25m-34.75 2c1.178 0 2.303.04 3.458-.19.83-.167 1.98-.744 2.793-.31-.4.62-.814 1.223-.55 1.952.15.42.335.293.132.826-.163.422-.376.79-.63 1.16-.282.42-1.742 1.012-1.42.077.243-.713.838-1.13 1.218-1.764-.327.09-.93.406-1.088.052-.185-.416-.286-.865-.413-1.302-.304.392-.433.862-.644 1.306-.303.637-.735.678-1.412.77-.986.137-2.44.16-2.996-.76-.463-.767.054-2.376.643-2.93.246-.232 1.26-.814 1.392-.174.113.555-.136.88-.483 1.288m8.5-1.25c.223.288.4.606.75.75-.075-.36-.367-.71-.75-.75m29.75.5c.542.814 1.507 1.92 1.225 2.94-.32 1.16-.866 2.214-1.4 3.29-.992 2-2 4.04-2.89 6.087-1.796 4.126-3.727 8.198-5.5 12.34-.446 1.042-.924 2.077-1.345 3.128-.398 1-.687 2.124-1.193 3.065-.175.324-.028.442-.432.305-.173-.06-.354-.2-.48-.334-.378-.4-.653-.86-.944-1.328-.576-.926-1.374-1.85-1.65-2.914-.247-.94.613-2.248.974-3.078.465-1.07 1.05-2.09 1.56-3.14.908-1.853 2.007-3.612 2.934-5.456 1.275-2.538 2.554-5.118 4.086-7.512.82-1.283 1.57-2.604 2.385-3.892.68-1.077 1.377-3.06 2.67-3.5m9.5.25c-.543.65-1.014 1.16-1.325 1.944-.177.446.352 1.497.325 2.056.403-.08.734-.4 1.03-.67.36-.325 1.012-.352.915-.876-.144-.78-.3-1.92-.945-2.454m-22 2c-.167.524-.434 1.302-1 1.5.097-.615.164-1.656 1-1.5m-35 8c.076-.61.172-1.148 0-1.75-.37.1-.865.326-1.25.25.142-.81 1.07-1.395 1.676-1.848.7-.527 1.397-1.06 2.108-1.573.735-.53 1.412-1.1 2.114-1.67.327-.267 2.063-1.642 2.24-.55.326 2.017-.74 3.07-2.295 4.18-.788.564-1.57 1.13-2.345 1.71-.65.49-1.408 1.15-2.25 1.25m4-7.25c-.335 1.018-1.24 1.623-2.087 2.184-.84.557-1.692 1.253-2.662 1.566.475-.858 1.524-1.534 2.214-2.218.66-.652 1.637-1.285 2.536-1.532m8.5 2c-.684.353-1.556.404-2.305.528-.574.094-.977.08-1.557.01-.368-.046-.764-.62-.728-1.02.074-.83 1.932-.768 2.536-.768 1.11 0 1.734.08 2.055 1.25m37.5-1.5c-.034 1.04-.588 2.075-1.018 3-.48 1.032-.902 2.08-1.358 3.125-.92 2.12-1.906 4.204-2.76 6.35-1.624 4.08-3.386 8.205-4.685 12.4-.662 2.143-1.41 4.376-2.43 6.376-2.04-1.256-.177-4.537.43-6.094.82-2.1 1.675-4.176 2.52-6.266 1.693-4.19 3.87-8.185 5.636-12.347.536-1.26 1.194-2.473 1.803-3.697.263-.526.53-1.05.776-1.582.25-.542.366-1.4 1.087-1.264m-14.75.25c-.118.53-.243 1.02-.5 1.5-.376-.485.047-1.214.5-1.5m-12.75.5c.145.35.462.528.75.75-.026-.39-.355-.73-.75-.75m-6.75.25c.384.72.117 1.532.258 2.293.174.93.293 1.864.436 2.8.127.833.07 1.755-.09 2.578-.082.42-.43.867-.628 1.246-.188.357-.88.29-1.226.332.452-.87 1.075-1.735.75-2.75-1.248.76-.88 2.847-2.33 3.29-.36.112-.685.21-1.065.21-.217 0-.105-.983-.105-1.207 0-.71.28-1.394.24-2.122-.04-.766-.255-1.438.428-1.91.707-.487 1.45-.71 2.26-.998 1.806-.64-1.38-2.128-1.677-2.514.81-.507 1.8-1.097 2.75-1.25m35.5.25c.298.45.404.925.507 1.445.144.72.348.89.97 1.256.515.302.83.62.92 1.225.093.653-.915.85-1.362 1.06-.416.195-1.194-.162-1.535-.39-.595-.4-.647-1.177-.843-1.825-.292-.965.165-2.608 1.343-2.77m-32 .25c.116.604.647 1.136 1.25 1.25-.082-.575-.756-1.025-1.25-1.25m1.25 0c.255.442.546.756 1 1-.065-.52-.586-.78-1-1m15.25.25c-.082.545-.184 1.042-.5 1.5-.376-.484.047-1.213.5-1.5m.75 1c.005.824-.317 1.57-.75 2.25-.48-.63.226-1.826.75-2.25m-23.25.75c-.745.883-1.25 1.582-2.44 1.85-.704.16-2.9.732-2.794-.46.05-.58.04-1.23.63-1.554.678-.372.9.022 1.602.18 1 .228 2.054-.534 3-.014m-6.25.25c0 .416-.06.877.006 1.287.063.384.243.884.188 1.27-.08.55-.783 2.348-1.404 1.355-.288-.46-.81-1.524-.532-2.038.338-.618.912-2.03 1.742-1.874m30.25.75c-.123.787-.352 1.728-1 2.25-.333-.65.17-2.405 1-2.25m-11.25.25v3.646c0 1.31.218 2.59.24 3.895.01.69.01 1.377.01 2.064 0 .573.5.575.5.005v-4.36c.36.423.224 1.116.325 1.628.14.72.175 1.43.175 2.166 0 1.407.268 2.817.25 4.206.61-1.19.25-3.22.25-4.5.596.443.5 1.57.5 2.224v3.276c-1.603-.26-2.96-1.543-4.525-2.006-.926-.276-1.845-.555-2.784-.78-.368-.09-2.023-.105-2.19-.464-.167-.354.843-1.59.927-1.987.198-.948.484-1.817.115-2.764-.282-.727-.998-1.325-.912-2.156.078-.753.006-1.66.37-2.344.6.71.478 2.146.5 3 .255-.498.25-1.063.25-1.61v-1.403c0-.35.5-.37.5-.08 0 1.555.208 3.048.25 4.593.353-.688.248-1.55.25-2.3 0-.857.082-1.604.25-2.45.29.323.236.857.243 1.26.008.552.107 1.066.202 1.61.155.9.304 1.962.304 2.88.422-.823.25-1.965.25-2.854 0-.89.25-1.76.25-2.646.625.732.185 2.388.323 3.293.105.694.155 1.344.174 2.05.014.558.24 1.095.252 1.656.475-.928.25-2.256.25-3.262v-4.738c.454.505.257 1.637.316 2.25.08.855.173 1.638.178 2.5.01 1.677.257 3.316.257 5 .324-.63.25-1.424.25-2.112v-3.103c0-.868.26-1.646.185-2.534-.072-.883.03-1.626.065-2.5.413.484.25 1.437.25 2.025v2.634c0 1.785.246 3.55.25 5.342.887-1.364.5-3.588.5-5.147v-2.627c0-.71-.222-1.876.25-2.477m23.246 1.173c1.06-.126.715 1.085.98 1.632.29.594.2.746.822.51.447-.17.736-.502 1.09-.825.862-.783 1.188.98 1.217 1.44.056.883-.578 1.627-1.063 2.303-1.028 1.43-3.466.564-4.15-.687-.346-.635-.457-1.65-.344-2.363.158-1.003.547-1.55 1.446-2.01m-38.248.076c0 .487.004.95-.078 1.43-.08.46-.695.915-1.126.514-.9-.835.31-1.97 1.204-1.944m26.75 0c.002.823-.297 2.077-1.25 2.25-.062-.484.206-.954.38-1.39.197-.488.24-.978.87-.86m-19.5.75c0 .702.135 1.312.25 2-.892-.117-.68-1.505-.25-2m-14.25.25c-.102 1.02.08 1.784.358 2.765.26.927-.632 1.624-1.24 2.17-.666.6-1.27 1.542-1.636 2.36-.352.784-.756 2.02-1.732 2.206-.06-.813.215-1.678.25-2.5-.634.298-1.515 1.12-2.25.75.315-1.12.948-2.545 1.64-3.48.194-.26.45-.364.657-.58.363-.372.5-.08.703.21.28.402.654 1.12.75 1.6.353-.71-.123-1.77-.25-2.5.67.42.762 1.38 1.5 1.75-.45-.912-.532-1.87-.616-2.87-.062-.758 1.194-1.734 1.866-1.88m34.25 1c-.098.644-.55 1.59-1.25 1.75.09-.647.47-1.895 1.25-1.75m-8.75.5v.843c0 .197.343.29.5.156.083-.07 0-.723 0-.844 0-.254-.268-.187-.5-.156m-18.5.75c-.586.99-1.546 1.57-1.93 2.695-.078.228-.05.515-.067.75-.003.06.387.144.498.24.393.34.677 1.042.748 1.566-.288-.02-.57-.05-.86-.03-.536.04-.434-.154-.56-.664-.152-.613-.08-1.367-.08-2 0-.912 1.092-3.03 2.25-2.556m24.75.25v1.5c-.343-.418-.33-1.075 0-1.5m-18.25.5c.713.86 1.395 3.666-.25 4 .136-.62.455-1.39.295-2.034-.117-.476-.634-1.625-.044-1.966m-6.75 1.75c.583.006 1.166.127 1.75.054.642-.082 1.24-.37 1.875-.486.48-.086 1.39-.395 1.82-.068.22.168.365.863.474 1.12.13.307-.07.573-.207.846-.303.612-1.222.313-1.712.202-.667-.15-1.094-.133-1.684.203-.54.306-1.153.767-1.732.22-.46-.435-.456-1.484-.585-2.09m36.728-.443c.44.397.632.604.595 1.21-.026.433-.264 1.228.178 1.536.89.618 1.287-1.478 2.124-1.478 2.23 0 1.2 4.234.002 4.992-1.08.684-1.795 1.02-3.085.936-.427-.03-1.094-.66-1.46-.885-.418-.262-.543-.944-.73-1.385-.417-.97-.104-1.994.245-2.928.15-.4.424-.855.7-1.18.47-.552.73-.615 1.43-.818m-28.477 1.692c-.082.545-.184 1.04-.5 1.5-.3-.47.118-1.182.5-1.5m-4.75.75c.22.402.74 2.453-.2 1.9-.66-.387-.83-2.092.2-1.9m19.5 2.25l-.25.25.25-.25m-7.25.25v1c.24-.266.235-.73 0-1m13 33.25c-.91-.15-.72-.998-.592-1.662.132-.682-.728-1.342-1.157-.588-.658-.668.515-2.05.807-2.672.552-1.174-.108-2.145-.786-3.043-.648-.857-1.557-1.5-2.208-2.366-.733-.98-.813-1.98-.813-3.168.343.252 1.464 1.322 1.76.6.187-.448.478-.716.126-1.073-.47-.475-.54-.652-1.194-.652-.715 0-1.453.985-1.586 1.626-.16.77.67 1.966.972 2.68.283.673 1.17 1.07.89 1.886-.188.547-1.137 1.984-.686 2.47.3.323.552.706.967.868.314.12.975-.008 1.167-.313.165-.263-.17-.902-.434-1.02-.28-.122-.733.065-.983.18-.094-.538.183-1 .714-1 .274 0 .668-.115.834.126.136.195.62.68.6.918-.066.75-.196 1.22-.493 1.913-.23.535-.66 1.015-.772 1.6-.25 1.32.03 2.575-.002 3.9-.03 1.267.913 2.297.87 3.543-.374-.055-.942-.264-1.307-.172-.48.12-.96.34-1.444.422 0-4.364.157-8.69-.644-13-.795-4.284-1.773-8.575-4.297-12.235-1.155-1.676-2.28-3.23-3.8-4.596-1.338-1.202-2.754-1.967-4.258-2.918.454-.96 1.457-.422 2.102-.04.545.323 1.994.75 2.483.186.166-.19.86-.765.712-.994-.137-.21-.645-1.252-.88-1.217-1.213.19-.67 1.02-.417 1.816-.63 0-2.08-.354-2.292-1.03-.358-1.152-.545-1.84-1.428-2.672-.615-.578-1.95-.18-2.584.114-.667.308-1.683 1-2.445.838.166-.38.488-1.078.025-1.377-.453-.296-1.285.223-1.776.243-.563.023-1.15-.375-1.705-.117-.606.283-.5.93-.544 1.5-1.046-.03-2.33-1.026-3.25-1.5.572-.772 1.842-.678 2.69-.827 1.104-.192 2.19-.174 3.31-.174 2.136 0 4.177.03 6.27.525 4.372 1.038 8.102 4.25 10.573 7.935 2.46 3.668 4.21 7.547 5.404 11.79.58 2.067.704 4.173 1.098 6.25.4 2.108.662 4.374.404 6.5m-8-32.5v.75c-.207-.226-.19-.517 0-.75m-23 .75c-.468 1-.966 1.89-1.27 2.958-.25.875-.697 2.113-1.73 2.293.05-.39.204-1.004-.133-1.336-.334-.328-.808-.237-1.044.105-.443.637-.546.645-.242 1.346.086.204 1.185.624 1.418.636.848.047 1.708-1.127 2.148-1.73.658-.895 1.635-.52 2.602-.52-.833 1.086-2.47 1.662-3.51 2.56-1.184 1.02-2.156 2.188-3.08 3.44-.897 1.213-1.645 2.465-2.42 3.75-.313.52-.65 1.336-1.054 1.78-.162.177-.564.81-.803.8-.43-.02-.733-.162-1.133-.33.405-.38 1.213-.48 1.75-.5-.064-.534-.783-1.385-1.328-1.475-1.183-.194-.994.95-.672 1.726-.412-.106-.84-.188-1.25-.313-.6-.183-.448-.27-.454-.86-.01-1.034.234-1.743.606-2.716.682-1.785 1.827-3.418 2.966-4.934 1.117-1.484 2.326-2.877 3.81-3.988 1.415-1.062 3.012-2.422 4.822-2.69m12.75 2.75c.23-.822-.322-1.023-.953-1.304-.426-.188-.715.854-.74 1.124-.024.31.09.682-.26.682-.314 0-.622-.002-.936-.028-.746-.054-1.023-.34-.705-1.01.436-.93 2.096-1.515 3.038-1.68.656-.114 1.176.22 1.228.804.06.68.174 1.252-.673 1.414m23.73-2.045c1.153.147.185 2.093.654 2.706.894 1.164 1.725-1.06 2.174-1.53.906-.95 1.79.458 1.853 1.323.093 1.305-.11 2.343-.674 3.526-.927 1.947-4.218 2.645-5.618.955-.843-1.014-1.108-1.82-1.194-3.14-.057-.89.53-2.37 1.19-2.956.557-.497.9-.65 1.615-.883m-31.48 1.546c.013 1.265-1.655 1.152-2.5 1.25 0-.526.246-1.328-.3-1.516-.332-.115-.532-.273-.83-.103-.26.15-.365.6-.37.87-1.334-.005-.86-2.206.35-1.83 1.24.38 2.412.97 3.65 1.33m2.25-.5c.077.48.527 1.25-.25 1.25-.506 0-.676-.818-.75-1.25h1m4.75 3.25c-.994.528-2.45.25-3.546.25h-5.204c.76-1.03 3.115-.986 4.25-1 1.332-.02 3.435-.257 4.5.75m7.75-.322c-.4.184-1.37.873-1.333 1.368.04.527.083 1.332.887 1 .592-.245 1.21-.635 1.446-1.297.3-.844-.37-.928-1-1.07m-6.5.32c.86.582 1.902.838 2.794 1.37.984.587 1.707 1.462 2.49 2.288 1.495 1.584 2.643 3.408 3.642 5.334 1.014 1.957 1.42 4.094 2.02 6.197.6 2.104 1.133 4.354 1.062 6.537-.03.905.194 1.864.24 2.774-.966-.223-1.376-1.805-1.738-2.594-.44-.96-.943-1.897-1.413-2.844-1-2.02-1.887-4.088-2.89-6.105-1.09-2.192-2.124-4.412-3.22-6.604-.474-.95-.97-1.89-1.415-2.854-.227-.49-.426-.98-.682-1.453-.242-.452-.635-.868-.815-1.342-.103-.267-.237-.437-.075-.704m-18 3c-.053-.744-.19-.928-.647-1.53-.273-.36-.967-.998-1.43-.47-.334.382-.01.994.337 1.246.673.49.922.697 1.74.754m24.25 13c-.934-.334-1.717-1.12-2.475-1.73-.775-.62-1.787-1.114-2.276-2.02 1.206-.034 1.548-1.278.758-2.086-.255-.26-1.085-.842-1.143-1.198-.103-.626-.178-1.166-.438-1.742-.234-.517-.76-.756-1.257-.947-.664-.256-.956.51-1.222.936-.224.356.867.557 1.05.577.575.062 1.177-.016.827.697-.188.383-.744.846-1.164.95-.106.025-.66.153-.66.02 0-.152.1-.867 0-.958-.256-.233-1.17-.045-1.573-.246-.54-.27-.72-.678-.758-1.258-.043-.668-.015-.926.508-1.37.477-.404.733-.962 1.055-1.494.417-.687-1.635-1.917-2.038-2.205-.132-.093-.54-.74-.445-.927.123-.237.977-.233 1.172-.243.947-.046 1.786.04 2.707.235.607.13 1.144 1.64 1.404 2.133.402.764.748 1.56 1.133 2.333 1.7 3.425 3.623 6.916 4.836 10.543m-14.25-15c-.024 1.797-2.827 2.205-1.497 4.203.255.384.723.858.863 1.296.16.506-.147.765-.422 1.152-.313.44-.372.715-.945.672-.428-.03-.826-.262-1.25-.324v1c-.33-.002-.657-.09-.922-.282-.193-.14-.47-.886-.338-1.1.335-.544 1.76-.1 1.76-.99 0-.314-.18-.73-.52-.824-.17-.045-1.142.094-1.25.22-.757.88-1.154 1.214-1.077 2.374.025.39.16.793-.113 1.104-.336.382-.68.76-1.022 1.14-.21.233-.392.75-.204 1.008.45.617.386.617 1.106.37.408-.14.4-.444.276-.87-.138-.473-.322-.61.206-.81.68-.256 1.865.054 1.85.91.642-.108 1.22-.73 1.667-1.16.264-.252 1.567-1.788 2.082-1.59.11.043.366.892.413 1.015.163.435.21 1.01-.138 1.33-.602.548-2.062.677-2.804.87-1.592.415-3.316 1.372-4.525 2.49-1.268 1.17-2.914 2.468-3.695 4.046-.47-.62.244-1.82.51-2.434.368-.846.7-1.707 1.042-2.566.697-1.754 1.473-3.496 2.228-5.23.714-1.64 1.345-3.32 2.063-4.96.4-.908.78-1.746 1.805-1.918.96-.16 1.88-.142 2.852-.142m-4.75.25c-.042.99-.57 1.945-.935 2.847-.45 1.116-.92 2.21-1.417 3.307-.898 1.977-1.737 4.023-2.487 6.062-.737 2.002-1.75 3.874-2.536 5.85-.407 1.027-.8 2.06-1.27 3.06-.388.83-.73 2.184-1.605 2.624 0-4.485.428-8.74 1.983-12.98.76-2.07 1.83-3.944 3.063-5.77 1.196-1.768 2.707-3.715 4.603-4.772.192-.107.385-.187.602-.228m6 1.75c.006.59-.183 1.504-.79 1.777-.754.342-1.465-.037-1.71-.777.4-.21.816-.16 1.24-.06.472.11.46-.823.577-1.24.13-.452.407-1.167 1.04-1.075.514.075.918.852 1.225 1.217.325.39 1.173.254 1.48.666.254.338-.162 1.237-.582 1.34-.522.125-1.166-.312-1.452-.683-.32-.416-.565-.887-1.027-1.164m15.75-1.5c-1.038.056-2.405.398-1.66 1.718.255.455.983-.02 1.228-.22.417-.34.376-1.022.432-1.498m-30.75 1.5c.05 1.054 1.25 1.838 2.25 1.75.042-1.106-1.322-1.588-2.25-1.75m42.246.41c1.333-.14.584 2.084 1.016 2.638.944 1.208 1.862.116 2.295-.802.144-.305.424-.906.838-.77.59.194 1.1.2 1.228.858.218 1.11.6 2.318.214 3.437-.394 1.145-.818 2.053-1.837 2.793-.944.684-1.907.754-3.02.627-2.424-.275-3.644-2.723-3.43-4.96.154-1.61 1.065-3.32 2.695-3.82m-11.745.09v1c.244-.038 1-.052 1-.376 0-.697-.478-.624-1-.624m-31 1.5c0 .173-.108.892 0 1 .11.11.828 0 1 0 .015-.528-.467-1.022-1-1m15.5 1.25c-.182 1.02.77 1.976.75 3-.838-.17-1.28-2.39-.75-3m17.5.75c.05.326.21 1.54.815.935.683-.68-.292-.854-.816-.934m-33.75 1.25c.293.03 1.75-.098 1.25-.75-.465-.61-1.25.256-1.25.75m34.5.25c-.744.386-.624 1.37-.402 2.045.185.56.12.807.69.917.482.09.88.257 1.335.043.476-.225.66-.68.936-1.112.187-.29-.31-.877-.46-1.164-.473-.898-1.217-.728-2.097-.728m-16 .25c.525.468 1.028.963 1.61 1.36.473.323 1.298.75 1.39 1.39-1.088-.26-2.323-.215-3.375-.537-.594-.183-.647-.222-.473-.84.144-.51.382-1.076.848-1.374m6.25 1.5c-.15.68-.704 1.267-.5 2-.362.068-.813-.12-1.157-.23-.66-.212-.935-.15-.746-.876.186-.72.24-.763.958-.926.57-.128.88-.134 1.444.032m2.5 6c-.284.04-.503-.127-.75-.25-.385 1.445-.825 2.69-1.71 3.927-.63.875-1.78 3.08-3.04 3.073.233-1.352 1.57-2.215 2-3.5-.882.728-2.048 2.11-3.25 2.25.14-1.135 1.213-2.3 2.048-2.996.534-.446 1.025-.91 1.636-1.235.498-.267 1.243-.525 1.566-1.02-1.796.294-3.187 1.94-4.75 2.75-.035-1.117.46-2.144.5-3.25.247.114.792.348 1.032.14.363-.313.493-.682-.12-.733-.54-.045-.915.13-1.346-.23-.41-.344-.507-.74-1.066-.926-.056.293-.113.785.063 1.04.316.46.71.26.598.86-.123.66-.698 1.916-1.41 2.1-.204-1.07-.287-2.268-.694-3.284-.43-1.068-.95-2.123-1.308-3.216 3.65-.768 8.098 1.35 10 4.5m-10.75-4.5c-.312 1.084-.937 2.035-1.29 3.097-.287.87-1.15 2.49-.96 3.403-.665-.127-1.378-.926-1.527-1.57-.175-.755.268-1.43.027-2.18-.427.136-.824.353-1.25.5.07-.647-.298-1.244-1-1.25.116.658.582 1.127.75 1.75-.47-.16-.7.033-.875.427-.13.297.684.58.848.713.652.535 1.018 1.52 1.027 2.36-1.332-.21-2.608-1.248-3.843-1.78-.29-.127-.607-.236-.907-.334-.41-.132-.54-.056-.442-.537.112-.552.716-1.152 1.138-1.49 2.45-1.955 5.176-3.04 8.305-3.11m-16 .75c-.042 1.305-.838 2.47-1 3.75-.415-.503-.346-1.568-.505-2.2-.186-.735-1.236-.965-1.245-1.8.93.02 1.806.393 2.75.25m16.5 1c.75 2.428 1 4.723 1 7.25-1.8-.35-.27-3.695-1.75-4.5 0 1.186.027 2.374-.026 3.557-.02.49-.004 1.307-.602 1.137-.57-.163-.622-.905-.622-1.388 0-1.064.495-6.338 2-6.056m4.5 0c-.036.12-.116 1.617.287 1.213.615-.615.44-.824-.288-1.214m-23 1.25c-.02.613-.214 1.213-.5 1.75-.458-.502-.335-1.907.5-1.75m50.75 2c0 .455.177.75-.317.75-.487 0-.888-.037-1.367-.13-.785-.15-1.58-.27-2.37-.398-1-.162-3.973-.12-4.196-1.472 2.78.12 5.48 1.25 8.25 1.25m-50-.25c-.022.867-.1 1.648-.25 2.5-.44-.086-.85-.3-1.25-.5.328-.686.9-1.528 1.5-2m28.25 0c.807.53 1.495 1.656 1.913 2.5.214.433.502.904.043 1.173-.438.255-.856.537-.956 1.076.446.043.86-.006 1.288-.137.592-.183.62.15.793.665.292.87.71 2.174.593 3.096-.07.555-.146.66-.7.49-.504-.153-.987-.366-1.493-.51-1.062-.304-2.138-.682-3.23-.854.15-.782.95-1.14 1.537-1.543.644-.446.966.53 1.712.543.004-.565-.428-1.075-.8-1.448-.36-.357-.495-.173-.295-.724.065-.176.053-.862-.276-.7-.88.424.376 1.1-.59 1.39-.67.204-1.308.54-2.038.482.143-.91.952-1.864 1.342-2.694.393-.834.585-2.105 1.158-2.806m-21.25.75c.604.908 1.05 1.898 1.68 2.797.645.914 1.535 1.724 2.07 2.703-.974 0-2.34-.04-3.13-.733-.352-.306-.557-1.183-1.07-1.162-.526.025-1.024.183-1.55.146.12-1.4.723-2.99 2-3.75m7.5 4.75c-1.494-.06-2.682-1.422-4-2 .51.51 1.003 1.04 1.532 1.53.53.49 1.243 1 1.468 1.72-1.31-.2-2.302-1.41-3.2-2.278-.936-.904-2.05-2.11-2.05-3.472 1.257.177 2.46 1.062 3.446 1.806.812.614 2.65 1.596 2.805 2.694m33-3.75c-.245 1.46-2.403 2.277-3.687 1.775-.612-.237 1.27-1.56 1.437-1.622.646-.242 1.578-.324 2.25-.152m-47.75 2.75c-.004.84-.25 1.638-.258 2.48-.004.346.03.787-.08 1.12-.12.357-.546.687-.743.2-.267-.666-.17-1.445-.17-2.15v-1.625c0-.052 1.106-.024 1.25-.024m47.25 0c.66.392.13 1-.42 1-.453 0-.47-1.166.42-1m-28 1c-.308.18-.653.197-1 .25-.173-.938.57-.702 1-.25m-15.5-.25c-.087 2.052-.58 4.26-.19 6.316.394 2.07 1.006 4.268 2.29 5.982.67.893 1.34 1.686 2.164 2.444.414.383.818.848 1.28 1.17.433.3.956.43.956.963 0 .626-.6.567-.76 1.147-.136.488.202 1.14.59 1.444.436.342.89.553 1.393.786.62.29.463.336.232.935-.364.943-.447 2.443.91 2.613.327.04 1.184-.416.81-.803-.227-.235-.393-.424-.684-.57-.327-.16-.51-.045-.448-.458.15-.976 1.88-1.087 1.942-.007.032.58.752.136 1.188.29.494.174 1.056.63.92 1.225-.134.6-.574.596-.903 1.063-.272.385-1.043 1.115-1.03 1.588.04 1.426 1.708 1.25 2.337 2.053.187.24.768 1.01.3 1.12-.64.156-1.256.17-1.92.2-1.138.048-1.944-.503-2.504-1.45-1.127-1.907-1.79-4.1-2.832-6.055-1.084-2.035-1.983-4.15-2.94-6.242-.95-2.075-1.96-4.114-2.986-6.153-.477-.945-.976-1.884-1.395-2.857-.55-1.277-.735-1.996-.373-3.35.274-1.02.795-2.7 1.652-3.39m40 .25c.374-.198 1.176-.31 1.528-.024.29.237.58.473.87.707.22.18.01.677-.03.935-.082.517-1.164.228-1.4-.022-.448-.478-.866-.924-.968-1.597m-38.75 0c.33.43.53.79.956 1.136.444.362.925.166 1.466.063.7-.135 2.13.598 2.329 1.3-1.053.036-2.134.532-3.118.872-.916.316-1.69 1.217-2.633 1.38 0-1.314-.192-3.88 1-4.75m12.25 0c-.187.278-.45.374-.75.5.053-.37.412-.527.75-.5m3 0c.39.3.743.575 1 1-.527.087-1.42-.398-1-1m13.25.5c.467.9.878 1.745 1.126 2.73.173.69-.35 2.067-1.126 2.27 0-.91.006-1.82-.02-2.73-.015-.61-.434-1.78.02-2.27m-15.5.88c1.682-.127 2.797.556 3.11 2.248.3 1.607-.752 2.998-2.36 3.29-1.593.292-3.075-.48-3.25-2.17-.056-.552-.023-1.683.368-2.083.664-.68 1.253-.912 2.133-1.285m4 .37l.25.5c-.635.13-.664-.556-.25-.5m-4.5.75c0 .635.125 1.223.5 1.75-.346.053-.69.067-1 .25.25.58 1.1.893 1 0 .3.2.48.397.7.684.143.187.866-.075 1.05-.184-.116-.303-.242-.545-.5-.75.162-.16.824-.65.685-.836-.156-.21-.457-.522-.76-.436-.435.125-.334.352-.76-.017-.25-.217-.59-.39-.916-.46m13.5 1.25c-.203 1.278-2.41 1.493-3.388 1.723-1.263.297-2.6-.222-3.86-.224.102-.707 1.01-.743 1.565-.746.76-.004 1.442-.077 2.182-.254-1.26-.682-2.865-.123-4-1 .577-1.2 2.52-.555 3.543-.496 1.465.08 2.586.548 3.958.996m-18 0c-1.18.006-2.326.57-3.5.5 1.083.773 2.4.166 3.5.75-.557.894-2.93.71-3.81.593-.64-.087-1.35-.012-1.97-.167l-1.324-.328c-.527-.13-.398-.246-.398-.793 0-.513 3.405-1.082 3.876-1.164.816-.14 3.375-.572 3.625.608m32 .25c-.926.086-1.956.27-2-1 .73.015 2.03-.08 2 1m-8.75-.25c.322 1.047 0 2.26 0 3.343 0 1.03.074 2.09-.085 3.107-.36 2.287-.623 4.474-1.283 6.703-1.29 4.355-3.32 8.338-6.305 11.78-2.763 3.185-7.867 4.67-11.882 3.68-4.26-1.054-7.904-4.907-10.148-8.49-1.64-2.62-2.874-5.474-3.81-8.417-.446-1.4-.772-2.895-1.04-4.336-.313-1.666-.447-3.176-.447-4.87.888.57 1.24 1.848 1.69 2.75.494.987 1 1.952 1.444 2.965.845 1.924 1.85 3.832 2.813 5.702 1.058 2.054 1.928 4.2 2.96 6.27.51 1.013 1.023 2.028 1.49 3.062.41.906.782 2.066 1.532 2.76.835.777 2.176.494 3.244.492 1.168-.002 2.338-.002 3.507-.002h3.126c.58 0 1.045-.08 1.613-.21.485-.115.79-.976.968-1.35.95-1.98 1.625-4.106 2.482-6.13.898-2.123 1.757-4.263 2.617-6.404.852-2.125 1.793-4.21 2.638-6.34.416-1.047.89-2.068 1.325-3.11.376-.898.682-2.402 1.55-2.956m-4.25 1.25c0 .963.025 1.918-.334 2.828-.1.258-.265.94-.574.904-.558-.068-1.043-.144-1.593.018.222-.705.813-1.762-.5-1.75-.076.386.15.88.25 1.25-.922-.29-2.267-.866-2.75-1.75.854-.21 1.765-.21 2.597-.508.926-.33 1.93-.828 2.903-.992m-27.5.25c.772.523 1.84.838 2.75 1 .853.154 2.128.037 2.75.75-.948.595-1.542.923-2.672.76-1.453-.208-.072 1.19-.078 1.74-.48-.108-.96-.32-1.46-.282-.124.01-.764.11-.803-.01-.103-.318-.218-.636-.306-.958-.222-.807-.757-2.266-.18-3m39.248 0c-.052.345-.067.69-.25 1-.294-.368-.038-.713.25-1m-3.75.5c.55.41 1.097.46 1.75.25 0 1.072.34 3.152-.5 4-.493-.78-2.34-3.53-1.25-4.25m-41.25 4c0-1.155-.067-2.352 0-3.5 1.713-.073 1.824 3.502 0 3.5m15.25-2.75c-.236 1.256-1.437 2.36-2 3.5.968-.334 2.137-2.56 3.25-2-.505 1.093-1.474 1.972-2.264 2.867-.687.777-1.968 1.605-2.985 1.883.08-1.493.398-2.582 1.166-3.873.573-.97 1.652-2.2 2.832-2.377m13 6c-1.44-.563-2.542-1.237-3.725-2.235-.532-.448-1.013-.9-1.48-1.415-.166-.185-.39-.455-.45-.703-.127-.545.124-.533.585-.824.668-.42 1.017-.727 1.715-.154.553.453 1.008 1.03 1.46 1.584.83 1.02 1.937 2.357 1.895 3.748m-4.5-4.75c.19.916 1.204 1.832 2 2.25-.484-.79-1.054-1.957-2-2.25m5.75.75c-.11.652.35 1 .92 1 .64 0 1.23-.143 1.158.756-.072.876-1.32 2.12-2.078 2.494-.165-.82-.81-1.73-1.236-2.46-.443-.757-1.235-1.63-1.264-2.54.827-.002 1.836.26 2.5.75m-17.5-.5c-.404 1.238-2.355 4.28-1.242 5.334.393.37.602.613 1.15.338.517-.258 1.003-.522 1.492-.83.8-.5 1.5-1.184 2.35-1.592.014.45.068 1.047-.164 1.437-.333.563-.71.518-1.335.563.005.69.52 1.127 1.205 1.04.405-.054.462.216.784.42.29.182.698.14 1.01.04-.695-1.067-.715-1.934 0-3 .99.898 1.102 3.088 1.528 4.328.062.183.383.88.12.95-.513.134-.93.1-1.454.05-.73-.07-1.46-.313-2.194-.328.106-.54.45-1.2.25-1.75-.574.297-.755.918-.5 1.5-1.04.195-2.875-.91-3.675-1.508-1.178-.883-2.69-1.87-3.428-3.176-.274-.484-.694-1.342-.364-1.853.52-.808.902-.09 1.552 0 .498.07.665.155.665-.386 0-.408.074-.703.368-.967.53-.47 1.174-.61 1.883-.61m8.5.75c.23 1.235.097 2.258 0 3.5-.084 1.08-.122 2.325-.75 3.25-.932-.536-.99-2.064-1.148-3-.203-1.214-.36-2.28-.102-3.5.433.45.462 1.16.483 1.75.023.676.253 1.325.267 2 1.166-.865-.012-3.142 1.25-4m21 1.25c.02.794-.282 1.137-.997 1.36-.71.22-1.094-.38-1.004-1.11.772.288 1.364.41 2-.25m-3.25.75c.774.68.922 1.573.557 2.5-.425 1.07-.82 1.915-.54 3.06.115.476.2.663.585.968.696.55.653.508 1.456.11.64-.313.33-.76.02-1.22-.326-.476-.818.073-1.078.33-.583-.708-.214-2.29.25-2.982.567-.84 2.007-1.61 3-1.767-.08 2.04-.708 4.246-1.316 6.183-.652 2.075-1.612 4.177-2.64 6.095-1.052 1.973-2.377 3.828-3.776 5.572-.643.8-1.447 1.543-2.317 2.06-.55.33-.638-.5-1.004-.81-.565-.478-.952-.28-1.598-.103-.707.195-1.193.343-1.766.79-.77.602-1.115.56-2.084.462.42-.766 1.41-1.155 2.073-1.69.953-.77 1.864-1.49 2.686-2.396 1.41-1.555 2.45-3.502 3.466-5.326 1.08-1.938 1.755-3.99 2.5-6.067.34-.945.51-1.943.726-2.92.18-.822.18-2.23.8-2.85m-14.25.25c.567.38 1.133.753 1.71 1.118.547.344 1.27.55 1.77.96 1.403 1.137-.565 2.268-1.73 2.42-.263-.84.254-1.65 0-2.5-.55.178-1.128.196-1.516-.304-.288-.37-.614-1.288-.233-1.694m-22.25.5c.527.734.66 1.798.883 2.656.272 1.04.564 2.098.974 3.094.823 2.006 1.87 4.027 2.998 5.875 1.06 1.74 2.256 3.487 3.698 4.93.774.774 1.616 1.432 2.477 2.106.73.57 1.733 1.03 2.22 1.84-.605-.012-1.18.095-1.75.3-.635.23-.627.012-.924-.55-.343-.643-.843-.998-1.4-1.477-.398-.345-1.163-.282-1.677-.274.023-.493 0-.965 0-1.453 0-.545-.717-.397-.86.04-.26.795-1.223 1.213-1.64 1.913h1.513c.445 0 .36.66.432 1.043.056.307.666.53.888.32.282-.27.014-.835-.084-1.114 1.25-.395 1.93.6 2.575 1.474.227.307.232 1.01.332 1.4.14.557-.39.618-.91.626-2.273.04-4.053-1.92-5.43-3.5-1.44-1.65-2.538-3.545-3.585-5.453-.53-.97-1.03-1.96-1.42-2.99-.174-.466-.346-.89-.71-1.223-.174-.16-.352.047-.352-.24v-1.094c.437.076.855.318 1.25.51.36.173.503.136.49.537-.01.214.06.48.194.652.765.98 1.798-.178 2.066-.95-.41-.11-.822-.234-1.25-.25.123-.406.34-.69.4-1.12.103-.756-.018-.752-.73-.973-.756-.236-1.842.725-2.17 1.344-.21-.23-.25-.606-.25-.907v-.936c0-.303.175-.07.4-.158 1.033-.397 1.22-.842 1.514-1.87.2-.703-1.676-4.412-.164-4.13m20.5 0c.328.406 2.125 3.213 2.5 2.5.21.373-.01.843-.036 1.252-.015.23-.007.416.023.644.024.194-.387.23-.568.3-1.044.394-2.098.804-3.224.804-.45 0 .4-2.364.523-2.81.222-.806.165-2.07.782-2.69m9.75 1c-.02.802-.478 1.67-.76 2.406-.328.867-.657 1.726-1.02 2.578-.75 1.76-1.432 3.535-2.165 5.3-.74 1.784-1.295 3.694-2.36 5.31-.386.583-2.09.406-2.694.406-.216 0-1.25.132-1.25-.112v-1.638c-.384.37-.707.713-1.178.96-.466.247-1.084-.4-1.463-.64-.313-.2-.426-.754-.61-1.064-.252-.428-.57-.754-1-1.006-.02.396-.357.724-.75.75.067-.903.322-1.655 1.466-1.233.605.225 1.176 1.758 1.935 1.276.35-.226.594-.636.86-.956.265-.32.587-.358.98-.477.447-.137.752-.336 1.14.008.295.26.38.763.37 1.13-.223-.042-.527-.09-.685-.267-.11-.123-.273-.482-.394-.482-.594 0-.742.662-.776 1.25-.01.183-.01.777.21.726.328-.072.65-.16.977-.246.71-.19.898-.764 1.24-1.36.287-.497-.408-1.103-.77-1.35-.27-.184-.488-.358-.802-.448-.125-.035-.705-.215-.75-.322-.16-.37.525-1.32.832-1.483.505-.267 1.346-.047 1.918-.017-.07-.418-.18-.83-.25-1.25.71-.19 1.858.318 1.978 1.1.08.52-.213.43-.606.61-.176.08-.69.52-.52.733.405.51.37.57 1.01.452.55-.103.61-.512.88-.996.454-.83-.247-1.28-.36-2.084-.14-1.016.726-1.234 1.118-2.066.364-.764-.084-1.584.495-2.268.545-.64 1.312-1.103 1.93-1.685.575-.543 1.134-1.15 1.825-1.547m-31.75.5c.647.547.766 1.447.75 2.25-.628-.174-1-.067-1-.764 0-.463-.082-1.107.25-1.486m22.5 1.25c-.123.746.49 1.13 1.15 1.017.296-.05-.08-.62-.22-.734-.275-.224-.572-.296-.93-.284m-10.25 2.25c.885.523 1.287 1.215 1.25 2.25-.403 0-1.822.004-2-.5-.1-.29.54-1.518.75-1.75m14.25 1.25c.194 1.03-2.396 1.558-2.79.658-.115-.264-.356-.615-.014-.713.36-.104.683-.18 1.055-.23.645-.087 1.144.08 1.75.286m-8.5 3.25c-.743-.153-1.29-.885-1.845-1.35-.665-.56-1.372-1.04-1.655-1.9.912-.01 2.482.13 3.287.52.65.32.86.425.775 1.232-.052.5-.332 1.054-.563 1.498m5.25-3c-.173.632-.573 1.322-.95 1.86-.464.66-1.16 1.864-1.59.515-.122-.382-.234-.743-.315-1.138-.103-.5-.287-.73.295-.854.86-.187 1.68-.343 2.56-.382m15.5 2.5c.024-.748-.986-1.803-1.69-1.192-.323.282.237.75.417 1 .21.297.98.192 1.273.192m-19-.75c.182.308.197.654.25 1-.292-.287-.54-.627-.25-1m17 1.25c-.14.564-.23 1.572.63 1.162.44-.21.362-.293.238-.74-.155-.557-.302-.422-.867-.422m-17.5 1v1c-.24-.266-.235-.73 0-1m-16 .25c-.182.308-.197.654-.25 1 .346-.053.69-.07 1-.25-.238-.31-.425-.534-.75-.75m32.75.75c-.08.355.143.705.5.75-.116-.303-.242-.545-.5-.75m-31.25 2.5c-.842.478.695 1.38.792 1.154.068-.156.303-.754.207-.904-.076-.12-.84-.225-1-.25m29.25 1c.156.306.46.367.75.5 0-.127.083-.67 0-.75-.19-.186-.648.08-.75.25m-27.254.5c-.4.242-1.232.51-1.298.994-.08.597.34.967.926 1.09 1.337.285 1.62-2.244.372-2.084m25.505 1.5c-.74-.02-1.534.627-.858 1.343.477.507 1.608.693 1.858-.087.046-.144.076-.312.05-.46-.08-.467.05-.176.327-.428.398-.358.42-.53.172-.998-.456-.864-1.534-.166-1.55.63m-2.25 2.75c-.116.364-.138.81.108 1.13.306.402.756.166.513.765-.307.758-1.367 1.352-2.034 1.76-1.54.94-3.334 1.506-5.087 1.918-3.102.73-7.452.95-10.25-.824.335-.475 1.194-.49 1.707-.57.69-.11 1.373-.48 2.043-.68.117.51.285 1.13.903 1.19.546.056 1.065-.487 1.65-.304.384.12 1.388.64 1.66.102.195-.383-.358-1.102-.463-1.488.965.05 1.634.39 2.535.687.594.195 2.152.897 2.734.293.387-.402.773-.807 1.16-1.21.27-.28.283-.802.52-1.124.61-.832 1.146-1.672 2.3-1.646m-12.5 1.25c-.027.673.167 1.207-.462 1.54-.588.31-1.162.696-1.807.87-.17.045-.862.346-1.006.246l-1.09-.762c-.55-.385-.1-1.125.366-1.394.105.507.71 1.355 1.31.93.64-.452.336-1.286.19-1.93.867.088 1.722.078 2.5.5m7-.25c-.078.826.097 1.46.25 2.25-.883 0-1.567-.34-2.362-.705-.536-.246-1.452-.41-1.637-1.044.51.103 1.24-.184 1.77-.24.658-.067 1.32-.235 1.98-.26m-5.5.5c.28.48.054 1.107-.5 1.25.104-.448.168-.905.5-1.25"/></svg>