<svg xmlns="http://www.w3.org/2000/svg" viewBox="0 0 167.0893555 242.6665039"><path d="M46.614 185.344l-5.63-3.615L121.12 56.905l5.63 3.615-80.136 124.824z"/><g stroke="none"><path d="M47.243 179.864c.966.62 1.256 1.888.65 2.838-.61.947-1.885 1.215-2.85.595-.966-.62-1.257-1.888-.647-2.838.607-.948 1.882-1.215 2.847-.596z" fill="#fff"/><path d="M46.497 181.028c.297.19.38.592.184.898-.195.305-.593.397-.89.207-.3-.19-.38-.593-.186-.898.196-.305.596-.4.893-.207z"/></g><g stroke="none"><path d="M79.088 129.782c.966.62 1.256 1.89.647 2.838-.607.95-1.882 1.214-2.848.595-.966-.617-1.255-1.888-.648-2.838.607-.947 1.882-1.212 2.848-.595z" fill="#fff"/><path d="M78.343 130.948c.297.19.38.592.183.896-.195.305-.595.4-.892.207-.297-.19-.38-.59-.184-.895.196-.307.594-.4.893-.207z"/></g><g stroke="none"><path d="M81.913 125.22c.967.618 1.256 1.89.65 2.837-.61.95-1.885 1.215-2.85.596-.966-.617-1.256-1.89-.648-2.838.608-.947 1.883-1.215 2.848-.596z" fill="#fff"/><path d="M81.167 126.383c.298.192.38.594.185.9-.197.303-.595.397-.893.206-.3-.19-.38-.593-.186-.898.197-.306.596-.398.893-.21z"/></g><g stroke="none"><path d="M85.003 120.146c.967.62 1.256 1.89.65 2.84-.61.946-1.884 1.214-2.85.595-.966-.62-1.255-1.89-.648-2.837.608-.948 1.884-1.215 2.848-.597z" fill="#fff"/><path d="M84.257 121.312c.3.19.38.59.186.896-.197.306-.596.398-.893.21-.298-.193-.38-.595-.185-.9.196-.304.595-.398.892-.206z"/></g><g stroke="none"><path d="M88.164 115.14c.964.62 1.255 1.888.646 2.837-.607.948-1.883 1.215-2.848.596-.966-.62-1.255-1.89-.648-2.838.607-.948 1.883-1.214 2.85-.595z" fill="#fff"/><path d="M87.417 116.304c.297.19.38.592.184.897-.194.306-.595.4-.892.208-.296-.19-.378-.593-.183-.897.195-.304.596-.398.892-.206z"/></g><g stroke="none"><path d="M91.394 110.207c.965.62 1.254 1.89.647 2.837-.607.95-1.882 1.216-2.847.597-.967-.62-1.256-1.89-.65-2.836.61-.95 1.884-1.215 2.85-.597z" fill="#fff"/><path d="M90.648 111.37c.297.192.38.594.184.9-.196.303-.596.397-.893.206-.298-.19-.38-.592-.185-.897.196-.306.594-.4.893-.21z"/></g><g stroke="none"><path d="M94.498 105.144c.964.62 1.253 1.89.646 2.837-.607.95-1.883 1.216-2.848.597-.966-.62-1.255-1.89-.648-2.838.607-.948 1.883-1.216 2.85-.596z" fill="#fff"/><path d="M93.75 106.308c.298.19.38.593.185.898-.195.305-.596.398-.893.207-.296-.19-.378-.592-.183-.897.194-.306.595-.398.89-.208z"/></g><g stroke="none"><path d="M97.828 100.104c.966.62 1.255 1.89.648 2.836-.607.95-1.883 1.215-2.85.597-.964-.62-1.253-1.89-.646-2.838.607-.95 1.883-1.216 2.848-.596z" fill="#fff"/><path d="M97.082 101.268c.296.19.38.592.183.897-.195.305-.594.398-.89.207-.3-.19-.38-.592-.186-.896.194-.306.595-.4.892-.208z"/></g><g stroke="none"><path d="M100.93 95.208c.968.618 1.257 1.89.65 2.836-.61.95-1.885 1.216-2.85.597-.965-.618-1.254-1.89-.647-2.837.608-.948 1.883-1.215 2.848-.595z" fill="#fff"/><path d="M100.185 96.372c.297.19.38.592.184.897-.197.304-.595.397-.894.207-.297-.19-.38-.593-.184-.898.196-.306.596-.4.893-.208z"/></g><g stroke="none"><path d="M104.406 89.895c.967.62 1.256 1.89.648 2.837-.607.95-1.883 1.215-2.85.597-.964-.62-1.253-1.89-.646-2.84.608-.947 1.883-1.214 2.848-.595z" fill="#fff"/><path d="M103.66 91.06c.3.19.38.59.185.897-.197.305-.595.397-.892.207-.3-.19-.38-.593-.186-.897.197-.306.596-.4.893-.208z"/></g><g stroke="none"><path d="M107.398 85.277c.967.62 1.256 1.89.648 2.837-.607.948-1.882 1.215-2.85.596-.964-.62-1.255-1.89-.646-2.837.608-.948 1.883-1.215 2.848-.596z" fill="#fff"/><path d="M106.652 86.44c.3.19.38.593.185.898-.197.306-.595.398-.892.208-.3-.19-.38-.593-.186-.898.195-.305.595-.398.892-.207z"/></g><g stroke="none"><path d="M110.878 79.758c.965.62 1.256 1.89.647 2.838-.608.948-1.883 1.215-2.848.596-.967-.62-1.256-1.89-.648-2.838.608-.948 1.882-1.215 2.848-.596z" fill="#fff"/><path d="M110.132 80.922c.297.19.38.593.184.898-.195.305-.596.398-.893.207-.297-.19-.38-.592-.183-.897.195-.305.595-.398.892-.208z"/></g><g stroke="none"><path d="M114.093 74.807c.965.618 1.254 1.89.647 2.837-.608.948-1.883 1.215-2.848.596-.967-.62-1.256-1.89-.648-2.838.607-.948 1.882-1.215 2.85-.595z" fill="#fff"/><path d="M113.345 75.97c.3.19.38.593.186.898-.195.305-.595.398-.892.208-.297-.19-.38-.593-.183-.898.195-.305.593-.398.89-.207z"/></g><g stroke="none"><path d="M117.433 69.985c.967.62 1.256 1.89.65 2.838-.61.948-1.884 1.215-2.85.596-.966-.62-1.255-1.89-.648-2.84.608-.947 1.883-1.214 2.848-.595z" fill="#fff"/><path d="M116.687 71.15c.3.19.38.592.186.897-.198.305-.596.398-.893.207-.3-.19-.38-.592-.186-.897.196-.305.596-.398.893-.208z"/></g><g stroke="none"><path d="M120.648 65.034c.967.618 1.256 1.89.648 2.837-.607.95-1.882 1.216-2.85.597-.964-.62-1.255-1.89-.646-2.838.608-.948 1.883-1.215 2.848-.596z" fill="#fff"/><path d="M119.902 66.198c.297.19.38.593.183.897-.195.305-.593.398-.89.208-.3-.19-.38-.593-.186-.898.195-.305.595-.398.892-.207z"/></g><path d="M123.87 60.27c.963.62 1.255 1.89.647 2.838-.61.95-1.885 1.216-2.85.597-.964-.62-1.255-1.89-.646-2.838.608-.948 1.884-1.215 2.85-.596z" fill="#fff"/><path d="M123.123 61.435c.296.19.378.593.183.898-.195.305-.594.398-.892.207-.297-.19-.38-.592-.184-.897.195-.306.596-.398.893-.208z"/><g stroke="none"><path d="M50.458 174.91c.965.62 1.256 1.89.647 2.84-.608.948-1.883 1.213-2.848.594-.966-.62-1.256-1.888-.648-2.838.607-.947 1.883-1.214 2.848-.595z" fill="#fff"/><path d="M49.712 176.075c.297.19.38.593.184.898-.196.305-.595.4-.893.207-.297-.19-.38-.592-.184-.896.195-.305.595-.4.892-.21z"/></g><g stroke="none"><path d="M53.544 169.71c.965.62 1.255 1.89.647 2.837-.607.948-1.882 1.215-2.847.596-.966-.62-1.256-1.89-.65-2.838.61-.947 1.885-1.215 2.85-.596z" fill="#fff"/><path d="M52.798 170.874c.297.19.38.593.183.898-.194.305-.594.398-.89.207-.298-.192-.38-.593-.185-.9.196-.304.595-.396.893-.206z"/></g><g stroke="none"><path d="M63.153 155.14c.965.618 1.255 1.888.647 2.837-.608.947-1.883 1.215-2.848.596-.966-.62-1.256-1.89-.648-2.838.608-.947 1.883-1.215 2.85-.596z" fill="#fff"/><path d="M62.407 156.303c.297.19.38.592.184.897-.194.306-.595.398-.892.21-.297-.193-.38-.595-.183-.9.195-.304.594-.398.892-.207z"/></g><g stroke="none"><path d="M56.567 164.91c.966.62 1.256 1.89.65 2.84-.61.948-1.885 1.213-2.85.594-.966-.62-1.256-1.888-.647-2.838.607-.947 1.883-1.214 2.847-.595z" fill="#fff"/><path d="M55.82 166.075c.3.19.38.593.186.898-.196.305-.595.4-.893.207-.298-.19-.38-.592-.184-.896.194-.307.594-.4.89-.21z"/></g><g stroke="none"><path d="M59.782 160.125c.966.62 1.256 1.89.648 2.838-.61.95-1.884 1.215-2.85.596-.964-.62-1.255-1.89-.646-2.837.608-.95 1.883-1.215 2.848-.598z" fill="#fff"/><path d="M59.036 161.29c.297.19.38.593.184.898-.196.305-.595.398-.893.207-.297-.19-.38-.592-.183-.896.195-.308.595-.4.892-.21z"/></g><g stroke="none"><path d="M69.352 145.075c.965.62 1.254 1.888.647 2.836-.608.95-1.884 1.217-2.85.598-.965-.62-1.254-1.89-.647-2.838.607-.95 1.883-1.214 2.85-.595z" fill="#fff"/><path d="M68.605 146.24c.298.188.38.59.185.895-.196.305-.596.4-.893.207-.297-.19-.38-.592-.184-.896.195-.305.595-.4.892-.207z"/></g><g stroke="none"><path d="M66.172 149.854c.966.62 1.255 1.89.647 2.836-.608.95-1.883 1.217-2.85.598-.965-.62-1.255-1.89-.647-2.838.608-.95 1.883-1.215 2.85-.596z" fill="#fff"/><path d="M65.425 151.018c.298.19.38.592.184.897-.196.304-.595.398-.892.21-.3-.193-.38-.595-.186-.9.197-.305.596-.398.893-.207z"/></g><g stroke="none"><path d="M72.228 139.864c.964.62 1.255 1.888.647 2.838-.608.947-1.884 1.215-2.85.595-.964-.62-1.254-1.888-.646-2.838.606-.948 1.882-1.215 2.848-.596z" fill="#fff"/><path d="M71.48 141.028c.298.19.38.594.185.898-.195.305-.595.397-.893.207-.296-.19-.378-.593-.183-.898.194-.305.595-.4.89-.207z"/></g><g stroke="#000"><path d="M75.665 134.856c.965.62 1.255 1.89.647 2.838-.608.95-1.883 1.215-2.848.596-.967-.62-1.256-1.89-.65-2.836.61-.95 1.884-1.215 2.85-.598z" fill="#fff" stroke="none"/><path d="M74.92 136.02c.296.19.378.594.183.898-.196.305-.596.4-.893.207-.297-.19-.38-.59-.184-.896.196-.308.594-.4.893-.21z" stroke="none"/></g><g fill="#f8c20f"><path d="M48.89 56.934l4.506-.212 1.98 3.268 2.115 15.027-2.913 31.996-2.285 9.29-2.243-.712-4.455-10.36-3.453-4.535-4.092-3.106-3.172-1.534-3.183-.533-2.684-.216.928-5.053 3.613-4.775.467-2.746.474-3.558 2.296-4.226 3.617-5.212 2.877-6.158 2.475-3.475" fill="#1c1585"/><path d="M25.305 132.393l-5.698-.06.05-4.844 5.698.057-.05 4.846z"/><path d="M26.185 127.86l-7.135-.076.092-8.782 7.134.075-.09 8.783z"/><path d="M26.085 119.32l-5.45-.056.005-.587 5.45.056-.005.588z"/><path d="M25.88 118.997l-3.785-.04.006-.567 3.786.04-.006.567z"/><path d="M25.712 118.75l-1.665-.02.008-.737 1.665.018-.008.74zM22.436 115.075l2.226-1.125.984 1.22-.22 1.48-2.45-.663M21.612 104.24l-.61-.84 1.032-1.51 2.07.935-.917 2.4M24.415 73.8l-3.547-.037.055-5.217 3.547.037-.055 5.217z"/><path d="M24.637 77.298l-3.978-.042.038-3.632 3.977.04-.038 3.634z"/><path d="M24.892 84.24l-4.495-.047.076-7.145 4.493.047-.074 7.145z"/><path d="M25.034 101.985l-5.156-.054.19-18.06 5.155.053-.19 18.062z"/><path d="M25.25 84.298l-.688-.006.022-2.032.687.008-.02 2.03zM25.67 100.804l-.843-.01.162-15.498.843.01-.162 15.498z"/><path d="M26.335 100.06l-.938-.01.102-9.592.936.01-.1 9.593zM19.423 100.55l.97.01.128-12.28-.968-.01-.13 12.28z"/><path d="M18.962 99.827l.937.01.085-8.218-.937-.01-.086 8.217zM24.663 68.224l-4.253-.045.017-1.5 4.252.046-.017 1.498zM27.755 59.165l1.16.907-.033 3.22-2.938 2.655-6.187.573-3.266-2.29-.583-3.382.772-1.283 1.198 2.096 2.015 1.727 1.72.155 2.515-.11 2.754-1.556"/><path d="M21.856 53.455l1.94 2.224.98 3.28-1.127 4.104-1.66.603-1.446-3.338-.89-2.232M10.763 164.08l34.998.366.247-23.408-34.998-.368-.247 23.41z"/><path d="M57.378 98.297l5.89 3.634 6.708 3.792 6.098 2.716-17.29 32.465-13.46 10.89-3.564-2.662 7.095-24.02M112.142 71.515l8.723-13.4-2.276-1.032-13.41 13.732 4.48 4.417M52.837 56.797l1.934 2.46 1.17 2.73.166 11.04 1.414 2.495.487 6.884 1.34 5.813 1.373 2.453 3.1 1.752 5.21 2.734 9.043 3.533.805-.51-9.833-42.496" fill="#e61408"/><path d="M75.782 108.462l7.778 2.092-.228 2.57.047 3.217-20.643 32.15-2.564-4.65-1.297-6.687.223-5.95 1.184-5.695 2.51-5.482 3.506-4.507 4.664-3.933M55.742 72.907l-2.58 1.5-3.018 3.02-2.317 4.067-1.54 4.27-.73 4.798.25 4.028 1.606 4.725 2.395 3.955 3.12 2.63 2.01.378 1.717-5.86 2.407-6.5 1.363-3.103-2.612-8.015-.24-8.12M75.356 61.916l4.78.916 6.03.55 3.794-.61 3.846-.23 3.47-.75 2.087-.166-6.617 27.182-1.643-.72-2.437.162-4.577.196M66.473 67.558l-1.687 1.916-1.72 5.277.318 6.49 2.4 6.51 3.613 4.532 4.82 2.728 5.048 1.064-3.863-23.246M44.146 177.637l3.416-5.166 5.355-8.76-1.097-4.23-2.688-3.77-3.64-3.622-6.61 10.366"/><path d="M10.718 164.87l1.492.734 1.887 4.926 3.45 4.787 3.63 2.568 4.207 1.14 5.13-.542 3.372-1.703.348.586 2.068 1.48 2.714 1.53 1.036.552 1.24 1.012 2.568-4.557.56-5.703-.814-3.904-1.896-3.957-20.174-1.36-10.615.93M11.028 140.426l.64-2.13 2.737-3.655 3.252-1.68 6.898-.135 2.095-.166 1.417 1.952 1.197-.832 2.49-1.91 3.276.283 2.33 1.306 2.232 1.835 2.163 2.305 1.504 2.734.016 1.282L11 140.778M109.18 76.173l-1.524 2.615-1.658 2.424-2.026 2.782-1.017 2.036-1.608 2.374-2.03-.022-.15-5.384 6.618-11.074 2.525 1.884M67.156 7.018l1.74 1.03L70.19 9.5l1.663.333.485 2.01-.538 1.07-2.115.527.96 1.086 1.766.314 1.965-.128-.27 7.528-5.203 1.38-1.964-1.834-.68-3.49-6.344-6.69 1.53-1.123 2.246 1.377.922 3.51.4 1.554 2.132-.123 1.097-1.317.194-2.153-3.59 1.645-1.69-3.043 3.37-.495-.59-1.48-.094-1.685M75.366 7.788l.035 1.616 1.96 2.173 1.098.01-.138-4.937-1.62-.397"/><path d="M89.525 10.67l1.937 2.257 1.577.69-3.867 6.48-4.054.23-4.52.44-7.232 1.548.776-7.523 1.804-1.1 1.52-2.05 1.623.1 1.317 1.28 1.957.42 2.13.17 2.076-.905 2.133-2.045"/><path d="M87.843 4.05l1.717-.805 1.156.455.79 2.983 2.816 1.253.04 2.32-2.14.674-3.2-.56-4.075.358-1.716-1.474.44-1.514 1.02-.707h1.98l1.14.117M103.585 19.783l-.818-4.417-1.723-.588-1.714-1.453-.96-1.19-2.287.924-2.75.772-3.066.664.022 3.86.09 1.415 7.768 1.644 3.133.92M99.925 6.792l.795.515-1.525 4.772-1.72-1.01-.276-1.818.518-1.323 1.022-.855M111.316 8.83l-2.106-.316-1.785 1.29-.902 1.53-1.195-.75-1.264-.226-.973.328-.35 1.262.29.678 2.817.83-1.07 1.424-1.926.57.267.847 1.812.125 2.86-3.282 1.012-1.867 2.76-1.765"/><path d="M87.626 6.916c-.396.066-.914-.134-1.31-.2-.494-.084-1.05.066-1.543.12-1.195.137-1.358 1-1.657 2-.295.985 1.04 1.75 1.684 2.125.694.406 1.98.184 2.78.456-1.057 1.406-2.534 1.7-4.196 1.87-1.246.13-3.57-.363-4.057-1.706-.236-.652.225-1.614.252-2.304.026-.663-.345-1.84-.74-2.374-.386-.515-1.58-1.115-2.204-.916-.746.238-1.268 1.02-1.27 1.802.77-.83 1.303-1.503 2.51-.974-.607.438-.307 1.27-.195 1.874.15.797-.08 1.582.153 2.376-1.038-.07-2.05-.998-2.23-2.023-.605.627.322 1.812.7 2.31.426.567.495.765.19 1.417-.15.317-.688.77-.992.95-.788.466-1.677.778-2.6.816-1.194.05-1.71.013-2.596-.798 1.152-.138 1.95-.91 2.5-1.848.23-.393.355-.843.17-1.29-.32-.777-.585-.852-1.338-1.25-.438-.23-.992-.205-1.453-.443-.43-.222-.713-.786-1.098-1.1-.814-.668-2-1.6-2.924-.502-.794.945-.454 2.318-.204 3.37.143.594-.007.724-.71.764-.686.038-1.11.07-1.698-.35-.598-.425-2.255-1.526-2.983-.675-.393.46-.796.785-.886 1.386-.046.295.673 1.016.888 1.24.815.854 1.595 1.738 2.406 2.594.777.82 1.464 1.502 2.316 2.23.54.46.76.605.938 1.276.18.685.207 1.187.192 1.9-.02.974 1.328 1.85 1.322 2.923-.007 1.067-.567 2.08-.58 3.187-.01 1.093.468 2.134.435 3.186-.028.863-1.404 1.605-1.91 2.316-.264.372-.247 1.222-.33 1.673-.085.46.027.877.193 1.3.008.022.015.043.024.064-1.47.45-2.804.804-4.07 1.703-.96.68-1.542 2.988-1.073 4.05.265.598.547 1.252 1.117 1.624.143.094.516.398.696.338.104-.034.655-.773.76-.87 1.175-1.104 2.715-1.302 4.264-1.327-.413.733-1.37.797-2.014 1.23.492.406 1.32.09 1.868-.05.942-.24 1.256-.593 1.732-1.424.345-.603.692-1.277 1.322-1.585.772-.375 1.51-.744 2.37-.865-.883.778-1.925 1.246-2.516 2.283-.63 1.112-.93 2.02-1.924 2.882-.87.757-2.076.87-3.126 1.19-.574.174-1.105.396-1.69.538-.486.12-.854-.108-1.313-.253.26-.488.64-.944.765-1.492-1.214.017-1.754 1.675-2.69 2.263-1.238.78-1.943 1.59-2.593 2.89-.606 1.21-1.708 1.45-2.913 1.64-1.387.217-2.268.762-3.393 1.587-.19-1.335 1.687-2.427 2.78-2.72-.765-.687-2.08.283-2.716.73-.975.683-.658 2.037-.942 2.98-.155.516-.587.744-.918 1.125-.458.526-.767.903-1.035 1.54-.167.395-.16 1.027-.404 1.348-.41.54-.79.972-1.292 1.427-3.398 3.09-4.744 7.547-6.896 11.473-1.04 1.9-2.544 3.584-3.678 5.44-.64 1.047-1.177 1.984-1.633 3.122-.396.99-.453 1.865-.61 2.89-.18 1.143-.214 2.28-.4 3.418-.064.394-.62.96-.863 1.284-.378.502-.796.978-1.193 1.466-1.378 1.693-2.222 3.82-2.673 5.938-.174.823-.32 1.752-1.232 2.043-.554-2.062-.645-4.06-.89-6.165-.25-2.133-.51-4.3-.81-6.42-.303-2.15-.502-4.28-.616-6.44-.116-2.18-.423-4.31-.447-6.504-.012-1.14.49-2.35 1.177-3.28.368-.494.967-.74 1.495-1.05.526-.307.917-1.032 1.296-1.497.74-.908 1.068-2.205.768-3.373-.284-1.103-1.077-2.488-2.333-2.525-.084 1.09.394 1.97-.28 2.997-.6.908-1.598 1.267-2.52 1.724-.18-1.06-.12-1.868.306-2.877.23-.545.456-1.037.565-1.615.127-.67-.154-1.088-.422-1.72-.412-.97-1.114-1.797-1.533-2.78-.387-.908-.615-1.898-1.04-2.782-.69.42-.707 2.023-.93 2.74-.325 1.06-.784 2.067-1.29 3.053-.61 1.19-.574 1.938.188 3.062.64.945 1.18 1.957 1.155 3.137-1.046-.01-2.076-.422-2.694-1.326-.31-.454-.793-.927-.862-1.482-.086-.675-.152-1.303-.145-1.982-1.155.004-1.637 1.414-1.91 2.323-.338 1.125.02 2.135.414 3.176.35.93 1.35 1.643 2.144 2.187.994.68 1.55 1.417 2.087 2.51.51 1.034.387 2.2.374 3.336-.01 1.153-.052 2.232-.26 3.366-.187 1.008.013 2.056-.197 3.073-.235 1.135-.135 2.365-.15 3.524-.014 1.046-.27 2.074-.297 3.126-.03 1.13-.26 2.224-.33 3.354-.13 2.104-.98 4.184-1.003 6.304-.01 1.09.07 2.222-.048 3.306-.134 1.24-1.21 1.733-1.923 2.622-.56.696-.357 2.37-.504 3.228-.043.252-.125.43-.127.692-.002.193.325.116.5.163.51.142.993.51.987 1.08-.002.22.537.13.748.133-.28.824-.572 1.548-.564 2.428.008.877.43 1.55.766 2.326-.535.1-1.09.352-1.607.507-.628.19-1.328.36-.708 1 .456.472.824.836 1.163 1.41.32.542.708.962 1.36 1.085-.135.838-1.803 1.58-1.517 2.518.138.452.203 1.157.533 1.504.35.37.903.835.857 1.4-.093 1.123-.33 2.21-.465 3.322-.06.512.025 1.045-.057 1.555-.082.502-.217 1.033-.226 1.54-.02 1.128-.146 2.19-.23 3.307-.086 1.14-.088 2.17-1.112 2.916-1.9 1.385-3.65 3.014-4.674 5.178-.467.986-.566 1.85-.634 2.934.455-.51.413-1.46.82-2.067.516-.77 1.055-1.513 1.55-2.3.796-1.266 2.507-2.67 3.958-3.07-1.475 1.315-2.782 2.552-3.96 4.165-.595.815-1.06 1.688-1.53 2.576-.294.557-.728 1.81-.607 2.448.664-.665 1.07-1.815 1.59-2.608.636-.965 1.176-1.896 1.89-2.808.713-.91 1.466-1.58 2.414-2.217.76-.513 2-1.24 2.95-1.232 1.276.012 2.18.686 3.054 1.48.28.26.42.952.417 1.33-.008.798-.25.987-.762 1.622-.227.28-.718.69-1.107.494-.455-.228-1.356-.447-1.475-.967-.1-.44.21-1.03.634-1.2.188-.073.426-.04.627-.036.288.003.032.52-.174.593-.337.123-.443.576-.505.9.89.078 2.356-.8 1.52-1.832-.68-.84-2.083-.49-2.775.116-1.65 1.45-3.37 2.6-4.463 4.573-2.154 3.89-3.65 8.397-3.697 12.89-.01 1.03.254 2.066.205 3.103-.05 1.068-.03 2.072-.035 3.14-.004 1.168 0 2.217.22 3.362.212 1.105.446 2.21.674 3.312.87 4.178 3.527 8.504 7.226 10.696 1.635.97 3.27 1.5 5.127 1.875 1.726.345 3.666-.04 5.375-.348.872-.156 1.675-.588 2.446-1.002.81-.436 1.707-.383 2.517-.733.92-.396 1.35-1.42 1.868-2.208.375-.57.178-2.122.186-2.77 1.145 1.676-.163 3.41-1.1 4.812-.64.958-.098 1.67.724 2.232.694.473 1.438 1.084 2.29 1.225-.19-1.338-1.276-2.395-1.46-3.766.657.01 1.34-.02 1.996.056.677.078 1.462.576 1.37-.428-.06-.643-.82-1.153-1.15-1.686-.37-.6.62-1.21 1.04-1.45.482-.276 1.286-.698.454-1.118-.496-.25-1.285-.182-1.71-.506-1.08-.82.563-2.623.84-3.588-.62-.326-1.36.117-1.926.37-.255.113-.67.144-.88.312-.535.42-.447-.4-.444-.66.014-1.354.475-2.703.54-4.05 1.402.01 2.527 2.268 3.045 3.325.673 1.373 1.512 2.934 1.568 4.498.063 1.71-.033 3.233-.54 4.877-.25.813-.533 1.547-.94 2.293-.336.617-.79 1.31-.808 2.033 1.617-.006 2.385-3.082 2.76-4.29.48-1.542.537-3.73.226-5.325-.166-.846-.216-1.95-.555-2.74-.38-.895-.78-1.75-1.26-2.594-.408-.716-.826-1.378-1.386-1.985-.59-.64-1.57-1.375-1.584-2.338 1.688.215 3.175 2.62 3.867 3.996.797 1.588 1.672 3.553 1.78 5.347.12 1.932.04 3.868-.553 5.71-.29.904-.56 1.802-1.02 2.64-.437.795-1.107 1.643-1.036 2.59.842-.475 1.326-1.652 1.82-2.434.724-1.138 1.293-2.025 1.47-3.373.28-2.107.245-4.105.003-6.215-.254-2.228-1.285-4.337-2.49-6.19-.565-.868-1.333-1.696-2.074-2.41-.43-.417-.65-.724-.94-1.255-.24-.438.085-1.133.237-1.563.07-.195.16-.382.225-.58.256.293.537.57.566.97.028.382-.065.888.105 1.222.482.947 1.376.183 1.81-.414.267.297.515.63.816.89.507.446.587.454 1.1.012.604-.52-.793-1.557-1.156-1.894.613-.1 1.62-.776 1.278-1.526-.413-.904-1.64.195-1.77.77-.377-.37-.762-.758-1.24-1-.562-.283-1.03-.06-.99-.774.056-1.107.735-2.127.783-3.242 1.36.05 2.764 1.313 3.748 2.16 1.224 1.057 2.228 2.106 3.143 3.448.86 1.255 1.623 2.55 2.142 3.988.463 1.28 1.06 2.887 1.072 4.262.35-.3.618-.674.903-1.032.543-.68.08-.744-.294-1.463-.51-.982-.796-2.084-1.282-3.08-.992-2.04-2.236-3.91-3.793-5.55-.788-.83-1.628-1.567-2.554-2.233-.872-.627-1.867-.982-2.257-2.017-.175-.46.79-.432 1.066-.315.572.244 1.1.572 1.637.88.82.472 1.637 1.23 2.312 1.897 1.442 1.425 2.773 2.935 3.844 4.665.528.852.89 1.715 1.282 2.635.378.887.91 1.89.913 2.88.727-.6 1.472-1.85 1.778-2.73-1.767-.388-3.05-3.005-3.956-4.363-.676-1.01-1.264-1.998-2.18-2.806-.76-.667-1.57-1.433-2.018-2.34-.29-.59 1.88-1.943 2.245-2.247.778-.655 1.56-1.315 2.376-1.926 1.8-1.354 3.544-2.787 5.28-4.22.776-.64 1.9-1.212 2.46-2.055 1.366 1.607 1.616 4.035 2.568 5.902.244.48.523.947.756 1.432.123.252.275.275.48.076.34-.334.416-.3.167-.707-.547-.895-1.043-1.73-1.473-2.694-.856-1.92-1.424-3.956-1.668-6.044-.13-1.105-.31-2.203-.453-3.306-.13-.996.2-2.225.212-3.254.026-2.082.507-4.36 1.155-6.342.7-2.14 1.402-4.158 2.647-6.058.595-.908 1.13-1.855 1.782-2.726.718-.963 1.472-1.676 2.365-2.474 1.643-1.47 3.102-2.99 5.01-4.135.906-.545 1.902-1.23 2.917-1.54.578-.177.986-.37 1.573-.25.607.126 1.2.25 1.795.43 1.072.325 2.175.544 3.24.866.443.134.863.344 1.295.506.408.153-.175 1.17-.43 1.416-.72.698-2.314.976-3.224 1.31-1.048.386-2.004.94-2.945 1.538-1.9 1.21-3.626 2.606-5.256 4.16-2.924 2.786-5.176 6.75-5.915 10.714-.747 4.012-.873 8.455.89 12.26.76-.43-.173-2.383-.338-3.02-.237-.916-.343-2.043-.364-2.988-.05-2.18.033-4.254.546-6.393 1.088-4.546 3.737-7.938 7.02-11.147 1.607-1.57 3.346-2.83 5.34-3.867.937-.487 1.942-.863 2.944-1.196.447-.15 1.233-.647 1.59-.282.596.61-.76.83-1.066.927-4.295 1.38-7.81 4.077-10.78 7.412-1.28 1.436-2.174 3.14-3.13 4.795-.982 1.7-1.194 3.63-1.562 5.51-.33 1.677-.23 3.707.066 5.38.187 1.067.44 2.06.745 3.102.014.047.45.063.507.03-.04.023.322-.56.377-.616.23-.224.823-1.394.9-1.87-.193.06-.712-.056-.567-.36.285-.6.306-.776.984-.715.613.055.45.076.8-.36.197-.25.322-.576.5-.84.852-1.28 2.29-2.908 2.604-4.43-.508-.017-1.19-.362-1.407-.843-.36-.805.07-1.013.607-1.658.334-.402 1.192.006 1.56.193.146.075.607.383.762.325.118-.047.4-.735.458-.86.063-.137.35-.49.307-.633-.016-.05-.475-.234-.57-.297-.442-.298-.82-.898-.753-1.466.195-1.674 2.167-.89 3.1-.72-.415-.77-1.813-1.405-2.603-.78-.5.398-.914.59-1.07 1.205-.185.725-.256 1.06-.1 1.786-.45.072-1.056.328-1.503.234.353-.54.76-1.2.53-1.865-.122-.36-.628-.662-.904-.914-.238-.216-.845.007-1.146.048-.986.13-.457 1.226-.31 1.81.2.8.8.91 1.58.92-.59.815-.844 1.58-.858 2.584-.015.983 1.065 1.46 1.558 2.174-.618.147-1.4.182-1.785.754-.47.703-.413 1.162-.528 1.97-.023.165-.103.92-.226 1-.163.102-.796-.2-1.004-.206-.742-.022-1.252.46-1.755.925-.326-1.387-.22-2.835-.204-4.252.447.205.994.626 1.493.646.29.012.756-.27 1.03-.37.396-.142.3-.288.34-.712.06-.674.208-1.38-.612-1.67-.555-.2-1.43.225-1.985.357.587-2.108 1.045-3.917 2.255-5.774 1.08-1.654 2.318-3.405 3.732-4.79 1.408-1.375 3.016-2.69 4.752-3.637 1.062-.58 5.03-3.165 4.916-.386 1.13-.63.472-1.54.583-2.53.102-.896.05-2.49 1.223-2.702.125.767.21 1.476.226 2.253.845-.49 1.435-1.857 1.968-2.64.53-.783 1.008-1.602 1.54-2.383 1.364-2.006 2.685-4.042 4.032-6.06 2.528-3.78 4.895-7.65 7.35-11.475 1.478-2.305 2.92-4.636 4.357-6.968 1.27-2.06 2.828-4.053 3.877-6.235-.53.205-1.593.426-1.804 1.073-.235.72-.258 1.423-.48 2.153-.44-.61-.808-1.898-.722-2.653.106-.924.997-1.595 1.028-2.593-.865.28-1.567.917-2.266 1.476-.285-1.29 1.418-2.703 2.26-3.384.437-.355 1.39.043 1.705.392.564.626 1.03 1.153 1.045 2.045.783-.454 1.22-1.58 1.68-2.32.535-.87 1.18-1.724 1.623-2.646-.72.14-1.37-1.14-1.725-1.62-.475-.64-1.146-1.296-.986-2.16 1.193.156 2.71 2.38 2.713 3.53.482-.404 1.37-1.503.712-1.945-.722-.485-1.36-1.407-1.693-2.19-.3-.7-.203-.766.135-1.468.198-.413.557-.762.845-1.12.63-.786 1.295-1.472 2.013-2.177 1.407-1.376 2.91-2.512 4.56-3.58.39-.25.807-.41 1.233-.593.39-.166.743.33.935-.036.357-.69.912-1.295 1.17-2.038l-.504.245c.222-.71.73-1.785.358-2.53-.474-.95-.947-1.866-1.338-2.85-.738-1.856-3.123-2.695-4.992-2.51-.193.02-1.312.22-1.445.062-.13-.155.168-1.116.197-1.304.16-1.027-.254-1.98-.836-2.79-1.248-1.74-3.656-1.702-5.55-1.722.06-1.1 1.183-1.783 1.396-2.857.084-.416.195-.873.033-1.29-.236-.604-.697-.08-1.2.028-2.56.553-2.454-3.484-2.765-5.113-.195-1.022-1.22-1.873-1.92-2.568-.863-.86-1.195-1.585-1.334-2.815-.238-2.104-1.052-4.252-.02-6.236.345-.665.665-1.115 1.192-1.638.535-.532.414-1.096.62-1.804.45-1.53 1.63-2.085 2.78-3.06 1.003-.854 1.112-2.278 1.883-3.265.542-.694.947-1.03 1.693-1.508.537-.343 1.355-.264 1.98-.33 0-1.476-1.74-2.075-2.978-2.024-1.4.058-2.586 1.368-2.78 2.715-.96-.32-1.808-.93-2.863-.676-.783.19-.787.33-1.045 1.09-.174.517-.04.973.274 1.397.323.434.59.896 1.077 1.16.205.113.447.178.672.234.366.092.024.548-.2.616-.946.284-1.973.6-2.907.08-.45-.25-1.125-.464-1.412-.903-.247-.377-.583-1.14-.384-1.55.22-.453.645-.786.952-1.186.377-.49.51-1.014.578-1.623.105-.944-.014-2.32-1.04-2.735-1.234-.5-2.095.438-2.923 1.24-.574.553-.186 2.107-.135 2.78.03.427.273 1.2-.102 1.53-.435.382-.826.567-1.378.717-1.108.3-2.102.5-3.186.068-.852-.34-1.787-.92-1.98-1.908 1.59.017 3.98.246 4.392-1.702.492-2.32-2.55-1.89-3.2-3.438-.265-.63-.614-1.685-.614-2.362 0-.48.007-.45-.457-.606-.368-.124-.844-.243-1.23-.186-.765.114-1.688.516-1.84 1.396-.165.955-.016 1.677-.007 2.616M90.89 5.7c-.35-.22-.668-.504-.992-.76l-.023 2.25c.39-.132.86.077 1.248.163.462.102.94.09 1.404.175.64.118 1.082.27 1.67.552.183.09.004 1.414-.004 1.652-.02.602-2.094 1.018-2.512.955-1.02-.155-2.036-.828-3.052-.716-.93.103-1.734.454-2.695.46-.564 0-1.016.02-1.525-.25-.2-.108-.94-.895-.914-1.1.075-.595.028-.87.474-1.258.485-.42.733-.675 1.407-.67 1.037.01 2 .883 2.992.772-.018-.622-.254-1.21-.358-1.82-.07-.408-.237-1.69.296-1.89.858-.318 1.188-.568 2.026-.218.576.24.52 1.197.558 1.704m9.483 1.6c-.495.952-.495 1.937-.864 2.935-.052.14-.337.994-.428 1.052-.32.197-1.055-.264-1.247-.475-1.246-1.366.668-4.926 2.538-3.512m-31.77 1.917l-.997-.51c.352.67.64 1.505.727 2.257.49-.08.94-.46 1.396-.66.885-.385 1.118-.597 1.962-.122.546.307.266 1.342.26 1.925-.004.362-1.422.58-1.638.628.172-.283.464-.373.755-.492-.346-.19-.765-.24-1.154-.25-.162-.003-.715-.113-.843-.02-.07.05-.132.49-.258.617-.37.372-1.068.315-1.558.36-.526.048-.942.4-1.45.488.307.185.652.204.997.26-.426.622-1.625.45-2.254.477.037-.586-.043-1.42.572-1.744.575-.302 1.556-.152 2.197-.226-.397-.542-.847-1.142-1.108-1.762-.324-.766-.262-1.387-.195-2.193.015-.195.624-.532.773-.648.32-.253.42-.314.81-.13.602.29 1.014 1.077 1.002 1.745m42.503-.055c-.518.643-1.352 1.13-1.99 1.646-.72.582-1.213 1.15-1.72 1.924-.57.88-1.087 1.732-1.835 2.468-.51.5-1.584 1.01-2.275.63.414-.364 1.033-.363 1.47-.71.647-.516 1.162-.85 1.393-1.667.316-1.11-2.393-1.536-3.076-1.125-.39-.788.103-1.806 1.02-1.877.904-.07 1.872.6 2.234 1.412.7-.79 1.084-1.8 2.025-2.36.753-.445 1.937-.794 2.755-.34m-21.002.03c.627 1.123 3 1.056 3.994.542-.355-.596-1.25-.212-1.78-.325-.628-.136-1.59-.523-2.214-.218m-5.75-.06c.67 1.203 2.494.593 3.498.287-.41-.387-1.218-.168-1.706-.122-.582.056-1.203-.16-1.79-.166m4.73 1.8c.802 1.352 1.847 2.528 3.472 2.786-.486.374-1.197.238-1.775.232-.835-.01-1.67-.018-2.507-.027-1.422-.014-2.816.22-4.223.206.588-.737 1.723-.624 2.416-1.192l1.5-1.226c.47-.384.416-.888 1.12-.78m-24.8 4.49c-1-.34-1.443-1.303-1.995-2.122-.108-.163-1.715-2.07-1.396-2.188.977-.366 1.973.398 2.3 1.354.328.954.97 1.955 1.092 2.956m7.294-4.173c-.225.22-.556.398-.508.743.288-.123.884-.41.508-.744m10.974 2.613c-.393.308-.972.295-1.45.37-.68.106-1.373.275-2.058.344-1.43.143-2.815.407-4.255.455.386-.714 1.156-1.026 1.75-1.53.282-.24.535-.54.73-.852.263-.417.18-.568.702-.543.778.038 1.432.86 2.123 1.122.826.312 1.57.624 2.46.633m18.986 1.45c-.904.71-2.775-.025-3.748-.26-1.36-.325-2.828-.827-4.242-.824.43-.39 1.31-.37 1.854-.63.875-.418 1.576-.71 2.52-.908.634-.134 1.25 1.05 1.663 1.376.614.485 1.196 1 1.954 1.245M68.053 13.96c-.112.683-.028 1.84-.627 2.27-.627.45-1.62.68-2.28.11-.848-.734.353-1.047.952-1.31.655-.288 1.244-.943 1.955-1.07m5.74 1.062c-.164.637-1.236.772-1.747.93-.648.203-1.276.4-1.896.675-.974.432-2.83 1.638-3.887 1.066.414-.52 1.153-.696 1.558-1.238.503-.67.74-1.436.98-2.236.772.145 1.382.756 2.18.893.974.166 1.845.128 2.81-.09m11.758-.628c.35.668.215 1.566-.023 2.25.426-.214.822-.455 1.256-.65.66-.297 1.245-.218 1.968-.208.287.004 1.425.63 1.06.94-.396.335-.976.544-1.295.95.387-.197.828-.24 1.254-.238.008 1.118-1.687 1.173-2.455.91-1.11-.385-1.848-1.186-2.826-1.78-.51-.306-.91-.06-1.462.05-.71.137-1.048.006-1.727-.23-.48-.166-.842-.36-1.335-.177-.51.19-1.055.38-1.477.742-.153.13-1.188.828-.95 1.15.443.598.657.935 1.336 1.216 1.197.498 1.963.158 2.897-.69.826-.75 1.815-.645 2.865-.692.578-.026.938.05 1.06.71.132.69-.278.882-.806 1.16-.83.436-2.057.252-2.965.38-1.14.163-2.27.315-3.403.527-2.182.408-4.362.866-6.466 1.558-.447.147-.885.304-1.34.428-.39.108-1.185.476-1.552.372-.75-.214-.995-.172-.837-.982.095-.48.415-1.08.91-1.276.994-.393 2.318.226 3.34.2 1-.023 1.7-1.268 2.57-1.64.482-.205 1.14-.317 1.305-.878.12-.408-.232-.985-.633-1.117-.432-.143-.932.16-1.38.202-.544.053-1.073-.04-1.62 0-.706.05-1.04.07-1.635.426-.47.28-.905.66-1.426.84-.46.157-1.028.31-1.504.414-.5.11-1.104.197-.864-.453.33-.898 1.795-1.224 2.598-1.483 1.162-.376 2.312-.77 3.462-1.173.975-.342 2.05-.467 3.05-.73 1.04-.27 2.058-.17 3.09-.35 1.978-.344 3.984-.37 5.966-.68m.998.26c.344.18.565.163.403.56-.09.22-.454.397-.665.44-.04-.374.04-.702.26-1m4.997.304c-.003.417-.007.833-.013 1.25-.308-.06-.568-.302-.66-.6-.224-.72.022-.657.672-.65m1.5.016c-.11.47-.22.89-.76.99l.01-.956c0-.092.633-.036.75-.034m1.5.265c-.058.344-.078.69-.263.996-.33-.204-.488-.63-.49-1.005l.75.01m1.25.012c.278.507.153.982-.015 1.5.42.027 1.316-.05 1.605.385.346.52-.492 1.128-.996 1.022-.877-.186-1.426-2.376-.593-2.908m2.995.532c.177.31.19.655.24 1.002-.47-.087-.707-.744-.24-1.002m1.498.265c.06.126.556.853.488 1.004-.085.193-.845.217-1 .24.038-.478.083-.956.513-1.245m1.496.265c.194.385.237.826.235 1.252l-.75-.007c.04-.478.086-.956.514-1.245m-20.26.788c-.026.838-.685.998-1.35 1.26-.646.255-1.22-.037-1.85-.27-.188-.072.194-.57.277-.697.215-.33.66-.414 1.004-.552.704-.28 1.223.106 1.92.26m12.74.882c.27.41.863 2.01-.02 2-.766-.008-.518-1.674.02-2m-22 .107c.223.04.774.03.942.173.19.158.293.73.387.96.11.278-1.05.812-1.297.815-.54.008-1.382-.024-1.255-.725.146-.803.44-.976 1.22-1.222m19.25.115l-.014 1.5c-.877-.158-.592-1.185.015-1.5m1.5.015c-.007.5-.012 1-.016 1.5-.727-.143-.702-.927-.735-1.508l.75.008m5.745.31c.545.836.465 1.568.225 2.503-.797-.392-1.004-1.99-.225-2.503m4.25.045c.24.392.873 1.26-.013 1.25-.617-.007-.383-.992.013-1.25M96 19.004l-.012 1.25c-.684-.148-.906-1.485.013-1.25m1.5.017c.242.463.228.995.234 1.503-1.002-.04-1.28-1.71-.233-1.502M73 19.015c-.413.2-.813.358-1.257.486.387.33 1.683.133 1.256-.486m13.994.646c-.29-.136-.594-.2-.746-.508.34-.022.697.14.746.508m13.504-.358c.21.396.212 2.616-.522 1.994-.187-.158-.22-1.084-.172-1.35.078-.466.133-.755.694-.644m1.242.763c-.004.333-.008.666-.01 1-.305-.29-.398-.76.01-1m-34.007.393c.05.25-.13.88-.504.496-.377-.385.255-.55.503-.496m31.475 2.58c.555-.303.708-.685 1.155-.023.324.48.672.997.79 1.58.268 1.338.263 2.603.247 3.967-.59-.364-.877-1.365-.98-2.01-.512.945-.58 2.2-.782 3.24-.758-.21-1.236-1.21-1.732-1.767.11 1.08-1.205.552-1.758.704-1.127.31-1.184.915-1.453 1.984-.145.575-.678.26-.737-.22-.068-.56.06-.82.368-1.267.334-.49.525-.81 1.02-1.116.394-.238.806-.46 1.068-.85-.954.405-1.997 1.324-3.016 1.468.008-.684-.12-1.71.393-2.246.495-.517 1.64-.618 2.28-.765.742-.172 1.365-.55 2.135-.556.87-.005 1.703.35 1.716 1.386.576-1.147-.356-2.126-.213-3.253-.112.208-.19 1.186-.264 1.248-.215.182-1.438.048-1.807.103-1.082.16-2.09.57-3.136.86-2.303.637-2.047 3.95-1.74 5.768.365 2.14.105 4.277.4 6.4.052.387-.2 1.15-.49 1.412-.532.478-.967.196-1.567-.015-.537-.19-.945-.44-1.43-.748-.336-.216-.95-.04-1.33.04l-.297.062c.13-.426.18-1.12.565-1.375.48-.316 1.093.254.958-.61-1.29-.024-2.074 1.016-3.266 1.315-1.158.292-2.488.683-3.245 1.72l-1.328 1.817c-.45.614-.907.817-1.584 1.134-1.32.618-2.047-1.454-3.125-1.617-.02 2.068 1.193 4.263 3.512 4.287 1.127.012 2.106-.246 3.2-.43.418-.07.994-.025 1.36-.247.533-.32 1.058-.646 1.607-.936.848-.45 2.03-.137 2.98-.238 1.05-.112 2.138-.03 3.193-.018 1.257.015 2.107.35 3.14 1.037.395.263.643.715.987 1.042.378.36.81.704.962 1.225.29-.476.877-.342.748.258.332-.09.66-.19 1.002-.24-.037.158.032.34-.005.5.453-.115.878 0 1.248.263-.06-.344.068-.94.44-.56.208.212.368.58.427.868.156.763.394 1.466.605 2.208.274-.47.72-1.345 1.268-1.487-.05.542-.102.993.156 1.5.218.43.626.76.86 1.186.31.576.07.86-.212 1.425-.254.51-.364 1.037-.582 1.564-.25.603-.7.64-1.282.835-.465.155-.818-.31-1-.726-.482-1.097-.51-2.17-.217-3.307.737.684.836 1.51.836 2.466 0 .368.184.75.305 1.095.098.28.197.202.492.206.168.002.198-.48.233-.622.494-1.995-2.063-2.99-2.6-4.653-.424.78-.332 1.882-.53 2.745.25.04.505.048.75.008 0 .333-.005.666-.01 1-.356-.05-.573-.403-.49-.755-.298.544-.263 1.145-.27 1.747-.505-.317-.835-1.45-.727-2.008-.608 1.283.238 2.064.465 3.255-1.29-.046-2.316-1.855-2.218-3.023-1.067 1.927 1.447 3.398 1.445 5.265-.65-.16-1.047-1.075-1.35-1.603-.44-.764-.97-1.534-1.107-2.424-.59 1.07.627 2.378.996 3.34.242.633.362 1.592-.16 2.102-.404.397-1.62.73-1.31-.187.224-.66.388-1.276-.21-1.704-.667-.476-1.072-.817-1.308-1.627-.21-.716-.27-1.383-.28-2.124-.01-.583-.314-1.267-.208-1.826-.266.49-.137 1.15-.118 1.684.026.67-.244 1.36-.408 2.006-.328 1.306.242 2.64.698 3.813-1.407.688-2.33-1.03-2.102-2.22.295-1.554.65-2.973.422-4.55-.36.67-.3 1.543-.512 2.266-.265.91-.54 1.856-.932 2.72-.79 1.737-2.908 2.42-4.636 2.702.32-.64 1.078-.708 1.66-.987.822-.392 1.314-.872 1.732-1.727.725-1.482 1.366-2.82 1.434-4.485-.277.41-.23.938-.453 1.37-.352.686-.81.408-1.06-.136-.35 1.203-1.348 1.975-2.28 2.727.793.095 1.478-.374 2.25.022-.148.414-.412.86-.77 1.122-.548.4-1.248.52-1.777.906-.57.416-1.2.738-1.54 1.36-.286.52-.212 1.25-.218 1.817.74-.156.99-1.137 1.803-.962.2.043.375.904.26 1.083-.272.417-.707.444-1.176.592-.953.3-1.54-.608-1.88-1.313-.378-.79-.075-1.565-.22-2.385-.12-.683-1.354-1.138-1.275-1.877.106-.998.125-1.925.533-2.842.344-.778.457-1.693.69-2.516.226-.806.63-1.505.896-2.284-1.01 1.106-1.235 2.42-1.728 3.792-.492 1.376-1.916 1.926-2.594 3.163.452-.362.9-.727 1.508-.734-.015 1.553.786 2.25 1.464 3.515-.897.43-2.233-.588-2.235-1.524-.502.956.28 1.72.724 2.508-1.19-.234-1.325-.216-1.69-1.376-.226-.716.053-1.686.228-2.39-.39.383-.77.733-1.26.987-.177-.886.66-1.978 1.03-2.74-1.03 1.063-1.854 2.715-1.795 4.232-2.275-.103-1.105-3.32-.703-4.508-.522.568-.91 1.17-1.252 1.86-.154.314-.418.826-.81.875-.325.04-.818-.312-.794-.643.024-.34-.068-1.04.098-1.333.195-.35.884-.69 1.2-.934.595-.465 1.204-1.053 1.328-1.83-1.022 1.413-2.345 1.726-4.018 1.71.252-.432.758-.59 1.2-.748.645-.23 1.07-.513 1.568-.974-.64.222-1.418.654-2.103.39-.454-.176-.4-.22-.258-.665.107-.34.258-.66.373-.997-.754.593-2.082 1.35-2.822.488-.55-.642-.47-.782.175-1.322.444-.372 1.054-.58 1.57-.84 1.164-.58 1.888-1.207 2.774-2.14.648-.682.316-2.335.127-3.166-.194.783.004 2.766-1.03 2.99.01-.588-.13-1.18-.233-1.753-.475.882-.243 2.76-1.532 2.982-.064-.906.026-1.86-.723-2.507-.014 1.116.12 2.634-1.035 3.24.007-.775-.157-1.572-.213-2.345-.06-.856.708-1.416 1.234-1.972.504-.53 1.182-.89 1.633-1.47.577-.74.854-1.288 1.18-2.174-.658.847-.948 1.605-1.902 2.23-.95.622-1.88 1.48-2.894 1.97-.51-1.16.306-2.367 1.316-3.01.592-.376 1.1-.74 1.625-1.204.503-.443 1.023-.708 1.606-.238.016-.778-.185-1.57-.373-2.32-.214-.865-.794-1.65-.976-2.488-.39-1.808-.806-3.528-.802-5.388.003-1.792-.46-3.465-.922-5.178-.064-.236-.356-.943-.252-1.163.246-.517.776-.21.995.094.585.81 1.305.792 2.244.94-.148-.773-1.222-2.104-.313-2.793.817-.617 2.162-.705 3.158-.89 2.092-.387 4.186-.943 6.33-.964 4.397-.042 9.02-.294 13.227 1.182.586.205 1.286.506 1.373 1.214m-25.75-.02c.28.418.72.975.483 1.504-.462-.27-.853-1.032-.483-1.505m-2.005.478c.244 1.395.46 2.8.662 4.2.098.67.06 1.38.137 2.058.1.87-.06 1.336-.634 1.994.323-.158 1.003-.487.875.22-.08.444-.21.75-.623.984-.432.245-.842.434-1.358.394-.745-.057-.724-.237-.402-.864-.814.005-1.933-.067-2.546.604-.5.547-.767 1.874-1.483 2.104.01-1.036.056-2.125.896-2.87.455-.405 2.818-.76 2.742-1.635-.088-1.02-.315-1.988-.56-2.983-.28-1.15-.253-2.08.033-3.23.63.667.56 2.002.85 2.853.32.944.83 1.934.342 2.91 1.285-.69.89-2.176.488-3.265-.354-.96-.996-3.19.582-3.474m4.7 4.8c.395-.404.648-.93 1.046-1.348.514-.54 1.03-.774 1.7-1.11 1.172-.585 2.642-.59 3.91-.382 1.332.218 2.62.31 3.96.438.82.076 1.058.085 1.677.63.428.378.883 1.048 1.465 1.165l-.393-1.1c-.084-.233.05-.746-.086-.904-.038-.045-.8-.128-.938-.177-.41-.147-.762-.275-1.19-.362-1.38-.28-2.734-.034-4.116-.027-1.455.007-2.69-.466-4.13.095-1.252.488-3.075 1.485-2.905 3.082m-7.713-3.33c-.01.944-.04 1.792.212 2.71.218.804.902 2.216.476 3.047-.88-.532-1.153-1.894-1.33-2.82-.123-.64-.408-3.205.64-2.938m8.94 5.844c.698.58 1.238 1.132 1.82 1.83.405.487 1.24 1.04 1.9.96-.39-.69-1.683-1.377-1.476-2.267 1.663 1.522 4.325 1.252 6.247.316.537-.262 1.068-.43 1.654-.542.464-.087 1-.485.362-.813-.59-.302-.84-.352-.515-1.022.283-.58.496-.977 1.04-1.347-.302-.41-1.575-.368-1.99-.146-.294.156-.09.638-.42.608-.42-.038-.79-.088-1.2-.017-1.627.28-3.087.783-4.658 1.22.566-1.048 2.35-1.95 3.52-1.964-.737-.7-2.594.405-3.255.83-.875.564-2.802 1.23-3.03 2.354m7.775-2.168c-.006.416-.01.833-.014 1.25-.73-.136-.908-1.487.014-1.25m15.746.415c1.16 1.594 3.217 2.313 3.838 4.29.295.942.332 1.986.402 2.962.065.907.746 1.7.906 2.55-1.476.22-2.69-2.563-2.46-3.775-.676 1.317.652 2.963 1.437 3.865.956 1.102 2.646.552 3.77.19.64 1.277-1.76 1.714-2.517 1.723-1.262.016-2.514-.538-3.168-1.66-.36-.62-.63-1.19-.89-1.862-.202-.53-.102-1.116-.155-1.677-.068-.725-.213-1.19-.547-1.85-.287-.564-.734-1.086-.648-1.757.756.007 1.363.68 1.988 1.02-.605-.873-3.072-2.772-1.957-4.02m-5.002.198c.057.41.184.747.39 1.103.274.475.708.278 1.153.2.326-.06.563-.326.86-.418.495-.156.394.212.687.565 1.123 1.345 1.123 2.872 1.068 4.57-.025.815-.646 4.436-1.97 3.947-1.407-.52-2.584-1.81-4.02-2.237l.49 1.005c-1.777.063-1.2-4.917-1.187-6.012.588.09 1.117.857 1.486 1.265-.07-.455-.32-1.047-.233-1.502 1.125.194 2.107.293 3.248.285-.326-.178-.653-.178-1.002-.26-.608-.143-.78-.278-1.158-.748-.362-.454-.975-1.993.19-1.763m1.745.268c-.19.277-.455.37-.754.493 0-.128-.074-.672.008-.75.19-.184.647.086.746.257m-11.248-.118c.6 1.182-1.06 1.96-1.957 2.072-1.215.15-2.055-1.035-2.043-2.113.713.012 1.62.802 2.207 1.15.4.236 1.468-.896 1.792-1.11m-4.51.954c.13.43.343.83.486 1.255-.504.25-1.284.068-1.576-.43-.45-.764.48-.81 1.09-.825m15.987 1.168c.317.462.24.968.233 1.502.56-.274.85-.923 1.016-1.49-.408-.205-.828-.1-1.25-.012M85.846 33.65c.815-.145 1.356-1.263 2.018-1.73-1.198-.748-1.684.886-2.018 1.73m-13.25-.14c-.08.987-.48 1.94-1.524 2.235.614.405 1.336.035 2 .02.018 1.245-1.24 1.94-2.162 2.52-.743.466-1.83 1.637-2.73 1.68-.706.033-.36-.617-.08-1.005.392-.548.83-.71 1.438-1.026.886-.46 1.82-.876 2.775-1.177-.773-.3-1.896.27-2.617.52-.734.256-1.217.852-1.9 1.183.118-1.266.414-2.052 1.28-2.986-.43.13-.83.343-1.255.486-.356-1.4.632-1.65 1.82-1.705 1.047-.05 1.96-.46 2.957-.745m28.967 3.304c.45 2.686 2.545 3.865 4.697 5.05-.544.557-1.327.226-1.98.094-.665-.135-1.232-1.043-1.69-1.513-.786-.808-1.967-2.482-1.026-3.63m-39.788 3.332c-.005-.575-.24-1.09-.244-1.682-.002-.34.944-1.08 1.276-1.208.845-.325 2.508-1 3.383-.44.397.252 1.226.725.427 1.1-.51.24-1.02 0-1.525.205-.597.24-1.312.402-1.784.85-.42.396-.93 1.062-1.532 1.175m12.535-3.12c.728 1.105.22 2.59-.74 3.392-.81.68-2.2 1.818-3.314 1.816.038-1.27 1.34-2.003 2.218-2.71.422-.34.713-1.046.912-1.542.203-.504.26-1.087.925-.956m3.246.535c-.015 1.342.968 2.02 1.717 3.018.477-.574.02-1.796.027-2.5-.44.116-.81.392-1.256.488-.038-.35-.213-.776-.488-1.005m23.246.493c.233.454.328.974.52 1.448.295.735.648 1.253 1.117 1.897.485.667 2.438 1.88 3.31 1.708-.823 1.295-3.08-.324-3.74-1.04-.735-.792-2.067-2.965-1.208-4.012m1.194 5.263c-.043 1.17-1.352 1.83-2.393 1.774-1.213-.066-2.062-.69-2.71-1.68-.247-.376-.458-1.03-.837-1.262-.406-.25-1.02-.272-1.478-.4-.725-.203-1.05-.178-1.78-.015-.535.118-.87-.274-1.027-.776-.265.306-.624.79-1.026.927-.15.05-.438.12-.557-.007-.29-.312-.23-.02-.572.073-.735.2-2.1-.224-2.344-1.038-.49.298-1.407.838-1.247-.264-.32.313-.643.625-.965.937-.252.244-.328.634-.523.926-.55.824-1.054 1.336-2.048 1.574-1.3.312-4.19.437-4.234-1.517 1.03.277 2.026.544 2.84-.294.803-.826 1.448-1.852 2.257-2.647.7-.69 1.796-1.377 2.827-1.2.592.1 1.053.153 1.57.45.458.266.91.525 1.413.688.486.156.96.087 1.45.184.58.113 1.044.258 1.612.086.985-.3 2.123-.96 3.137-1.008.456-.022.972-.107 1.33.23.374.35 1.095.794 1.317 1.253.553 1.144 1.034 2.01 1.903 2.937.562.6 1.433.285 2.086.07M66.042 38.69c-.42.59-1.832.793-2.508.724.485-.83 1.7-.662 2.508-.724m34.24 1.11c.257.844 1.223 1.854.72 2.756-.795-.41-1.315-2.028-.72-2.757m-34.006.394c-.42.34-1.048.41-1.548.585-.625.218-1.303.544-1.963.628.276-1.404 2.492-1.408 3.51-1.214m46.918 8.242c.008-.743-.01-1.436-.094-2.173-.056-.48-.573-1.304-1.052-1.436l-2.29-.632c-.43-.12-1.305.375-1.776.436.684.366 1.43-.124 2.107.086.68.21 1.952.336 2.13 1.21-1.37-.474-2.738-.74-4.154-.22-.563.208-1.55.72-2.145.65-.81-.1-1.438-.284-2.2-.52.498-.41 1.377-.628 2.008-.728-.705-.37-1.53-.386-2.242-.774.357-.31.865-.143 1.295-.202.65-.09 1.243-.2 1.868-.4 1.334-.427 2.54-.61 3.943-.54 1.064.05 2.427.892 2.906 1.837.457.907.923 2.834-.303 3.406m-58.26.64c1.453.784 2.814-2.43 3.037-3.468-.498.102-.88.416-1.258.737.14-.776 1.094-1.666 1.79-1.932.577-.22 1.07-.39 1.675-.49.586-.095 1.166.263 1.066-.53-1.52-.015-3.326.037-4.375 1.3-.577.695-.986 1.244-1.13 2.16-.14.882-.418 1.443-.805 2.223M93.49 43.98c-.407 1.668-1.87 1.085-3.205 1.317-1.387.24-2.782.515-3.3-1.135-.657.683.268 1.412.702 1.858.19.193.975.15 1.242.185.382.05.61.283.92.512.52.38-.833 1.423-.987 1.647-.465.68-.86 1.244-.442 2.063.3-.36.466-.84.736-1.235.36-.53.927-.608 1.513-.672 1.16-.13 1.958.362 3.013.712-.236-.552-1.162-1.736-.838-2.344.49-.92 1.16-1.826 1.145-2.903-.157-.002-.35-.04-.5-.006m-24.01.75c-.717 1.17-2.584 1.352-3.77 1.815-.69.27-1.387.61-2.01 1.008-.46.294-.953.76-1.51.85.07-1.438 1.9-2.465 3.155-2.7 1.355-.254 2.76-.945 4.134-.974m8.244.584c-.008.637-.385 1.4-.27 1.998.513-.354.677-1.515.27-1.998m34.48 2.112c-.78-.172-1.435-.57-2.265-.467-.898.11-1.792.238-2.68.402-1.464.272-3.73.232-4.542-1.286 1.668.587 3.313 1.08 5.055.545 1.36-.416 3.975-1.38 4.432.806M69.97 45.733c-.055 1.477-1.922 1.908-3.078 2.13-1.307.25-2.428 1.1-3.71 1.3.424-1.43 1.953-1.662 3.236-1.91 1.306-.254 2.298-1.265 3.552-1.52m20.746.468c.463.352.4 1.163-.263 1.248.004-.474-.016-.853.263-1.247m1.246.264l-.007.75c-.205-.23-.184-.52.007-.75m-13.5.108c-.172.494-.438.975-.518 1.495.632-.13.817-.987 1.016-1.49-.162 0-.338-.023-.5-.005m17.25.18l.49 1.006c.27-.37-.08-.915-.49-1.005m-25.507.483c.77 1.514-1.786 2.31-2.776 2.47-.792.13-1.41.225-2.13.603-.848.442-1.42.51-2.382.6.528-1.022 2.02-2.102 3.18-2.155.76-.035 1.615-.03 2.343-.277.725-.245 1.155-.835 1.765-1.242m40.982 1.93c-.764-.967-2.482-.118-3.47.13-1.022.26-2.735.456-3.022-.95 1.045.012 1.97-.04 2.984-.294.83-.208 2.217-.51 3.02-.226.27.095 1.037.448 1.097.716.16.73.428 1.003-.185 1.45-1.185.862-1.68-.867-.425-.827m-49.734-1.77c.03.538-.016 1.136.127 1.657.16.585.38 1.205.1 1.79-.55 1.137-1.313 1.866-2.61 1.945-1.325.08-2.465.003-3.763-.232-1.035-.187-2.157.61-3.165.742.455-2.463 3.83-.59 5.03-1.944.675-.76 1.454-1.484 1.985-2.352.573-.935 1.108-1.65 2.296-1.605m21.25.222c.003.634-.236 1.39-.02 2 .58-.462.622-1.528.02-2m.75.008l-.023 2.25c.526-.505.653-1.778.023-2.25m11.747.373c-.043.51.12 1.01.234 1.502.36-.43.16-1.16-.233-1.502m24.94 5.76c.872-.437 1.648.836 1.18 1.566-.483.754-1.34 1.216-2.21 1.425.12-.586.668-1.03 1.016-1.49-.717.5-1.93.922-2.756.47.422-.556 1.4-.742 2.01-.98-.667-.218-1.348.235-2-.02.298-.484.806-.772 1.123-1.238.382-.562.658-1.31.662-1.993-.41.756-.715 1.568-1.522 1.983.254-.825.422-1.314.338-2.202-.088-.945-1.22-1.277-1.922-1.52-.806-.28-1.597.132-2.38.304-.18.04-1.003.284-1 .015.003-.388.156-.768.263-1.146 1.587.607 3.575-.713 5.104.165.727.416 1.834.872 2.065 1.793.263 1.053.302 1.807.028 2.866m-10.957-4.116c-.09.438-.32.846-.513 1.245.913-.168 1.733-.104 2.243.773-.682.155-1.303.2-2.002.23 2.033 1.607 4.51-1.752 6.71-1.634.717.038 1.15.385 1.77.753.09.054-.074 1.53-.193 1.578-.48.2-1.188.59-1.672.15-.45-.41-.166-1.132.14-1.528-.906-.01-1.626.33-2.503.474.306.185.652.204.996.26-.123.55-.504 1.005-.766 1.492.166-.27.46-.3.754-.242.022.88-1.22 1.126-1.89 1.25-.887.166-1.567.1-2.372-.294.387-.333.948-.392 1.366-.685.582-.41 1.138-.796 1.656-1.283-1.455.384-2.953 1.42-4.543.775-.995-.406-1.59-.71-2.302-1.515-.476-.538-1.46-.832-1.63-1.6.853.262 1.55.43 2.46.522.71.073 1.578-.613 2.293-.723m-48.502-.008c-.185.534-.534.99-.852 1.45-.305.443-.805.718-.927 1.282.882-.2 3.04-1.807 1.778-2.732m9.247.347c.174.906.763 2.15 1.667 2.497.492.188 1.007.305 1.49.51.278.12-.6 1.152-.702 1.27.537.076 1.355.204 1.744.622.464.5.053 1.382.412 1.938.407.63.638.994 1.346 1.298.806.346 1.25.692 1.904 1.284.492.444 1 .533 1.61.744.557.193 1.414.885 1.957.854.698-.04 1.406-.123 2.104-.123.255 0 .34 1.445.335 1.752-1.03-.012-2.06-.023-3.092-.033-.864-.01-1.8-.32-2.652-.464-1.03-.175-1.852-.343-2.767-.867-.73-.42-1.08-1.674-1.515-2.368-1.082-1.722-2.135-3.453-3.313-5.114-.54-.76-1.158-1.512-1.64-2.308-.188-.31-.572-.906-.192-1.123.406-.234.84-.305 1.305-.37m16.49.923c-.28.365-.488.775-.51 1.245.37-.268.63-.823.51-1.244m19.235 1.7c.02.34-.14.698-.508.746.127-.296.227-.56.508-.745m-49.514.982c-.63 1.027-2.076 1.256-3.166 1.48-1.3.27-2.575.615-3.86.946.065-1.61 2.137-1.934 3.373-1.95.662-.01 1.504.052 2.13-.146.482-.152 1.086-1.086 1.523-.33m59.496.622c.18.31.192.656.24 1.003-.408-.116-.82-.245-1.247-.263.123-.493.578-.615 1.007-.74m-93.754.018c1.496.224 2.213 3.01 2.57 4.18.182.594-.468 1.78-.638 2.34-.18.584-.29 2.032-.963 2.283-.79.293-1.2-1.385-1.416-1.85-.368-.8-.937-1.537-1.25-2.345-.536-1.374 1.26-3.3 1.698-4.608m79.493 1.083c1.706 1.197-.052 2.907-.886 4.132-.983 1.44-2.45 2.083-4.178 2.065.012-.83.807-.88 1.412-1.18.235-.115.737-.24.854-.482l.695-1.442c.12-.25.29-.49.3-.768.016-.452-.183-1.096.337-1.09.79.008 1.05-.737 1.467-1.235M57.943 72.11c-.375.464-.554.94-.765 1.49-.968-.71-.722-2.748-.71-3.776.014-1.492.177-3.015.095-4.5-.08-1.397.06-2.9-.488-4.22-.307-.742-.612-1.417-1.014-2.11-.35-.6-.835-1.232-.96-1.926.557-.093.913-.198 1.44-.012.62.22 1.077.455 1.638.805.96.602 1.836 1.27 2.673 2.034 1.698 1.547 3.185 3.072 4.536 4.942.687.95 1.45 1.713.92 2.905-.42.95-1.1 1.762-1.457 2.747-.755 2.072-1.245 4.08-1.216 6.296.054 4.297 1.248 8.954 3.853 12.462 1.223 1.645 2.89 3.476 4.604 4.61 1.003.664 2.05 1.146 3.17 1.578 1 .385 2.07.506 3.087.84 1.097.358 1.256 1.873-.252 1.607-1.117-.196-2.223-.686-3.3-1.04-2.114-.696-4.137-1.78-6.143-2.736-1.94-.924-4-1.884-5.715-3.176-1.026-.773-1.71-1.24-2.08-2.502-.306-1.06-.64-2.13-.866-3.212-.423-2.023-.886-4.266-.872-6.332.016-2.22.268-4.59-.176-6.773m36.66-14.868c.536.125 1.25.658 1.235 1.263-.648.1-1.685-.55-1.236-1.263M37.61 79.896c-1.26.79-1.43 3.176-3.037 3.47-.21-1.962.297-4.565 1.338-6.278.548-.9 1.018-1.88 1.655-2.716.704-.922 1.387-1.835 2.01-2.814 1.227-1.93 2.245-3.974 3.167-6.066.93-2.113 2.197-3.926 3.72-5.647.634-.717 1.502-1.54 2.408-1.9.893-.354 2.203-1.004 3.205-.594 1.355.554-.286 1.98-.834 2.544-.712.733-1.403 1.485-1.977 2.335-1.252 1.856-2.626 3.576-3.822 5.476-1.177 1.872-2.224 3.88-3.248 5.84-2.084 3.986-3.495 8.302-5.19 12.455-.794 1.948-1.595 3.983-2.158 6.007-.273.98-.33 2.294-1.003 3.076-.546.64-2.35.138-3.066.093-1.816-.115-1.03-2.536-.67-3.668.46-1.45 1.208-2.747 2.217-3.885 1.096-1.234 2.21-2.45 3.318-3.673.833-.92 1.974-2.773 1.97-4.054m56.21-19.662c-.098.61-.695.933-1.166 1.235-.342.218-.78.79-1.195.84-.633.074-1.272.188-1.913.13-.222-.02-.45-.034-.66-.122-.433-.18-.273-.198-.256-.63.032-.79.018-1.122.57-1.69.323-.333.887-.607 1.325-.74 1.025-.31 2.348.5 3.295.976M47.683 73c-.95.036-3.653.07-4.07 1.12-.264.672.202 1.606.396 2.232.216.706.34 1.382.365 2.115-1.325.043-2.475.543-3.758.71 1.45-4.187 3.608-8.248 5.978-11.988 1.213-1.914 2.453-3.72 3.875-5.487.656-.817 1.6-1.508 2.326-2.28.88-.94 1.96.163 2.203 1.06.23.852.515 1.56-.456 1.905-.806.287-1.558-.123-2.376.08-1.93.478-.487 3.026-.976 4.32-.463 1.233-4.156.525-4.24 1.55-.076.92.027 1.433.25 2.315.19.753.474 1.566.48 2.348M95.83 59.256c-.006 1.077-.594 2.557-1.78 2.73.08-.583.34-1.136.45-1.716.074-.406-.075-.752.37-.83.32-.055.637-.135.96-.185m-79.265.92c.448.4.627.917.864 1.455.164.373.788 1.256 1.147 1.434 1.056.522 2.51 1.19 3.733 1.037 1.396-.176 2.552-.413 3.726-1.24 1.115-.784 1.524-1.87 2.033-3.065 1.63.52.327 3.75-.446 4.464-1.328 1.224-3.33 1.246-5.008 1.633-1.896.437-3.493-.35-5.09-1.23-1.254-.693-1.603-3.315-.96-4.488m81.984 1.86c-.004 2.314-3.04 2.44-4.777 2.634-.97.107-1.94.126-2.91.24-1.13.132-2.205.27-3.346.258l-7.096-.074c-1.046-.01-1.858-.075-2.864-.356-.872-.244-1.99-1.162-1.762-2.193 1.852.102 3.703.45 5.55.638.955.097 1.906.19 2.866.212 1.012.022 1.954.353 2.95.11.992-.243 1.904-.308 2.923-.305.993.003 1.95-.21 2.942-.205 1.9.006 3.62-.976 5.525-.96m-59.373 35.38c-.29-.09-1.337-.283-1.495-.517-.39-.576.378-.96.684-1.25.916-.86.21-2.162-.152-3.114-.495-1.304.555-1.755 1.532-2.244 1.27-.635 1.31-1.395.872-2.672-.153-.445-.43-.98-.472-1.44-.067-.73.49-.882 1.03-1.206.423-.252.97-.324 1.366-.6.704-.493.637-.822.56-1.594-.072-.676-1.197-2.31-.363-2.82.743-.456 2.6-.594 2.81-1.53.233-1.025-.412-2.1-.48-3.133-.09-1.323 1.615-1.08 2.5-1.32.663-.18.93-.166 1.117-.843.215-.79.187-1.11.025-1.92-.102-.497-.26-.965-.445-1.44-.168-.43-.513-.853.16-.93 1.07-.123 2.107-.293 3.15-.562 1.142-.294.988-1.564.9-2.545-.1-1.074-.26-2.173 1.11-2.167 1.132.005 2.29.053 2.06 1.52-.166 1.082-1.156 1.728-1.84 2.525-.752.874-1.486 1.733-2.18 2.655-1.323 1.76-2.46 3.718-3.583 5.61-1.153 1.946-2.016 4.025-3.093 6.007-1.048 1.93-1.62 4.12-2.466 6.157-.634 1.53-1.27 3.07-1.753 4.658-.475 1.564-.782 3.26-1.553 4.714m57.59-32.15c-.2 1.18-3.51 1.36-4.443 1.467-1.727.2-3.463.463-5.198.394-.787-.03-1.59.03-2.38.015-.797-.015-1.558-.26-2.36-.27-.865-.013-1.7-.016-2.56-.145-.762-.115-1.626-.047-2.322-.412.45-.41 1.47-.234 2.017-.23.963.012 1.924.022 2.887.032 1.516.016 3.155.23 4.655.04 3.22-.407 6.512-.287 9.705-.89m-72.524 1.74c-.632.795-3.15 1.204-3.5-.036 1.167.01 2.334.024 3.5.036m71.483 1.998c-.633 1.983-3.994 1.44-5.557 1.443-1.067 0-2.225.257-3.276.133-1.055-.125-2.14-.17-3.203-.193-1.087-.024-2.158.02-3.226-.19-.438-.087-1.168-.21-1.445-.58-.344-.456.385-1.107.65-1.51.464-.695 1.825 1.594 2.462 1.33.998-.41 1.545-1.7 2.746-.825.35.255.87.696 1.346.664.46-.03 1.135-.62 1.5-.866 1.186-.8 1.66.382 2.695.68.533.154.835.167 1.27-.215.507-.446.862-.66 1.49-.92.314-.133 1.058.66 1.255.844.316.292.897.277 1.29.204M77.703 95.067c-4.16-.044-8.918-2.908-10.922-6.593-1.116-2.053-2.153-4.154-2.75-6.42-.26-1-.566-2.108-.66-3.138-.098-1.096.026-2.27.036-3.37.023-2.07.86-4.338 1.892-6.11.27-.463.578-.63 1.038-.908.505-.303.908.46 1.137.795.755 1.098.477 1.96-.034 3.07-1.956 4.244-1.2 9.01.704 13.117.964 2.082 2.423 4.37 4.402 5.644.996.642 2.053 1.11 3.202 1.404.578.148 1.343.27 1.723.81.318.45.228 1.193.232 1.7m-21.97-26.733c-.013 1.21-.002 2.36-.212 3.548-.202 1.135-1.51 1.56-2.35 2.176-1.75 1.29-3.327 2.936-4.39 4.83-.527.942-1.187 1.866-1.62 2.857-.442 1.01-.667 2.127-.97 3.184-.573 1.992-.925 4.133-.948 6.203-.043 4.118 1.325 7.983 3.58 11.39.513.772 1.077 1.498 1.78 2.105l1.422 1.23c.307.266.758.428 1.016.737.445.53.67.674.63 1.355-.028.492-.162.957-.3 1.43-.283.976-.575 1.945-.85 2.924-.273-.4-.242-.773-.236-1.252-.647.79-1.236 1.748-1.53 2.734-.678-.912.735-2.73.79-3.742-.672.933-1.135 1.658-1.528 2.734-.454-.533.096-1.743.282-2.306.228-.7.48-1.447.515-2.186-.374.562-.654 1.173-1.02 1.74-.62-.66.28-2.18.283-2.998-.422.618-.718 1.785-1.52 1.985.244-.867.357-1.943.778-2.742-.517.285-.753.733-1.013 1.24-.55-.692.245-1.954.28-2.747-.27.405-.49.84-.763 1.242-.337-.418-.24-.998-.234-1.502-.036.034-.758.73-.755.457l.014-1.465c-.224.22-.555.4-.508.744-.333-.13-.235-.59-.205-.89.034-.335-.278-.588-.284-.116-.337-.418-.24-1-.234-1.503-.286.238-.514.463-.758.744-.27-.37-.266-1.058-.234-1.503-.238.2-.438.44-.756.494.004-.417.01-.834.013-1.25-.822.642-2.1-.05-2.55-.886-.225-.415-.66-.904-.582-1.384.095-.593.16-1.198.312-1.78.578-2.21 1.488-4.335 2.17-6.518.668-2.133 1.747-4.143 2.563-6.224.82-2.1 1.894-4.08 2.886-6.104.838-1.71 2.065-3.313 3.112-4.9.517-.78 1.048-1.574 1.696-2.256.595-.627 1.31-1.66 2.227-1.827m54.955 4.826c-.504-.31-3.002-3.57-2.21-3.772.63-.16 1.47 1.394 1.71 1.74.387.553.87 1.366.5 2.033m-88.907-4.31c1.222-.177 1.887.204 2.04 1.444.126 1.042.193 2.076.315 3.117.13 1.12.147 2.234.26 3.348.098 1 .428 2.022.434 3.03.014 2.164.234 4.332.465 6.48.11 1.01.43 2.006.44 3.028.015 1.164.12 2.264.293 3.413.167 1.102.177 2.18.165 3.293-.01 1.018.09 2.21-.347 3.15-.473 1.02-.992 2.076-2.16 2.426-.524.157-2.69.437-3.063-.13-.35-.527-.697-1.053-1.045-1.58-.264-.4-.28-1.003-.37-1.47-.196-1.02-.017-2.23-.007-3.27.024-2.15.54-4.283.785-6.418.19-1.65.352-3.29.563-4.94.097-.75.038-1.545.047-2.304.008-.85.224-1.67.256-2.518.066-1.796-.092-3.645.17-5.422.12-.807.17-1.58.18-2.398.008-.64-.096-1.922.578-2.28m87.89 5.8c-.55-.39-.907-1.025-1.32-1.54-.458-.57-1.132-1.2-1.143-1.985 1.097.008 2.953 2.47 2.464 3.526m-14.717-3.403c.007 1.375-2.276 1.226-3.192 1.216-1.505-.016-3.01-.03-4.514-.047-1.424-.015-2.846-.074-4.27-.09-.635-.006-1.398-.134-2.033-.226-.59-.086-1.247-.31-1.24-1.013 2.42.025 4.816.3 7.222.326l4.276.044c1.264.013 2.493-.182 3.753-.21m-26.01.727c.495 1.005-.294 1.637-.54 2.55-.273 1.01-.507 1.985-.517 3.033-.01.876-.193 1.968.01 2.813.267 1.12.67 2.19 1.048 3.277.614 1.76 1.652 3.548 3.043 4.8.857.77 1.715 1.338 2.745 1.85.742.368 1.83.464 2.257 1.263-.828.443-1.896-.025-2.686-.352-.986-.408-1.918-.886-2.68-1.66-1.47-1.493-2.748-3.402-3.52-5.352-.792-1.997-.995-4.13-.972-6.262.018-1.805-.005-4.898 1.812-5.96m15.49 1.162c-.1.436-.366.777-.58 1.158-.307.55-.763.226-1.228-.06-.484-.298-.863-.555-1.45-.553-.41.003-.94-.085-.993-.588l4.25.044m3.748.29c-.29.497-.874 1.21-1.513 1.234-.638.024-1.232-.776-1.486-1.266 1.034.088 1.943-.198 3 .032m6 .062c-.54.865-1.622 1.177-2-.02.652-.104 1.384-.327 2 .02m-3-.03c-.16.475-.665 1.285-1.263 1.236-.582-.048-1.03-.8-1.236-1.263.833.01 1.667.018 2.5.027m-34.767 1.386c-.872.568-1.79.968-2.585 1.656-.82.71-1.703 1.43-2.375 2.292-1.254 1.605-2.376 3.708-2.87 5.676-.28 1.112-.542 2.216-.735 3.346-.17 1.003.138 1.902.135 2.9-.005 2.18.3 4.528 1.31 6.497.51 1 1 2.026 1.603 2.976.625.985 1.412 1.857 2.138 2.77.532.668 2.08 1.432 1.56 2.565-.46.993-1.988-.318-2.495-.682-3.602-2.58-5.38-7.38-6.173-11.57-.198-1.047-.1-1.795.035-2.84.13-1.026.04-2.053.272-3.066.48-2.087 1.144-4.09 2.02-6.05.828-1.85 2.024-3.596 3.42-5.063.735-.774 1.546-1.518 2.496-2.028 1.06-.57 1.87-.596 2.243.62m14.008-.602c.382 1.26 1.313 2.348 1.902 3.52.665 1.323 1.227 2.712 1.792 4.08.524 1.264.987 2.527 1.397 3.834.403 1.285 1.018 2.77.998 4.13-.894.065-1.984-.443-2.547-1.114-.4-.48-.636-.664-.574-1.294.054-.545.258-.985.1-1.517-.282-.945-1.702.525-2.343.06-.877-.633-1.298-1.686-1.44-2.763-.06-.458.304-.985.48-1.405.1-.245 1.066-.39 1.29-.64.85-.952-1.07-1.713-1.665-2.005-.73-.358-.948-1.965-.91-2.653.044-.844.482-2.248 1.523-2.234m12.734 1.633c.584-.563 1.447-1.42 2.27-.867.357.24.933.715 1.384.49.514-.256 1.03-.475 1.565-.692.25-.102 1.08.396 1.404.487.724.204.707-.084 1.377-.305.637-.21.85-.002 1.474.237.547.21.948.098 1.534.016.046 1.476-1.928 1.48-2.99 1.47-1.678-.02-3.358-.036-5.04-.054-1.367-.014-2.77-.076-4.108-.37-.445-.1-.557-.29-.866-.638-.097-.11.252-.762.41-.778.67-.07 1.274.474 1.586 1.005m-26.25-.275c.54 1.037.035 1.945-.91 2.435-1.044.54-1.84 1.275-2.583 2.17-1.49 1.802-2.24 3.816-2.72 6.08-.45 2.15-.547 4.323-.076 6.466.474 2.147 1.25 4.155 2.413 6.024.565.91 1.37 1.44 2.09 2.185.454.473.792.695.65 1.38-.112.53-.425 1.014-.994.84-2.077-.637-3.214-3.16-4.17-4.944-1.026-1.914-1.48-3.895-1.88-6.007-.43-2.277-.148-4.427.273-6.68.372-1.987 1.42-4.2 2.63-5.804 1.303-1.728 2.978-3.832 5.28-4.148m-34.26.892c-.57 2.186-.432 4.502-.627 6.743-.186 2.133-.566 4.34-1.003 6.434-.44 2.115-.85 4.223-1.194 6.35-.275 1.7.465 5.347 2.815 4.9 2.416-.457 2.58-3.245 2.547-5.224-.037-2.227-.457-4.478-.868-6.667-.39-2.08-.533-4.196-.896-6.278-.168-.97-.297-2.086-.32-3.07-.01-.505-.073-.975-.125-1.477-.042-.404.01-1.17-.213-1.524l-.117-.186m62.99 1.16c.19.416.435.753.74 1.093.402.447.738.154 1.207-.053.957-.424 1.277-1.21 2.343-.403.323.246.88.683 1.31.542.313-.103.79-.88 1-.847.36.057.952.278 1.005.694.047.38.345 1.21-.237 1.34-1.906.427-3.94.56-5.896.398-1-.082-1.95-.248-2.963-.28-.9-.03-2.014-.5-2.018-1.522.273.08.716.317.996.29.3-.026.766-.438 1.026-.587.47-.268.924-.66 1.488-.667m17.74 1.185c.795.035.893.552 1.096 1.212.045.15-1.02 1.21-1.2 1.182-.778-.117-.92-.415-.91-1.16.005-.48.413-1.34 1.013-1.235m-62.76.593c.28.887 1.018 1.89 1.103 2.8.05.55.277 1.102-.203 1.477-.418.326-1.038.378-1.494.632-.61.342-.805.542-1.19 1.133-.228.348.224 1.308.33 1.634.177.534.237 1.014.303 1.577.063.557-.272.842-.806 1.086-.492.223-1.18.398-1.604.73-.61.474-.336 1.06-.203 1.694.07.334.924 2.664.79 2.747-.636.39-2.453 1.442-2.787.28-.23-.794.533-2.332.794-3.09.757-2.193 1.423-4.384 2.274-6.544.435-1.102.923-2.184 1.337-3.294.34-.915.547-2.227 1.357-2.862m52.487 1.55c0 1.027-.583 1.467-1.585 1.58-.914.105-1.834.01-2.76.046-.9.034-1.773-.155-2.67-.195-.605-.03-2.46.194-2.788-.446-.234-.458-.4-.674.116-.936.387-.197.887-.14 1.313-.103.975.087 1.89.235 2.873.245.898.01 1.796.02 2.692.028.942.01 1.864-.2 2.81-.22m11.74 1.123c-.112.534-.696 1.044-1.022 1.456-.342.43-.46 1.234-.643 1.752-.31.877-1.265 2.29-2.172 2.62-.923.34-.834.07-1.04-.834-.12-.53.326-1.435.462-1.928.213-.77.557-2.585 1.41-2.847-.025.51-.21.992-.265 1.496-.063.567-.012 1.18-.018 1.75.467-.714.522-1.704 1.04-2.36.626-.79 1.212-1.118 2.247-1.105m-48.257.495c1.19.676 1.51 1.91 1.564 3.193.026.598-.48 1.124-.812 1.61-.42.616-.518 1.2-.573 1.95-.06.783.213 1.17.573 1.86.336.638.648.84 1.125 1.343.504.53.434 1.063.187 1.74-.18.49-.346 1.192-.95 1.318-.007-.524-.165-1.042-.243-1.557-.14-.923-.264-1.032-1.182-1.164-.455-.065-1.35.557-1.78.743-.156.066-.458.182-.627.187-.508.017-.412-.11-.315-.503.225-.922 1.76-2.347 1.31-3.246-.527-1.05-1.847-1.85-2.075-3.012l3.75.04c-.01-.78-.046-1.532-.11-2.306-.055-.638-.317-1.665.158-2.195m29.993.815c-.272.467-.782 1.107-1.362 1.177-.464.057-.443-.024-.595-.448-.12-.327-.238-.66-.292-1.004.714.016 1.593-.084 2.248.274m2.75.028c-.086.513-.534 1.825-1.053 1.643-.606-.213-1.092-1.06-1.197-1.665.73.152 1.457-.23 2.25.023m3.25.034c-.15.753-.725 1.4-1.418 1.692-.272.115-.965-1.376-1.082-1.718.79-.19 1.69.018 2.5.026m-38.51.597c.25-.078 1.005-.236 1.17.084.215.42.687.986.372 1.466-.697 1.065-1.464-1.033-1.54-1.55m-31.25-.328c.495.932.537 2.097.667 3.132.13 1.046.333 2.088.5 3.13.155.98.438 2.055.453 3.048.01.666.268 2.79-.5 3.202-.543.29-.77-.516-1.185-.647-.4-.126-1.045.193-1.363.45-.943.76-.593-1.805-.518-2.18.413-2.058.743-4.154 1.166-6.2.233-1.125.006-3.02.78-3.935m61.242 1.14c.338.243.795.807 1.242.822.56.02.932-.664 1.49-.62.514.043.874.747 1.383.752.485.005 1.045-.493 1.54-.623.417-.11.91.55 1.304.643.493.117.966-.23 1.43-.356.456-.124.08 2.39.075 2.722-.932-.346-1.674-.78-2.71-.764-.946.014-1.858.558-2.81.637-.636.054-2.422.078-2.75-.638-.28-.612-.715-1.99-.195-2.574M58.78 87.62c.12.772.55 1.442.7 2.207.1.515.282.902.042 1.37-.188.366-.787.18-1.138.17-.713-.022-.957-1.364-.94-1.908.028-.856.256-1.837 1.336-1.84M88.658 99.43c-.08-1.01.593-2.04.8-3.012.22-1.03.37-2.12.198-3.172-.188-1.158-.64-2.15-1.17-3.188-.084-.164-.604-1.056-.404-1.172.4-.234.798-.407 1.257-.507 1.22-.265 2.1-.023 2.728 1.136.553 1.02.9 1.955.992 3.112.043.52.14.96-.037 1.446-.22.61-.428 1.223-.688 1.818-.437 1.002-.673 2.12-1.406 2.953-.595.675-1.423.596-2.272.587m-2.25-.023c-.037-1.603-.264-5.492-2.44-5.777-.12.526-.15 1.072-.21 1.607-.05.477.33 1.105.49 1.55.308.863.992 1.72 1.16 2.608-1.364.076-1.887-.334-2.555-1.49-.59-1.02-.902-2.013-1.12-3.17-.187-.988.093-2.23.427-3.16.414-1.15.83-2.108 2.107-2.55 1.02-.354 2.342-.098 3.065.666.746.788.95 1.963 1.2 2.986.51 2.094-.003 4.626-1.376 6.306-.174.214-.48.374-.748.423M52.246 90.8c.015-.38.214-.902.566-1.106.482-.28.755.087 1.14.362.372.266-.16.804-.397.9-.397.157-.923-.06-1.31-.156m40.944 5.68c.31-1.192 1.02-2.693.923-3.934-.026-.344-.155-.815-.12-1.158.053-.542.12-.4.688-.393.66.006 1.517-.065 2.124.22 1.654.772.56 2.646-.127 3.766-.34.558-.824 1.027-1.416 1.288-.49.215-1.512.123-2.07.21m-9.292 3.904l-.014 1.25c-2.2-.125-4.196-.927-6.298-1.55-2.136-.632-4.226-1.585-6.286-2.435-2.138-.88-4.22-1.94-6.278-2.994-.97-.498-1.878-1.057-2.798-1.642-.39-.246-.93-.47-1.24-.81-.296-.33-.827-1.233.054-.973.816.24 1.628.852 2.358 1.285.94.557 1.884 1.09 2.876 1.55 1.937.893 3.814 1.878 5.788 2.694 3.79 1.568 7.798 2.876 11.838 3.626M60.22 93.27c2.107.263 3.853 1.81 5.758 2.69 2.076.958 4.1 1.98 6.228 2.827 2.122.845 4.255 1.65 6.402 2.425.958.345 2.04.494 3.022.79 1.13.337 2.186.4 2.227 1.806.03 1.054.146 2.34-.217 3.336-.208.568-.417.73-1.073.724-.513-.004-1.08-.195-1.572-.338-2.12-.61-4.234-1.074-6.25-2.006-2.115-.978-4.273-1.85-6.372-2.875-1.942-.95-3.74-2.1-5.593-3.206-1.287-.77-2.408-1.67-3.43-2.763-1.014-1.08.092-2.563.87-3.41m-5.537 3.556c.014-1.325-.077-3.247 1.843-2.747.54.14.385 1.464.05 1.75-.557.47-1.14.905-1.893.996m30.012-.935c.408.36.496.983.484 1.506-.39-.296-.692-1.043-.485-1.505M48.98 116.27c-.52-.005-1 .115-1.503.234.378.36.67.696 1.215.794.12.02.72-.07.777-.024.072.06.133.682.158.794.3 1.308.185 2.137-.113 3.427-.498 2.156-1.168 4.254-1.8 6.373-.607 2.04-1.392 4.025-2.01 6.062-.597 1.97-1.048 4.192-1.974 6.035-.905-.54-1.262-1.773-1.92-2.54-.74-.854-1.46-1.715-2.277-2.5-.676-.65-1.956-1.364-2.288-2.258-.367-.993.06-2.19.03-3.213-.026-1.03-.163-2.035-.153-3.077.013-1.146.113-2.34-.027-3.482-.13-1.062-.164-2.05-.153-3.126.006-.538-.023-1.024.16-1.534.182-.507.93-.666 1.09-1.127.254-.72-1.277-1.094-1.546-1.718-.344-.79-.298-2.01-.45-2.86-.33-1.836-.76-3.607-1.68-5.25-.857-1.533-2.1-2.865-3.476-3.95-.543-.427-1.94-1.147-2.157-1.84-.25-.8.64-1.806 1.272-2.17-.32-.374-.61-.766-.94-1.133-.406-.45-.833-.58-1.415-.74-.8-.22-.29-.797.023-1.125.317-.332 1.05-.34 1.493-.4 2.133-.296 4.34.15 6.367.83 2.1.704 3.79 2.095 5.392 3.573 1.65 1.524 2.717 3.555 3.82 5.488.96 1.675 1.66 3.406 2.39 5.19.655 1.605 1.68 3.495 1.694 5.268M22.684 96.49c.427.612.955 1.118 1.742.77-.038.9-.523 1.5-1 2.233-.565.865-1.637.104-2.246-.21-.27-.137-.378-.628-.472-.91-.06-.182-.04-.358-.037-.55.003-.21.282-.1.44-.186.577-.31.946-1.27 1.575-1.146m35.74 1.125c.877-.383 2.154.9 2.82 1.37.867.618 1.767 1.142 2.657 1.72 1.904 1.233 3.935 2.15 5.917 3.244 1.908 1.05 4.172 1.83 6.22 2.585.992.366 2.027.63 3.033.958 1.055.346 2.2.448 3.24.823.356.128 1.104.408 1.133.83.036.494-.908.687-1.273.628-1.057-.168-2.135-.472-3.15-.806-2.155-.71-4.18-1.582-6.256-2.483-2-.867-4.138-1.746-5.99-2.906-1.956-1.227-3.872-2.528-5.835-3.74-.78-.48-2.295-1.255-2.517-2.225m-.518 1.745c.87.185 1.862.887 2.612 1.37.9.582 1.918 1.072 2.77 1.71.427.32.79.604.783 1.152-.01.613-.153 1.126-.353 1.704-.358 1.035-.674 2.08-1.035 3.115-1.483 4.25-2.7 8.613-4.29 12.826-1.57 4.165-2.686 8.49-4.136 12.694-.698 2.022-1.327 4.08-1.956 6.123-.344 1.12-.682 2.235-1.05 3.346-.327.99-.5 2.054-.896 3.013-.22.537-.353 1.013-.76 1.42-.445.437-.88.84-1.363 1.234-.852.697-1.756 1.385-2.8 1.736-1.034.348-1.94-.396-2.512-1.168-.438-.59-.717-.775-.62-1.492.073-.543.274-1.088.4-1.623.51-2.135 1.3-4.205 1.874-6.322.553-2.03 1.096-4.1 1.76-6.098.73-2.19 1.355-4.406 2.107-6.588.698-2.023 1.434-4.092 1.922-6.174.504-2.148 1.406-4.202 2.126-6.284.7-2.024 1.39-4.065 1.997-6.117.49-1.663 1.17-3.245 1.71-4.887.492-1.496.768-3.403 1.707-4.69m27.296.905c.61-.164.96-.003 1.537.21.46.17.38.845.388 1.25.018 1.02.065 2.12-.064 3.135-.137 1.07-.234 2.065-.246 3.147-.008.808.224 2.287-.584 2.78-.496.306-1.096-.035-1.56-.208-.444-.165-.374-.86-.37-1.25l.033-3.09c.01-1.078.23-2.118.278-3.194.035-.785-.262-2.313.588-2.78m7.695.21c-.39.334-1.098.39-1.305.915-.162.41.485 1.275.278 1.576-.238.346-1.605.233-1.958.23-.743-.008-1.207-.072-1.907-.332-.46-.17-.37-1.246-.365-1.665.002-.19-.1-.78.11-.777.33.003.64-.057.964-.103 1.405-.198 2.803-.154 4.184.157m-64.758.32c-.525.268-1.032-.018-1.496-.264.44-.586 1.288-.45 1.496.265m7.007-.676c-.003.373.036.69.073 1.05.025.257.52.813.687.395.252-.63.083-1.46-.76-1.445m54.735 1.822l.012-1.25c-.43 0-1.475-.08-1.543.534-.028.27.308.697.548.753.336.08.646.013.984-.036m-69.52 1.524c.182.002.592.09.75.008.112-.06.2-.43.375-.542.348-.224 1.164-.196 1.543-.058.434.158.313.207.18.645-.063.207-.116.442-.206.64-.195.427-.21.295-.65.192-.25-.058-.496-.11-.75-.123.377.724 1.03 1.38.726 2.257.526-.12.93-.197 1.44-.007.352.133-.634.855-.96.817-.512-.062-1.066-.366-1.547-.564-.61-.25-1.024-.52-.922-1.266-1.19.13-1.76-.222-2.487-1.152-.322-.41-.572-.775-.817-1.234-.15-.28-.357-1.19-.2-1.45.51-.862 1.392-1.728 2.268-.686.566.674 1.148 1.634 1.258 2.524m16.01-.833c.42.065.74.118 1.158.05.268-.043.63-.842.432-1.022-.775-.704-1.433.11-1.59.972m-3.845 8.96c1.63-.914.55-3.16 1.047-4.49 1.566.896 1.212 3.695 1.197 5.19-.01.852-.013 1.81-.34 2.613-.284.693-.613 1.982-1.46 2.193-.112-.593-.24-1.15-.233-1.753-.287.537-.243 1.177-.434 1.746-.257.765-.644 1.424-1.24 1.943-1.076.935-2.913.973-4.128.313-1.06-.578-.96-2.796-.95-3.867.01-.828.162-1.495.36-2.296.155-.63-.293-1.28-.315-1.91.644.017 1.21.458 1.742.77-.314-1.103-.613-2.21-1.066-3.263-.285-.662-.305-.995-.076-1.684.215-.647.86-.552 1.45-.552-.09-.244-.434-.55-.492-.755-.082-.294.21-.94.263-1.247-.837-.03-1.295.428-1.628 1.135-.158.335-.306.753-.548 1.04-.156.183-.824.74-1.102.54-.11-.077-.27-.836-.33-1.023-.147-.463-.31-.87-.317-1.355-.004-.375.058-.71.13-1.08.094-.492.6-.29 1.056-.285-.008-.555-.18-1.262.432-1.51.976-.396 1.182-.418 2.198-.156 1.527.393 2.53 1.38 3.513 2.54.89 1.04 1.312 2.26 1.685 3.552.366 1.264-.046 2.47-.41 3.653m1.338-8.487c.48.254.967.26 1.497.266.053-1.083-1.307-1.515-1.497-.266m56.995.848c.112.643-.888 1.203-1.204 1.793-.182.335-.344.966-.797.96-.396-.003-1.075.162-1.163-.394-.086-.528-.373-2.1.297-2.33 1.017-.346 1.822-.29 2.867-.03m-54.75-.324c-.038.773-.367 1.54-.203 2.314.188.89.592 1.498 1.41 1.95.135-.38.37-.7.54-1.062.314-.68.28-.8.08-1.526-.168-.603-1.167-1.59-1.827-1.676m38.704 4.656c-.157.973-1.62 1.545-2.372 1.988-.904.533-1.84 1.1-2.668 1.746-1.7 1.327-3.35 2.846-4.723 4.506-2.867 3.465-4.908 7.476-5.804 11.904-.438 2.168-.688 4.274-.712 6.486-.01 1.036-.135 2.133.057 3.153.216 1.14.532 2.315-.46 3.175-1.68 1.457-3.548 2.814-5.362 4.103-.187.133-.962.586-1.162.383-.342-.35-.007-1.038.104-1.5.27-1.114.635-2.198.915-3.312.532-2.11 1.47-4.146 2.18-6.2.708-2.053 1.2-4.167 1.946-6.212.725-1.992 1.197-4.086 1.948-6.076.785-2.08 1.473-4.208 2.083-6.345.555-1.936 1.285-3.838 2.004-5.717.686-1.788 1.166-3.65 1.883-5.432.074-.184.363-1.017.546-.98.464.096.887.273 1.325.452.955.39 1.838 1.006 2.758 1.478.904.465 1.85.857 2.78 1.263.882.385 1.78.97 2.738 1.138m-59.217-3.37c-1.01.735-1.078 1.79-1.65 2.81-.604 1.082-1.344 2.19-1.667 3.405.964.047 1.588-2.06 1.98-2.764.38-.678 1.84-2.697 1.337-3.453m6.95 4.823c-.54 1.69-3.078.25-3.91-.32-.493-.335-.704-1.716-.197-2.103.678-.515 1.73.078 2.343.4.73.382 1.355.84 2.116 1.17.71.307 1.467.068 2.19.41.312.147.413.482.338.822-.093.415-.637.458-.986.582-.847.303-1.443-.397-1.896-.962m66.024-1.808c-.254.5-.483.984-1.014 1.24-.17-.33-.178-.706-.092-1.06.112-.46.065-.448.53-.372.205.034.39.08.576.192m-73.787 2.977c.523-.076.7-.253.946-.688.102-.182.34-.875.072-1.052-.22-.144-.735.237-.813.423-.183.43-.176.848-.207 1.316m12.013-1.126c.05.25-.13.88-.505.496s.258-.55.506-.496m49.99 1.275c-.137.127-.842.652-.77.806.157.348.242.873.743.73.192-.055.766-.686.768-.887.005-.424-.41-.484-.743-.65m-62.75-.16c-.042.343-.147.667-.013 1 .325-.223.5-.605.51-.993-.154-.002-.346-.038-.498-.006m10.473 2.61c-.62.278-1.164.134-1.794.267-.698.15-1.202.546-1.946.63-1.334.153-3.043-.344-3.027-1.876.015-1.46 2.484-.547 3.337-.398.918.158 3.287.15 3.43 1.38m-12.235-1.63c-.81 1.55-.52 3.548-.804 5.243.61-.487.607-1.812.685-2.536.075-.71.59-2.1.12-2.707m1.95 4.77c.53.102.646-.21.932-.577.19-.243.878-.48.796-.784-.212-.784-.842-2.074-.682-2.878-.882.124-1.29 1.137-1.463 1.884-.144.617-.206.82.003 1.406.117.327.332.613.416.95m11.783-3.128c-.47-.11-.893-.22-.992-.76.43.084.937.255.992.76m9.508-.65c.27 1.143.423 2.098.455 3.27.028 1.068-.412 1.8-1.516 1.64-.683-.097-.41-.41-.233-.924.17-.496.33-.99.48-1.494.218-.734.317-1.902.815-2.492m37.236 1.39c-.743.046-1.947.224-1.3 1.157.725 1.04 1.246-.475 1.3-1.156m-26.52 1.722c.19-.02.753-.14.756-.406.003-.253.155-.93-.102-1.09-.2-.122-.725.142-.742.366-.03.395.028.737.09 1.13m-21.004.28c-.886-.142-1.743-.542-2.49-1.027.427-.578 1.374-.562 2.003-.507.78.07.792.937.488 1.533m13.25-.113c.847.167.744-.898.767-1.492-.815.016-1.123.826-.766 1.492m-17.01.822c.09-.544.06-1.173.76-.872.554.24 1.042.738.72 1.344-.525.985-2.443 1.19-3.43 1.096-.44-.04-1.236-.05-1.56-.38-.3-.307-.275-.366-.27-.804.005-.547.003-.52.48-.8 1.144-.67 2.29-.206 3.3.415m17.758-.565c.113.55 1.242 1.46 1.742.77.553-.77-1.328-.98-1.742-.77m5.62.06c-.052.296-.287.815-.01 1.026.22.17 1.044.07 1.15-.176.46-1.052-.274-1.036-1.14-.85m-20.624.208c.515-.09.697.788.205.905-.587.14-.546-.695-.206-.905m22.495.562c-.348 1.39-.5 2.835-.795 4.24.404.006.96-.175 1.054.263.082.382.275.67.684.757.07-.51.357-.92.82-1.153.427-.212.404.06.407-.484.002-.22-.153-.504-.252-.697-.3-.59-.608-1.178-.89-1.776-.25-.526-.325-1.274-1.03-1.15m-8.004.416c-.303.907-.588 1.82-.847 2.74-.042.152-.098.3-.13.454-.1.488.13.194.385.49.308.355.732.54.793 1.07.496-.107.77-.567 1.094-.917.366-.394.507-.516.296-1.1-.202-.554-.384-1.12-.616-1.662-.22-.515-.295-1.195-.976-1.075m28.047 1.044c-.3.158-.536.836-.318 1.127.16.21.993.29 1.196.16.215-.137.484-.942.316-1.155-.217-.272-.873-.128-1.193-.13m-55.552-.583c.13.29.188.598.492.756.006-.53.164-.857-.492-.756m14.25.15c.483.918.478 1.923.468 2.938-.01 1.072.044 2.146-.218 3.19-.093.366-.195 1.124-.473 1.39-.392.373-.884 1.084-1.372 1.308-.403.186-1.127.16-1.574.102-.867-.117-.974-.174-1.57-.805-.756-.8-1.21-1.814-1.318-2.937-.084-.875-.15-2.217.128-3.045.21-.635.27-.96.917-1.248.494-.22 1.103-.314 1.63-.445 1.09-.274 2.23-.232 3.345-.442l.035-.007m7.736 1.333c-.018 1.85.212 3.68.193 5.538-.012 1.08-.024 2.16-.034 3.237-.01.866.135 1.934-.28 2.725-.627-.408-.45-1.64-.475-2.256-.39.715-.088 2.192-1.027 2.49.003-1.71.036-3.412.054-5.125.015-1.38.03-2.762.043-4.145.002-.138-.078-.73.086-.728.553.006.422.082.416.605l-.044 4.05c-.005.522-.136.598.416.604.168.002.087-.838.088-.99l.04-3.71c.006-.627-.1-1.885.523-2.293m2 .02c.656 1.26.118 3.157.26 4.534.183 1.746.156 3.467.138 5.22.34-.644.264-1.437.272-2.144l.03-2.623c.017-1.66-.118-3.367.3-4.976.293.35.224.863.24 1.29.022.7.038 1.39.126 2.088.158 1.258.074 2.543.06 3.81-.013 1.188.25 2.315.138 3.512-.054.57-.187 1.127-.193 1.7 0 .15-.64.193-.75.097-.103-.09.008-.84.01-1-.332.326-.832.86-.918.04-.05-.482-.072-.95-.068-1.445.014-1.2.055-2.404.033-3.605-.02-1.162.012-2.295.04-3.457.02-.823-.274-2.345.283-3.04m39.994.83c-.47.22-1.102 1.064-.785 1.54.51.763.656 1.328 1.646 1.16.383-.067.945-1.3.836-1.638-.112-.342-.088-.588-.436-.69-.42-.124-.84-.248-1.26-.37m-50.75-.194c-.32 1.276-.29 2.535-.234 3.84.052 1.234-1.13 1.957-2.084 2.387.484.865 1.286.17 1.77-.225.705-.576.836-1.027.93-1.93.11-1.044.335-3.186-.383-4.07m9.75.1c.34.658.232 1.526.225 2.24-.01.83-.017 1.662-.026 2.492l-.042 4.02c-.002.187.212 2.635-.52 1.996-.14-.12.012-1.23.014-1.42.005-.45.01-.9.008-1.352 0-.916-.298-1.88-.21-2.787.084-.864.258-1.714.27-2.585.008-.732-.214-1.988.28-2.603m41.325.824c.15.08.716.27.774.417.052.125-.2.69-.326.74-.264.097-1.244-.862-.447-1.157m-44.58-.357c-.02 1.88.212 3.712.192 5.594-.012 1.05-.002 2.106-.033 3.157-.025.8-.036 1.97-.777 2.493-.402-.81-.232-1.823-.222-2.698.006-.437.186-.867.218-1.302.036-.524-.037-1.05.002-1.574.076-1.06.084-2.117.094-3.177.01-.78-.077-1.893.527-2.494m-1.51.983c.376.725.26 1.73.317 2.523.073 1.016.185 2.04.116 3.06-.068.99-.262 1.944-.272 2.942-.01.866.137 1.934-.278 2.725-.464-.576-.38-1.795-.42-2.506-.055-.95.006-1.87.033-2.818.03-1.02.213-2.023.225-3.04.007-.784-.25-2.227.28-2.887m-1.003.24c.39.746.232 1.766.224 2.578-.01 1.074-.01 2.146-.034 3.218-.046 2.082-.293 4.127-.314 6.203-.443-.55-.48-1.942-.473-2.628l.036-3.562c.01-1.006-.035-2.006.16-2.994.16-.828-.146-2.133.4-2.813m35.79 1.553c-.51.15-.246.557-.148.928.024.095.316.963.565.472.12-.236.605-.88.454-1.105-.195-.29-.542-.355-.87-.294m-36.808.186l-.05 4.79c-.012 1.092.28 2.426-.037 3.46-.73-.823-.218-3.028-.21-4.026.01-.756.018-1.512.026-2.27.005-.585-.137-1.46.27-1.954m-12.503.12c-.335.42-.457.838-.454 1.372 0 .35.027 1.543.678 1.13.268-.17.363-1.208.417-1.45.09-.41-.31-.872-.64-1.053m28.486 1.55c-.124.507-.27 1.007-.016 1.5.552-.26.77-.92.766-1.493l-.75-.008m27.747.462c.29-.04.378.09.473.332.148.385-.145.46-.442.72-.266.232-.394-.347-.458-.497-.127-.303.184-.375.428-.555m-56.517 1.237c-.122-.382-1.092-1.656-1.512-.855-.134.254.093.854.346.914.437.105.723.03 1.167-.06m1.132-.74c-.463.4.25 1.164.744.782.094-.075.156-.633.07-.717-.163-.152-.598-.063-.815-.065m16.373.422c-.006.5-.012 1-.015 1.5.498-.328.4-1.105.015-1.5m9.49.848c-.007 1.014.995 1.018 1.556.457.835-.834-1.274-.518-1.555-.457m2.748.03c.043.187.114.782.406.784.29.002.915.155 1.09-.132.11-.184-.15-.74-.367-.764-.408-.05-.723.027-1.13.11m-29.5-.057c-.58.862-.848 1.878-1.24 2.83-.247.608-.41.81.114 1.25.192.163.33.303.488.5.342.423.227.413.668.188.394-.203.736-.603 1.135-.832.48-.273.08-.707-.068-1.174-.252-.802-.4-2.216-1.094-2.76m9.965 3.354c-.564-.037-.96.092-1.363.492-.11.11-.276.455-.397.49-.184.05-.61-.275-.746-.376-.49-.372-.734-.715-1.34-.897-.367-.11-.48.067-.468-.455.005-.3.056-.545.127-.84.198-.828 2.084-1.394 2.862-1.082.82.328.876.47 1.288 1.264.242.465.3.92.035 1.404M43.6 128.46c-.423.79-.636 2.03-.84 2.9-.107.453-.462 1.25.077 1.44.465.167.72.767.957 1.163.385-.306.502-.79.848-1.12.15-.145.67-.323.664-.468-.014-.294-.06-.562-.157-.84-.323-.925-.685-2.51-1.55-3.074m-17.253.322c-.012 1.12-.036 2.152-.284 3.246-.33-.408-.24-.965-.235-1.46l.015-1.443c.005-.417.053-.388.504-.343m35.654.623c-.003.414-.008.826-.013 1.24-.002.223.838.186.974.047.072-.074.186-1.072.13-1.156-.177-.278-.853-.348-1.09-.13m-38.408-.154c.227.467.444.887.99 1.01-.06-.556-.556-.775-.99-1.01m45.48 2.227c.277.505.152.98-.016 1.5-.89-.17-.88-1.362.015-1.5M42.438 144.2c-1.175-.657-1.803-2.645-2.518-3.73-.876-1.33-1.953-2.696-3.283-3.59-.7-.47-1.452-.83-2.156-1.288-.572-.375-1.66-1.213-2.317-1.16-.58.047-1.792.832-1.53 1.527.087.226.263 1.085.495 1.154.408.117.723.107 1.133-.02-.165-.11-1.218-.47-1.244-.513-.222-.365.3-1.08.573-1.247.538-.336.857.15 1.3.488.564.432.86.51.584 1.208-.273.69-.244.754-.927.976-.44.14-1.258.612-1.707.442-1.456-.547-1.458-1.344-1.79-2.79-.168-.726.803-2.206 1.378-2.532 1.093-.624 1.96-.776 3.212-.663 2.08.19 4.154 1.277 5.625 2.74 2.105 2.092 5.276 5.97 3.172 9M26.05 133.202c.625.38 1.012.543 1.29 1.215.31.748-.095 1.37-.753 1.59-.658.224-1.46-.333-1.47-.99-.01-.786.457-1.26.934-1.815m35.773 2.2l-.556.962c-.078.133.506.71.742.617.205-.08.483-.812.602-1.013.092-.152-.573-.627-.79-.564m-37.195 14.36c-.57.1-.65-.317-.867-.76-.243-.497-.505-.985-.76-1.477-.534-1.027-.916-2.06-1.536-3.05-.983-1.567-2.772-3.765-4.74-4.046-.022 2.104.29 4.63-.224 6.694-.112.45-1.164 2.75-.792 3.074.898.78 1.855 1.265 2.88 1.857.448.258.71.73 1.026 1.133.117.15-.548 1.13-.74 1.277-.834.647-1.775 1.162-2.713 1.645-.243.125-1.138.492-.993.908.225.65.548.94 1.067 1.385.85.72 1.68 1.455 2.5 2.21.363.335 1.038.79 1.015 1.354-.02.49-.663 1.133-1.017 1.42-.46.37-.95.733-1.445 1.05-.256.165-.443.522-.63.76-.25.32-.152.354.008.743.484 1.174 1.063 2.27 1.494 3.478.41 1.15.515 2.344.724 3.538 1.01-.284 1.69-1.338 2.35-2.073.72-.802 1.162-1.855 1.618-2.82.88-1.863 2.123-3.914 2.147-6.045.55.617.032 2.572-.08 3.328-.17 1.133-.27 2.344-.566 3.45-.308 1.146-.546 2.312-.967 3.42-.236.618-.45 1.245-.73 1.845-.206.448-.664 1.17-.553 1.68 1.327-.374 2.622-.794 4.01-.925 1.53-.145 3.012.2 4.496.514.018-1.17-.507-2.386-.84-3.486-.328-1.072-.515-2.213-.755-3.306-.264-1.202-.452-2.407-.674-3.616-.187-1.015-.714-2.605-.333-3.623.892.22 1.078 1.863 1.32 2.61.32.97.74 1.913 1.1 2.872.597 1.603 1.504 4.906 3.467 5.33-.102-2.11 1.085-4.197 1.51-6.213.21-.99-1.1-1.884-1.67-2.54-.705-.813-1.33-1.658-1.5-2.725-.333-2.1 4.024-2.283 5.085-3.523.456-.533.423-.89-.17-1.322-.41-.3-.854-.538-1.305-.774-1.05-.55-1.985-1.183-2.9-1.933-.514-.422-.858-.713-1.176-1.307-.45-.832.237-1.14.83-1.754.413-.428 1.194-.703 1.73-.95.687-.316 1.318-.738 1.966-1.132.285-.174.363-1.3.367-1.647.008-.76.018-1.52.025-2.277.014-1.353.36-2.84.793-4.117-1.22-.382-2.19.587-3.084 1.268-.793.604-1.735 1.293-2.327 2.1-1.192 1.625-2.618 3.584-3.182 5.54-.813-.526-.346-2.14-.162-2.876.246-.988.435-1.988.732-2.965.35-1.148.68-2.236 1.383-3.222.28-.393.804-.325 1.182-.532.557-.306 1.028-.582 1.512-.992.317-.266.48-.673.782-.962.642-.61.787-.443 1.656-.242.802.186 1.963 1.563 2.447 2.143 1.31 1.56 2.57 3.81 3.118 5.782.613 2.197-.394 4.367-.928 6.49-.533 2.12-1.2 4.193-1.83 6.287-1.232 4.087-2.27 8.245-3.334 12.378-.293 1.135-.56 2.285-.94 3.397-.355 1.023-.6 2.136-1.3 3.004-1.21 1.493-4.336 2.06-6.13 2.042-2.163-.024-4.323-.178-6.247-1.297-.858-.498-2.128-1.037-2.745-1.827-.727-.927-1.45-1.857-2.164-2.798-2.616-3.46-3.93-8.11-3.913-12.407.005-1.1-.217-2.17-.205-3.267.01-1.05.246-2.06.267-3.098.046-2.295.36-4.447 1.048-6.64.643-2.04 1.11-3.934 2.246-5.79.53-.865 1.092-1.77 1.864-2.437.328-.284.793-.78 1.27-.78.58 0 1.065.46 1.49.765.81.58 2.013.703 2.49 1.63.548 1.06.926 2.19 1.33 3.314.56 1.57 1.665 4.243.82 5.854m2.377-12.226c-.748.558-1.9.38-1.742-.768.685.055 1.383.088 1.742.768m1.503-.235c.315.432.667.832.866 1.33.293.73.207 1.02.052 1.8-.198.99-.605 1.94-.888 2.907-.305 1.035-.504 2.057-.716 3.114-.15.755-.075 2.822-1.098 2.96-1.28.17-1.287-1.7-1.476-2.52-.247-1.065-.518-2.102-.89-3.134-.366-1.017-.902-2.008-1.224-3.03-.246-.784-.353-.9.04-1.606.122-.223.67-1.168.93-1.082.78.253 1.56 1.128 2.464.867.925-.267 1.265-1.007 1.94-1.607m34.263 4.11c-.087.177-.565.896-.454 1.04.294.383.446.745.975.532.17-.07.582-.87.53-1.04-.067-.234-.823-.657-1.05-.532m-26.802-.28c-.057 1.08-.276 2.117-.316 3.203-.016.434-.187.86-.23 1.29-.056.548-.014.99-.17 1.52-.263.884-1.78 1.444-2.522 1.894-.89.54-1.56 1.17-2.616 1.27-1.774.165.89-4.643 1.26-5.067.69-.8 1.32-1.743 2.07-2.48.647-.636 1.548-1.616 2.524-1.63m-18.006.56c1.822 1.16 2.957 2.85 4.01 4.71.578 1.027.994 1.992 1.248 3.146.22 1-.705 2.21-1.225 3.06-.247.406-.353.777-.844.41-.383-.287-.734-.615-1.122-.908-.76-.572-2.1-1.14-2.642-1.918-.657-.944-.083-2.15.117-3.22.2-1.075.175-2.097.186-3.18.006-.645-.16-1.565.272-2.1m36.335 15.88c-.028-1.695-1.743-3.423-2.772-4.654-.522-.625-1.227-1.503-.448-2.222.733-.674 1.504-1.3 2.312-1.883-.008.71.06 1.377.097 2.068.037.707-.51 1.203-.468 1.834.053.836.094 1.428 1.06 1.713.685.2 1.345-.144 2.055.1.714.246 1.29.512 2.048.467.76-.045.74-1.07.782-1.58.023-.29-.15-.58-.145-.874.005-.416.1-.65.257-1.043.244-.6.527-1.208.553-1.87.445.476.922.935 1.234 1.513.802-.582-.57-1.94-.936-2.418-.643-.84-1.247-1.7-1.902-2.53-1.447-1.833-3.79 1.005-4.982 1.966-.846.682-1.742 1.292-2.592 1.967-.338.27-.763.694-.625 1.14.164.532.283 1.048.576 1.517.554.89 1.28 1.707 1.94 2.52.618.765 1.105 1.743 1.954 2.27m4.84-8.7c-.946-.14-1.59.01-2.517.248-.693.177-1.51-.672-2.226-.795.15-.815 1.758-2.303 2.636-2.012.816.27 1.885 1.742 2.108 2.56m-4.504.377c.543-.076 1.242 1.274.433 1.442-.086.017-.947-.53-.98-.62-.152-.413.292-.632.547-.822m3.248.284c.71-.057.836 1.26.185 1.44-.332.09-.726-.26-.806-.522-.075-.252.46-.715.622-.918M28.03 159.05c.072-.356-.138-.688-.492-.755.074.498.44.924-.1 1.135-.393.153-.905.145-1.32.076-1.197-.193-2.172-.677-2.945-1.63-1.177-1.454-1.304-4.725.108-6.127 1.686-1.67 3.95-2.17 6.05-1.02 1.925 1.054 2.23 4.003 1.476 5.85-.474 1.16-1.395 2.46-2.776 2.47m26.323-6.835c1.183-.322.423.975.22 1.44-.853-.62-.963-.653-.22-1.44M28.84 153.31c.285.04.507-.124.753-.243.06.133.117.44.226.543.195.18.658.152.453-.12-.317-.427-.66-.868-.67-1.423-.557.086-1.038.693-.762 1.242m28.306-.532l.728.73c.203.2-.187.483-.34.678l-.728-.717c-.203-.202.19-.495.34-.692m-46.297-.408l-.01.75c.21-.225.196-.516.01-.75m25.71 4.02c-.508.827-1.493 1.1-2.333 1.472-1.117.492-1.97.635-3.192.72-.137-.818.505-1.208 1.118-1.527.313-.162.602-.275.938-.387.14-.046.907-.224.97-.304.415-.545-1.016-.926-1.284-1.16-.64-.565-.945-.995-.935-1.864.915.01 1.788.938 2.464 1.444.748.56 1.562.97 2.255 1.605m-17.516 1.316c.537.078 1.082.382 1.588.57.504.185 1.12.158 1.654.215-.02.71-.404 1.53-1.033 1.86-.816.43-1.367-.043-2.077-.53-.462-.32-3.855-2.415-2.905-3.04.766-.502 1.547-.987 2.3-1.51.742-.516 1.242-1.012 2.167-1.033.366-.008.473.71.565.953.142.385-.08.685-.445.894-.665.38-1.643.78-1.813 1.622m7.04-3.676c-.285.554-.044 1.3-.025 1.896.003.133 1.722.127 2.002.125-.112-.7-.246-1.282-.23-2.003-.606.067-1.153.166-1.75-.017m-3.005.47c.385.327 1.075.266 1.253-.238-.42.065-.833.17-1.253.237m5.994.56c.09.333.19.663.242 1.003.38-.086.574-.395.682-.742.18-.577-.65-.706-.923-.26m-18.26 1.06l-.008.75c.21-.225.195-.516.008-.75m13.75.144c.048.346.06.692.238 1.002.3-.365.047-.713-.238-1.002m4.25.045c-.042.282.12.503.242.75-.487.157-.392.585-.262 1 .42-.366.7-.784 1.014-1.24-.315-.202-.616-.454-.994-.51m26.232 1.773c-.17.865.56.755 1.168.763.233.002.783-1.457.842-1.742-.746.107-1.386.594-2.01.98m-44.25-.214l-.074 7c.592-.62.28-2.707.287-3.498.008-.805.36-2.848-.213-3.502m8.865 12.843c-.27-.99-.51-2.084-.998-2.988-.514-.953-1.208-2.09-.14-2.965.864-.705 1.588-1.498 2.295-2.36.62-.755 1.196-2.066 1.99-2.587 1.268-.84 1.47 1.06 1.42 2.004-.05.975-.315 2.148-.67 3.047-.408 1.025-.76 2.164-1.34 3.103-.507.826-1.12 2.23-2.064 2.633-.155.068-.317.113-.493.113m13.258-.61c-1.62-1.007-2.242-3.608-2.736-5.323-.267-.924-.542-1.844-.796-2.772-.107-.39-.268-2.607.598-2.187.966.468 1.28 1.4 1.87 2.27.574.848 1.21 1.657 1.823 2.475.67.89.756 1.582.304 2.627-.407.943-.497 2.05-1.065 2.91m-5.9-9.562c.588.906.427 1.978.533 3.005.103 1.01.232 2.022.39 3.026.174 1.128.348 2.243.604 3.356.174.754.94 2.242.687 2.987-.376 1.087-2.022.306-2.885.49-.53.113-1.056.238-1.594.31-.544.073-1.25.297-1.103-.45.43-2.143 1.147-4.263 1.707-6.38.297-1.12.31-2.283.52-3.416.133-.71.07-3.138 1.14-2.927m17.965 3.44c-.67.093-1.366 1.165-.762 1.69.45.393 1.543-.123 1.998-.43.115.397.193.848.463 1.17.212.255.827.407 1.095.174.587-.51-.43-1.77-.548-2.332.61.01 1.862-.627 1.264-1.37-.64-.798-1.66.01-2.253.36.006-.33-.1-.788-.304-1.05-.237-.3-.85-.654-1.272-.467-.733.328.11 1.77.32 2.254m2.66 8.526c.22-.73.79-1.392 1.19-2.03.23-.366.48-.73.675-1.112.232-.455-.133-.606-.598-.71-1.27-.28-.965 1.013-1.545 1.655-.506.562-.488.696-.496 1.462-.004.408.41.65.774.734m-11.744-.623c.808 1.242.31 4.45-1.547 4.485-.136-.705.417-1.8.63-2.46.22-.67.31-1.562.916-2.025" fill="#000"/></g></svg>