<svg xmlns="http://www.w3.org/2000/svg" viewBox="0 0 167.0893555 242.6665039"><path d="M42.97 191.022l-5.63-3.613 87.09-135.66 5.63 3.615-87.09 135.657z"/><path d="M43.968 184.682c.965.62 1.256 1.89.647 2.836-.608.95-1.884 1.217-2.848.598-.966-.62-1.256-1.89-.648-2.838.607-.947 1.882-1.215 2.848-.596z" fill="#fff"/><path d="M43.222 185.846c.297.19.38.592.183.897-.195.306-.594.398-.892.21-.297-.193-.38-.595-.184-.9.194-.304.594-.398.892-.207z"/><path d="M47.243 179.864c.966.62 1.256 1.888.65 2.838-.61.947-1.885 1.215-2.85.595-.966-.62-1.257-1.888-.648-2.838.608-.948 1.883-1.215 2.848-.596z" fill="#fff"/><path d="M46.497 181.028c.297.19.38.592.184.898-.195.305-.594.397-.892.207-.297-.19-.38-.593-.184-.898.196-.305.596-.4.893-.207z"/><path d="M79.088 129.782c.966.62 1.256 1.89.647 2.838-.607.95-1.882 1.214-2.848.595-.966-.617-1.255-1.888-.648-2.838.607-.947 1.882-1.212 2.848-.595z" fill="#fff"/><path d="M78.343 130.948c.297.19.38.592.183.896-.195.305-.595.4-.892.207-.297-.19-.38-.59-.184-.895.196-.307.594-.4.893-.207z"/><path d="M81.913 125.22c.967.62 1.256 1.89.65 2.837-.61.95-1.885 1.215-2.85.596-.966-.617-1.256-1.89-.648-2.836.608-.95 1.883-1.215 2.848-.596z" fill="#fff"/><path d="M81.167 126.385c.298.19.38.592.185.897-.197.304-.595.398-.893.207-.3-.19-.38-.593-.186-.898.197-.304.596-.398.893-.207z"/><path d="M85.003 120.147c.965.62 1.256 1.89.65 2.838-.61.947-1.886 1.215-2.85.596-.966-.62-1.255-1.89-.648-2.837.608-.947 1.884-1.215 2.848-.596z" fill="#fff"/><path d="M84.257 121.312c.297.19.38.592.184.897-.194.304-.593.396-.89.207-.298-.192-.38-.594-.185-.898.196-.306.595-.4.892-.208z"/><path d="M88.164 115.14c.964.62 1.253 1.89.646 2.838-.607.947-1.883 1.214-2.848.595-.966-.62-1.255-1.888-.648-2.838.607-.947 1.883-1.214 2.85-.595z" fill="#fff"/><path d="M87.417 116.304c.297.19.38.592.184.898-.194.305-.595.398-.892.207-.296-.192-.378-.594-.183-.9.195-.304.594-.397.892-.206z"/><path d="M91.392 110.208c.967.62 1.256 1.89.65 2.837-.61.948-1.884 1.216-2.85.597-.966-.62-1.255-1.89-.648-2.838.608-.95 1.883-1.215 2.848-.596z" fill="#fff"/><path d="M90.646 111.372c.3.19.38.592.186.898-.196.304-.596.397-.893.207-.3-.19-.382-.593-.185-.898.196-.306.594-.4.89-.208z"/><path d="M94.498 105.145c.964.62 1.253 1.89.646 2.836-.607.95-1.883 1.217-2.848.598-.966-.62-1.255-1.89-.648-2.838.607-.948 1.883-1.215 2.85-.595z" fill="#fff"/><path d="M93.75 106.31c.298.19.38.59.185.896-.195.305-.596.398-.893.207-.296-.19-.38-.592-.183-.896.194-.306.593-.4.89-.208z"/><path d="M97.828 100.104c.964.62 1.255 1.89.648 2.837-.61.95-1.885 1.216-2.85.598-.964-.62-1.255-1.89-.646-2.838.607-.95 1.883-1.215 2.848-.596z" fill="#fff"/><path d="M97.082 101.268c.296.19.378.592.183.897-.195.305-.594.398-.892.208-.297-.19-.38-.593-.184-.898.194-.305.595-.398.892-.207z"/><path d="M100.93 95.208c.966.62 1.257 1.89.65 2.837-.61.948-1.885 1.215-2.85.596-.965-.618-1.256-1.89-.648-2.837.61-.948 1.884-1.215 2.85-.595z" fill="#fff"/><path d="M100.185 96.372c.297.19.38.592.184.897-.197.304-.597.397-.894.207-.297-.19-.38-.593-.184-.898.196-.306.596-.4.893-.208z"/><path d="M104.406 89.895c.965.62 1.256 1.89.648 2.837-.61.95-1.885 1.216-2.85.597-.964-.62-1.255-1.89-.646-2.84.608-.947 1.883-1.214 2.848-.595z" fill="#fff"/><path d="M103.66 91.06c.297.19.38.592.183.897-.195.305-.593.397-.892.207-.296-.19-.378-.592-.183-.897.195-.306.596-.398.893-.208z"/><path d="M107.398 85.277c.965.62 1.256 1.89.648 2.837-.61.948-1.884 1.216-2.85.596-.964-.62-1.255-1.89-.646-2.837.608-.948 1.883-1.215 2.848-.596z" fill="#fff"/><path d="M106.652 86.44c.297.192.38.594.183.898-.195.306-.593.4-.892.208-.297-.19-.38-.592-.184-.898.195-.305.595-.398.892-.207z"/><path d="M110.876 79.758c.967.62 1.256 1.89.65 2.838-.61.948-1.884 1.215-2.85.596-.966-.62-1.255-1.89-.647-2.838.606-.948 1.882-1.215 2.846-.596z" fill="#fff"/><path d="M110.132 80.922c.297.19.38.593.184.898-.195.305-.596.398-.893.207-.297-.19-.38-.592-.183-.897.195-.305.594-.398.892-.208z"/><path d="M114.09 74.807c.968.618 1.257 1.89.65 2.837-.608.948-1.883 1.215-2.85.596-.965-.62-1.254-1.89-.646-2.838.607-.947 1.882-1.215 2.847-.595z" fill="#fff"/><path d="M113.345 75.97c.3.19.38.593.186.898-.197.305-.595.398-.892.208-.3-.19-.38-.593-.185-.898.195-.305.595-.398.892-.207z"/><path d="M117.433 69.985c.965.62 1.256 1.89.65 2.838-.61.948-1.886 1.215-2.85.596-.966-.62-1.257-1.89-.648-2.838.608-.95 1.883-1.215 2.848-.597z" fill="#fff"/><path d="M116.687 71.15c.297.19.38.592.184.897-.195.305-.593.398-.892.207-.297-.19-.38-.592-.184-.897.196-.305.596-.398.893-.208z"/><g><path d="M120.648 65.034c.965.62 1.256 1.89.648 2.837-.61.95-1.884 1.216-2.85.597-.964-.62-1.255-1.89-.646-2.838.608-.948 1.883-1.215 2.848-.596z" fill="#fff"/><path d="M119.902 66.198c.297.19.38.593.183.898-.195.304-.593.398-.892.207-.297-.19-.38-.593-.184-.898.195-.305.595-.398.892-.207z"/></g><path d="M123.87 60.27c.963.62 1.255 1.89.645 2.838-.607.95-1.883 1.216-2.848.597-.966-.62-1.255-1.89-.648-2.838.606-.948 1.882-1.215 2.85-.596z" fill="#fff"/><path d="M123.123 61.436c.296.19.378.592.183.897-.195.305-.596.398-.892.208-.297-.19-.38-.592-.184-.897.195-.305.594-.398.893-.207z"/><path d="M126.972 55.43c.965.62 1.254 1.89.647 2.838-.61.948-1.884 1.215-2.85.596-.966-.62-1.255-1.89-.647-2.838.607-.947 1.882-1.214 2.85-.595z" fill="#fff"/><path d="M126.226 56.595c.297.19.38.593.184.897-.196.305-.596.398-.893.208-.297-.19-.38-.593-.183-.898.195-.305.593-.398.892-.207z"/><g><path d="M50.458 174.91c.965.62 1.256 1.89.647 2.84-.608.948-1.883 1.213-2.848.594-.966-.62-1.256-1.888-.648-2.838.607-.947 1.882-1.214 2.848-.595z" fill="#fff"/><path d="M49.712 176.075c.297.19.38.593.184.898-.196.305-.595.4-.893.207-.297-.19-.38-.592-.184-.896.195-.305.594-.4.892-.21z"/></g><g><path d="M53.544 169.71c.965.62 1.255 1.89.646 2.837-.607.948-1.882 1.215-2.847.596-.966-.62-1.256-1.89-.65-2.838.61-.947 1.885-1.215 2.85-.596z" fill="#fff"/><path d="M52.798 170.874c.297.19.38.593.183.898-.194.305-.594.398-.89.207-.298-.192-.38-.593-.185-.9.196-.304.595-.396.893-.206z"/></g><g><path d="M63.153 155.14c.965.618 1.255 1.888.647 2.837-.608.947-1.883 1.215-2.848.596-.967-.62-1.256-1.89-.648-2.838.607-.947 1.883-1.215 2.85-.596z" fill="#fff"/><path d="M62.407 156.303c.297.19.38.592.184.897-.194.306-.595.398-.892.21-.297-.193-.38-.595-.183-.9.195-.304.594-.398.892-.207z"/></g><g><path d="M56.567 164.91c.966.62 1.256 1.89.65 2.84-.61.948-1.885 1.213-2.85.594-.966-.62-1.257-1.888-.647-2.838.607-.947 1.883-1.214 2.847-.595z" fill="#fff"/><path d="M55.82 166.075c.298.19.38.593.185.898-.195.305-.594.4-.892.207-.298-.19-.38-.592-.184-.896.194-.307.594-.4.89-.21z"/></g><g><path d="M59.782 160.125c.965.62 1.256 1.89.648 2.838-.61.95-1.884 1.215-2.85.596-.965-.62-1.255-1.89-.646-2.837.608-.95 1.883-1.215 2.848-.598z" fill="#fff"/><path d="M59.036 161.29c.297.19.38.593.184.898-.196.305-.595.398-.893.207-.297-.19-.38-.592-.183-.896.195-.308.595-.4.892-.21z"/></g><g><path d="M69.352 145.075c.965.62 1.254 1.888.647 2.836-.608.95-1.884 1.217-2.85.598-.965-.62-1.254-1.89-.647-2.838.607-.95 1.883-1.214 2.85-.595z" fill="#fff"/><path d="M68.605 146.24c.298.188.38.59.185.895-.196.305-.596.4-.893.207-.297-.19-.38-.592-.184-.896.195-.305.595-.4.892-.207z"/></g><g><path d="M66.172 149.854c.966.62 1.255 1.89.647 2.836-.608.95-1.883 1.217-2.85.598-.965-.62-1.255-1.89-.647-2.838.608-.95 1.883-1.215 2.85-.596z" fill="#fff"/><path d="M65.425 151.018c.298.19.38.592.184.897-.196.304-.595.398-.892.21-.3-.193-.38-.595-.186-.9.197-.305.596-.398.893-.207z"/></g><g><path d="M72.228 139.864c.964.62 1.255 1.888.647 2.838-.608.947-1.884 1.215-2.85.595-.964-.62-1.254-1.888-.646-2.838.606-.948 1.882-1.215 2.848-.596z" fill="#fff"/><path d="M71.48 141.028c.298.19.38.594.185.898-.195.305-.595.397-.893.207-.296-.19-.378-.593-.183-.898.194-.305.595-.4.89-.207z"/></g><g><path d="M75.665 134.856c.965.62 1.255 1.89.647 2.838-.608.95-1.883 1.215-2.848.596-.967-.62-1.256-1.89-.65-2.836.61-.95 1.884-1.215 2.85-.598z" fill="#fff"/><path d="M74.92 136.02c.296.19.378.594.183.898-.196.305-.596.4-.893.207-.297-.19-.38-.59-.184-.896.196-.308.594-.4.893-.21z"/></g><g fill="#e61408"><path d="M51.134 110.077l4.494-.037 2.91-5.894 2.836-5.34-.7-4.864-.183-10.168.11-11.346H57.73l-3.758 6.704-4.052 4.974-7.44 5.415-17.463 2.58-2.395 4.163.958 1.068 14.735-3.388 6.63 4.752" fill="#1c1585"/><path d="M64.688 105.144l22.23 5.2-2.276 3.874-2.63 4.23-1.87 3.043-1.196 1.88-14.312 22.718-.656-.28-.282-19.626M22.142 109l9.824-3.18 6.48-1.154 2.242 1.33 2.772 4.485-.98 3.398-6.534 4.756-5.434-.45-8.546-7.716M65.546 70.493l1.78.17.616 1.953.652 6.78.137 4.282.617 5.513 1.507 5.378 2.397 3.082 3.87 2.67 5.652.344 4.487-1.404-.208 3.595-.582 2.877-24.555-5.924-1.096-4.897-.137-22.328M67.402 36.25l2.29-8.49 1.663-4.762-2.785 1.168-3.998 3.773-.943 4.132-.72 8.356.045 4.852-1.527 2.605-3.91 2.74-6.558 4.718-5.12 4.717-5.976 5.166-3.01 3.01 3.415.09 15.946 2.246 2.965-4.897 2.652-4.987 3.64-16.082"/><path d="M36.568 68.357l4.042-.468-1.187 2.5-2.592 3.676-1.997 4.796-1.04-.867-.16-4.054 1.417-3.585M103.097 29.26l-2.297.157.936 7.827-.078 2.96 2.32 7.436-.607 2.258-1.986 1.402.117 2.414 1.287 3.232 3.232 8.293 1.79 4.05 2.686.738 1.947.234.937-1.395 1.246-1.985 2.143-3.23 1.458-1.98 5.73-9.208-9.833-8.52"/><path d="M57.037 22.377l-.546 1.25 1.207.434 1 .547 2.345.91 1.707 1.912 1.272 1.068 2.368-2.23 8.42-6.44 7.03-3.73 5.12-1.526-.41-1.866-.523-1.775.775-2.57 1.16-2.39-2.093.66-.298.842.16.98-2.276.09-.5.887 1.48 1.433-3.437 1.775-2.892-1.343-1.57-2.913-1.365.092.046 1.16 1.523 1.388.387 1.343-2.344 2.753-2.662-.16-.273-.5 1.798-1.547-.318-1.07-1.32.07-1.66.796-.888-1.274-1.23-.5-.636.773.432 1.388 1.48.75-2.458.73.068 1.432 3.732-1.114-.705 1.616-.912 1.866-2.207 1.092H64l-1.274-2.14-1.797-.59.09 1.228 1.797.98.91.84-.16.957-.5 1.205-.91 1.547-1.707.455-.5-.32 1.388-1.842-1.093-.41-1.297.684M67.144 70.225l3.187-.906 1.31 2.885 1.71 3.792.84 1.71 1.846-.133 3.053-.403h3.925l3.154.84 4.06.57 1.846-1.476 4.562-1.342 3.926-.94 3.725-.336 2.08 1.14 1.61 1.31-1.98 3.792-1.14 1.543-1.208 2.216-1.846 3.02-2.215 3.02-1.81 2.65-1.11 1.846-.737 1.275-.603.604-1.71-1.14-1.982-.1-1.71.47-1.544 1.51-1.342 1.744-2.416.705-4.598.402-3.724-.604-2.886-1.812-2.013-2.484-1.544-3.288-1.14-9.026-.235-6.107-.37-3.724M11.513 109.835l-.282 2.682-.247 11.185-.07 5.892.813.283.28-2.328.99-3.14 1.305-3.354 2.047-4.235 2.223-4.232 3.423-3.67 2.682-.952 5.398-1.695 5.188-1.127 2.788-.388 1.658.458 2.365 2.54 1.977 3.67 1.693 3.176 2.117 3.845.847 1.376.918.92.988-1.236.988-3.247.317-1.482 1.27-1.87-6.774-11.75-2.258-3.352-1.658-2.01-1.73-1.236-1.975-.39-2.083-.21-3.952.74-7.022 1.66-4.058 1.128-3.776 1.482-2.083 2.435M34.485 80.5l.252-1.48 1.312-3.43 3.822-6.112 2.902-2.01 2.986.14 6.614 2.344 3.71 1.395 1.23 1.73-1.647 3.517-2.707 3.823-3.572 4.186-3.99 3.32-4.41 2.512-4.604 1.34-6.418.585-3.712-.725.278-1.312" fill="#f8c20f"/><path d="M23.285 111.006l3.43 2.802 4.054 2.802 3.575 1.998 2.743 2.028 1.31.536 2.894 4.71-.418 4.68-.417 5.753-1.73.18-2.146.804-1.19 1.52-1.104 2.714-.716.476-3.368.448-3.25-.21-2.683-1.042-2.148-1.82-1.64-2.145-2.004-4.464-.678-3.674-.686-5.844-.268-6.23.835-3.19 1.49-2.385 1.015-.925 2.295-.03M43.532 111.565l1.785 1.932 2.145 5.174-2.8 1.655-2.702 2.652-2.03-.687-2.456-1.8-2.178-1.917.803-1.13 1.898.148.442-.654-.623-1.638 1.114-1.162 1.737.754 1.146.195-.23-1.49.313-1.196" fill="#f8c20f"/><path d="M85.478 8.027c-.924.238-2.166-.195-2.756.79-.36.6-.198.645.256 1.002.314.246.846.814.5 1.19-.582.636-2.1 1.025-2.945.927-.404-.047-1.076-.05-1.39-.323-.36-.31-1.192-.768-1.29-1.243-.266-1.28-.687-1.926-1.834-2.57-1.06-.595-1.287 1.515-.864 2.053l1.262 1.603c.405.515.037 1.025-.17 1.55-.388.987-1.622 1.507-2.576 1.763-.51.135-.99.006-1.444-.243.777-.23 2.315-1.613 1.687-2.503-.594-.842-2.744-.185-3.437.253-.32-1.03-2.182-2.24-3.25-2.25 0 .706.01 1.39.07 2.094.05.592.443 1.127.68 1.657-.524.173-1.004.43-1.255.93-.195.384-.95 1.57-.17 1.57.676 0 1.518.07 2.175-.118.523-.152 1.037-.6 1.5-.883.01 1.06-.768 2.228-1.534 2.93-.943.866-1.953 1.07-3.173 1.174-1.17.102-1.797-1.15-2.194-2.013-.472-1.03-1.83-1.045-2.848-1.09 0 .665-.008 1.744.51 2.248.616.6 1.792.672 2.24 1.518.737 1.395-1.262 3.945-2.75 3.734.52-.507 1.945-1.722 1.13-2.5-.646-.616-2.328.07-3.064.256-.98.25-2.03-.224-2.904.435-.528.397-.874.492-.795 1.173.05.436.808.81 1.188.804.56-.01 1.013-.032 1.49.283.42.278.873.6 1.36.74 1.12.325 1.97.74 2.66 1.7.405.567.675.84 1.253 1.223.564.374.612.86.79 1.486.24.847-.203 2.258-.353 3.116-.08.463.02.95-.062 1.415-.108.63-.194 1.21-.212 1.85-.027 1.01-.14 2.184-.324 3.176-.392 2.113.368 4.6-.426 6.614-.815 2.067-2.812 3.345-4.607 4.566-1.87 1.273-3.773 2.542-5.544 3.952-.84.67-1.824 1.293-2.59 2.04-.833.81-1.63 1.692-2.516 2.446-1.72 1.465-3.33 3.093-5.074 4.513-3.326 2.71-7.273 5.908-8.35 10.27-.268 1.084-.218 2.305-.088 3.4.122 1.015.293 2.248.043 3.227-.282 1.106-1.268 2.17-1.88 3.126-.525.818-1.09 1.612-1.678 2.386-1.35 1.776-2.83 3.444-4.256 5.156-1.394 1.672-2.448 3.668-3.417 5.606-.65 1.298-2.677 1.252-3.802 1.93-1.49.894-2.344 1.865-3.22 3.372-.75 1.286-1.35 2.685-2.125 3.943-.93 1.51-1.526 2.757-1.625 4.546.674-.558 1.088-1.82 1.484-2.6.46-.907.994-1.775 1.46-2.678.942-1.832 1.958-4.203 3.723-5.38 1.807-1.205 3.922-1.65 5.99-2.237 2.165-.616 4.344-1.125 6.526-1.67 2.017-.505 4.25-.93 6.318-1.15 2.123-.224 4.267.594 5.686 2.187 1.463 1.642 2.722 3.67 3.752 5.615 1.057 1.992 2.207 3.936 3.173 5.975.47.99.968 1.955 1.514 2.906.247.428.49.86.745 1.283.208.348.753.875.442 1.186-.46.46-.677-.277-.8-.592-.25-.626-.522-1.22-.82-1.823-.452-.915-.89-1.856-1.427-2.723-1.21-1.95-2.262-4.005-3.357-6.022-.983-1.81-2.174-4.03-3.765-5.384-1.74-1.482-4.003-2.05-6.247-1.78-2.15.26-4.295.79-6.398 1.297-2.154.52-4.257 1.177-6.42 1.657-1.017.226-2.116.413-3.08.812-1.21.5-1.852 1.2-2.704 2.153-.86.96-1.435 2.198-2.066 3.32-.71 1.263-1.38 2.483-1.977 3.804-.54 1.202-1.182 2.34-1.812 3.497-.17.31-.147.7-.185 1.05 0 .002.603.212.718.3.464.352.54.996.778 1.5 1.28-1.1.43-3.327.92-4.743.164-.47 1.1-2.086 1.767-1.26.46.57-.434 1.494-.687 2.002 1.306.662 1.978-.95 1.953-2.02-.03-1.31-.242-2.42.067-3.73.143-.607.35-1.134.71-1.645.323-.45.845-1.22 1.515-1.194.707.026.9.616.586 1.108-.342.54-.658.903-1.33.983.232 1.237 1.875.86 2.39.047.338-.53.663-1.04.942-1.603.228-.46.36-1.058.67-1.464.597-.79 1.357-2.183 2.498-2.32.5-.06 1.143.188 1.43.57.106.143-.22.57-.296.717-.193.375-.218.298-.646.258-.18-.016-.42-.093-.588-.095-.416-.005-.36-.225-.522.23-.19.526.194 1.002.54 1.333.287.275 1.326.08 1.72.08.446 0 .98-.5 1.316-.766.887-.708 1.59-1.702 2.27-2.605.473-.626 1.694-1.674 2.538-1.486.563.127 2.133.46 1.263 1.36-.55.568-1.598.263-2.275.247.076.484.283.885.595 1.256.384.457.984.243 1.504.2 1.057-.088 1.91-.47 2.683-1.238.397-.396.79-.776 1.218-1.138.54-.458.895-.512 1.6-.67.735-.165.854-.09 1.548.25.297.147.31.183.446.492.192.428.102.406-.22.76-.32.355-.77.664-1.164.125-.363-.496-.793-.36-.867.24-.168 1.38 1.16 1.718 2.213 1.932.465.095 1.06-.04 1.488.14.627.262 1.08.495 1.614.908.97.75.025 2.455-1.016 1.492-.396-.368-.437-.663-.855-.097-.117.16-.235.612-.39.564-.31-.098-.545-.243-.825-.408-1.043-.614-1.707-.912-2.887-1.113-2.127-.362-4.554.572-6.647.98-2.188.424-4.4 1.277-6.518 1.966-1.887.613-4.418 1.132-5.77 2.683-2.117 2.42-3.816 5.45-5.047 8.423-.628 1.516-1.3 3-1.958 4.5-.32.73-.7 1.418-1.063 2.125-.324.63-.18 1.694-.18 2.376.594-.668.862-1.918 1.188-2.75.426-1.086.936-2.135 1.372-3.22.812-2.012 1.893-3.91 2.92-5.813.944-1.752 2.012-4.154 3.724-5.28 1.803-1.186 4.032-2.134 6.125-2.704 2.152-.585 4.292-1.267 6.466-1.742 2.02-.442 4.472-1.122 6.513-.546 1.055.298 1.96 1.425 2.583 2.27.682.925 1.235 1.993 1.824 2.978 1.094 1.826 2.088 3.706 3.142 5.552.552.965 1.052 1.948 1.55 2.942.467.933 1.11 1.994 1.096 3.062-1.35-1.5-2.09-3.537-3.088-5.278-1.08-1.884-1.963-3.89-3.102-5.733-.61-.99-1.17-2.043-1.847-2.99-.765-1.067-1.49-1.61-2.762-1.868-.896-.182-2.16.068-3.075.213-1.085.17-2.106.516-3.16.814-2.146.606-4.327.975-6.436 1.71-1.883.656-4.488 1.185-5.86 2.74-3.082 3.494-4.683 7.914-6.492 12.142-.526 1.232-1.01 2.445-1.442 3.717-.175.513-.18 1.07-.326 1.59-.173.61-.468 1.3-.41 1.943l-.25-.5c-.558.71-.25 2.355-.25 3.185v3.523c0 1.12.458 2.248.495 3.387.038 1.123.49 2.076.756 3.156.77-.627.23-1.518.162-2.305-.043-.49.054-.954.04-1.444-.014-.553-.233-1.106-.374-1.64-.244-.915-.075-1.973-.203-2.92-.14-1.03-.023-1.91.125-2.94.516.076 2 .328 2-.5 0-.815-1.493-.574-2-.5-.115-1.95.893-4.223 1.606-6 .4-1 .804-2.02 1.26-3 .384-.818.844-1.98 1.634-2.5-.087.49.197 1.057.218 1.557.032.736.03 1.47.032 2.207 0 .587.166 1.156.216 1.736.054.63-.052 1.285.063 1.906.232 1.254.36 2.527.563 3.79.155.958.18 2.577.908 3.304.374-.72 0-1.7-.128-2.45-.173-.995-.318-2.003-.513-2.993-.196-.997-.18-2.014-.354-3.022-.164-.946-.255-2.05-.255-3.012 0-2-.063-3.906.398-5.865.3-1.272 1.65-4.192 3.102-4.407-.003 2.188-.25 4.353-.25 6.55 0 1.08.234 2.14.242 3.227.007 1.087.13 2.147.258 3.223.5 4.254 1.668 8.762 4.586 11.994.28.31.857.725.94 1.14.11.55.22 1.057.224 1.616.005 1.03.084 2.1-.5 3-.197-.793-.25-1.526-.254-2.344-.003-.578-.063-1.488-.746-1.656 0 .785.302 2.793-.782 2.85-.994.05-2.043-1.5-2.613-2.145-.723-.817-1.29-1.72-1.773-2.704-.432-.88-.664-2.234-1.582-2.75-.128.615.46 1.574.685 2.12.246.6.418 1.25.742 1.812.893 1.542 1.717 2.728 3.073 3.89.532.455 1.123.82 1.61 1.322.503.526.638 1.278.64 2.014 0 .178-.088 1.092.078 1.092.608 0 .39-.195.422-.75.036-.664.103-1.4.75-1.75-.098.555.228 1.22.235 1.793.01.768.015 1.538.015 2.305 0 .153-.09.9.078.9.513 0 .422-.02.422-.517v-2.527c0-.358.074-1.954.75-1.454.306.226.236 1.836.248 2.207.048 1.428.002 2.865.002 4.293.728-.514.5-2.043.5-2.826 0-1.182-.037-2.274.25-3.424.605.89.304 1.853.75 2.75.91-.625.23-2.106 1.25-2.75 0 .416.062.767.134 1.176.088.507-.04.824.537.824.09 0 .1-.826.154-.99.13-.41.3-.772.674-1.01-.014.656-.055 1.277-.14 1.928-.08.636.308 1.156.296 1.78-.022 1.112-.767 2.184-.906 3.292-.207-.404-.25-.867-.25-1.317 0-.14.085-.684-.08-.684-.45 0-.42-.043-.42.396 0 1.028-.235 2.407.25 3.354.33-.38.075-1.07 0-1.5.777.658 1.402 1.15 2 2 .366-.27.43-.826.677-1.195.353-.523.662-.503.457-1.212-.305-1.063-.884-1.955-.884-3.092.685.36 1.612.217 2-.5-.77-.41-1.5-.555-1.874-1.397-.28-.63-.3-1.688.374-2.104 0 .658-.168 2.117.75 2.25.076-.443.234-.887.5-1.25.224.682.51 1.334.75 2 .248-.285.24-.684.325-1.035.038-.157.08-.714.253-.714.47 0 .42-.014.498.44.172.993.26 2.042.127 3.046-.166 1.242-.216 2.424-.235 3.678-.014.937-.504 2-.807 2.865-1.46 4.16-3.14 8.25-4.62 12.406-.8 2.246-1.74 4.44-2.624 6.652-.452 1.127-.938 2.25-1.325 3.398-.403 1.196-.74 2.315-1.592 3.266-.074-.348-.342-.684-.5-1-.266.355-.108.855 0 1.252.177.66.338.95.227 1.623-.066.4-.228 1.155 0 1.522.257.414 1.098.584 1.523.698 2.146.564 4.336 1.254 6.375 2.138.98.424 2.105 1.018 3.125 1.305.374.104 1.168.322 1.47.006.375-.394.654-.85.948-1.302 1.214-1.88 2.387-3.78 3.6-5.658 2.46-3.8 4.936-7.613 7.276-11.488 1.134-1.875 2.42-3.64 3.622-5.47 1.21-1.85 2.27-3.79 3.455-5.655 1.327-2.09 2.77-4.114 4.02-6.25.64-1.094 1.327-2.15 2.004-3.22.604-.956 1.637-2.124 1.854-3.25-.805.4-.75.223-.766-.595-.01-.53-.027-1.058-.025-1.59.004-1.033-.08-2.05-.012-3.088.146-2.252.053-4.57.053-6.834 0-.962-.057-2.03.193-2.96.3-1.118.802-2.17 1.23-3.245.828-2.058 1.65-4.11 2.43-6.19 1.07-2.838 2.106-5.686 3.247-8.5.3-.733.61-1.46.885-2.204.15-.41.963-1.524 1.542-1.02.73.638 1.065.808.923 1.804-.105.73-.2 1.433-.2 2.172.647-.464.646-1.48 1.04-2.108.12-.196.535-1.126.754-1.145.536-.044.94-.083 1.458.042.83.2 1.81.55 1.978 1.466.15.824-.066 1.728-.17 2.54-.12.947-.277 1.885-.433 2.827-.13.788-.125 1.58-.274 2.367-.186.98-.306 1.948-.444 2.934-.106.75-.555 1.847-.408 2.578.848-.49 1.323-1.73 1.864-2.5.617-.877 1.186-1.745 1.738-2.666 1.194-1.996 2.453-3.95 3.66-5.934 1.138-1.872 2.478-3.636 3.58-5.525 1.125-1.924 2.54-3.7 3.6-5.652 1.458-2.68 3.236-5.192 4.812-7.806.695-1.154 1.455-2.27 2.162-3.415.772-1.252.932-2.602 1.334-4 .197.316.445.62.5 1 1.512-1.3 2.434-3.502 3.44-5.176.56-.924 1.27-1.73 1.78-2.69s1.018-1.957 1.677-2.828c1.34-1.77 2.638-3.524 3.642-5.51 1.008-1.99 2.27-3.884 3.508-5.74.576-.868 1.113-1.76 1.734-2.597.548-.743 1.452-1.873 1.605-2.808.064-.406.195-.373-.225-.51-.178-.058-.35-.22-.5-.323-.428-.298-.8-.67-1.203-.997-.904-.726-1.576-1.636-2.35-2.495-1.44-1.6-2.834-3.527-3.955-5.365-1.154-1.89-2.437-3.662-3.504-5.61-1.23-2.243-2.212-4.584-3.267-6.91-.487-1.076-.816-2.17-1.216-3.276-.445-1.23-.916-2.342-.916-3.663 1.463 1.627 2.53 3.694 3.81 5.478 1.307 1.828 2.606 3.646 3.975 5.43 1.336 1.74 2.76 3.463 4.23 5.092 1.46 1.615 2.823 3.45 4.485 4.86.854.723 1.658 1.504 2.496 2.246.297.263.697.694 1.104.78.457.096.39.133.61-.308.1-.2.24-.34.29-.578-1.066.143-2.035-1.083-2.725-1.72-.746-.695-1.443-1.448-2.164-2.168-1.585-1.585-2.942-3.36-4.497-4.967-1.593-1.65-2.916-3.472-4.277-5.313-1.38-1.864-2.824-3.653-4.15-5.56-.56-.81-1.02-1.687-1.54-2.523-.537-.86-1.22-1.727-1.398-2.75.904.107 1.738 1.366 2.248 2 .71.88 1.287 1.86 2.022 2.72 1.45 1.697 2.894 3.43 4.263 5.19 1.398 1.797 2.906 3.528 4.515 5.136 1.506 1.508 2.94 3.237 4.6 4.573 1.34 1.076 2.816 3.108 4.603 3.38-.033-.246.297-.586.25-.75-.03-.104-.414-.255-.527-.327-.48-.305-.927-.646-1.384-.985-.813-.606-1.617-1.218-2.336-1.933-1.738-1.725-3.598-3.287-5.2-5.14-.716-.826-1.52-1.577-2.288-2.352-.682-.686-1.256-1.566-1.86-2.32-1.437-1.798-2.847-3.616-4.283-5.415-1.442-1.81-2.823-3.57-4.102-5.5-.584-.877-.82-1.992-1.55-2.792-.687-.75-1.804-1.384-2.3-2.265-1.123-1.992-2.008-3.96-3.92-5.334-.896-.644-1.955-1.05-3-1.377-.535-.168-1.074-.296-1.62-.428-.413-.1-1.07-.115-1.41-.354-.21-.148-.993-.522-1.044-.764-.096-.473-.135-1.01-.297-1.465-.32-.884-.89-1.45-.566-2.444.3-.915.54-1.85.803-2.776.233-.816 1.11-1.37 1.135-2.28-1.154.097-3.87.792-3 2.5m1.25-1.5c.02.64-.29 1.25-1 1.25-.11-.632.36-1.232 1-1.25m-10 4c-.655-.125-2.06-1.533-1.163-1.88 1.14-.44 1.543 1.11 1.163 1.88m8-1.75c-.287.53-.955.8-1.5.5.263-.562.96-.67 1.5-.5m1 .25c.14.07.5.16.5.328 0 .286.06.562-.348.422-.326-.112-.423-.552-.152-.75m-.25 1.75c.05.517-.29.703-.75.75-.103-.553.197-.853.75-.75m-16 1.75c-.384.192-.718.21-1.13.14-.26-.046-.66-.73-.51-.92.38-.472.42-.65.99-.378.378.18.59.776.65 1.157m3.75-.25c-.278.89-1.233 1.62-2.165 1.28-.28-.1.395-.974.553-1.088.596-.432.885-.31 1.612-.193m5.5.25c.158.846-1.095 1.048-1.75 1 .246-.997.833-1.158 1.75-1m5.5-.25c.05.25-.12.88-.5.5s.25-.55.5-.5m-1.5.5c.516.522.988 1.233 1 2-.66-.17-1.614-1.358-1-2m3.5.25c-.05.325-.21 1.54-.814.935-.684-.683.29-.855.814-.935m-5 .25c.605.393 1 1.29 1 2-.584-.317-1.528-1.306-1-2m-12.25 1c-.015.6-1.12 1.85-1.58 1.157-.61-.92.93-.97 1.58-1.157m8.25.75c.46.69 1.023 1.373 1 2.25-.682-.127-1.83-1.76-1-2.25m3 0c-.047.357-.397.58-.75.5.168-.285.46-.378.75-.5m-8 .75c0 .624.09.706-.47.974-.3.145-.695.27-1.03.277-.154-.86.714-1.512 1.5-1.25m15-.25c.273 1.25 1.623.85 2.535 1.02 1.197.226 2.377.48 3.465 1.063 1.15.62 1.92 1.45 2.79 2.396.675.734 1.43 1.73 1.46 2.77-.947-.023-2.06-1.082-2.25-2-.486 1.262 1.205 2.366 2 3-1.166 1.022-2.838-1.257-3.75-1.75.182.566.426 1.158.5 1.75-.94-.033-2.205-.954-2.586-1.804-.527-1.177-1.03-1.994-1.914-2.945.174.71.107 1.496.13 2.223.017.522-.817 1.22-1.18 1.526-.303.258-1.45.927-1.45 1.36 0 .22.13.978 0 1.14-.166.21-.77.216-1 .25-.057-.68-.23-1.294.08-1.907.213-.42.908-.852 1.31-1.113 1.286-.838 1.337-1.853.36-2.98.05 1.048.04 1.593-.768 2.382-.447.436-1.34 1.018-1.982 1.117-.076-.385.148-.88.25-1.25-.363.266-.807.424-1.25.5.078-.62.482-1.196.75-1.75-.633.574-1.41 1.003-1.99 1.622-.628.668-.95 1.493-1.293 2.334-.304.747-1.01 1.363-1.778 1.446-.398.044-.998.262-1.32-.022-.323-.285-.296-.985-.37-1.38.504.058.672.57.75 1 1.597-.356 1.653-2.55 1.85-3.845.098-.642.56-1.412.947-1.935.554-.745 1.075-.987 1.918-1.37 1.245-.564 2.948-.6 4.286-.6.758 0 1.502.017 2.25.15.578.104 1.416.452 2 .35-1.79-1.388-4.098-1.023-6.232-.952-2.05.068-4.367 1.055-6.018 2.237-3.706 2.652-4.435 7.43-4 11.714.1 1.006.445 2.02.466 3.035.026 1.125.034 2.248.034 3.373 0 2.248.476 4.45.493 6.692.01 1.06.195 2.09.258 3.15.027.468.152.98.083 1.444-.104.698-.45 1.015-.893 1.573-.7.878-1.705 1.39-2.655 1.977-.415.256-.807.535-1.233.774-.57.32-.593.155-.763-.392-.297-.956-.04-2.326-.04-3.332 0-1.04.21-2.03.232-3.067.04-2.204.37-4.394.71-6.57.164-1.053.224-2.19.316-3.258.09-1.028.337-2.03.443-3.056.222-2.16.585-4.504 1.235-6.578.532-1.702 1.26-3.326 1.813-5.015-1.283 1.655-2.085 3.773-2.512 5.806-.16.764-.406 2.643-1.587 2.344-.46-.116-.617-.702-.885-1.056-.332-.437-.834-.295-1.267-.093-.15-1.613.812-3.772 1.663-5.098.634-.988 1.086-1.91 2.047-2.576.792-.55 1.628-1.03 2.455-1.525 3.326-1.998 7.148-4.12 11.086-4.303m-11.5.25c.685.442 1.253 1.428 1.25 2.25-.676-.27-1.82-1.498-1.25-2.25m-13 2.5c-.812.452-1.632-.43-1.5-1.25.767-.03 1.4.48 1.5 1.25m10.5 0c-.493.866-1.764 2.006-2.75 1.25-.184.897.875 1.196 1.5 1.5-.51.774-1.522 1.443-2.315 1.894-.475.27-.58.493-.863-.044-.274-.515-.328-.93-.873-1.23-.288-.16-1.18.155-1.3.478-.216.58.048 1.04.61 1.303.342.16.513-.056.448.397-.033.225-.182.43-.288.63-.23.433-.804.847-1.17 1.175-.32.286-.77.537-1.05.852-.47.53-.617.034-.887-.37-.29-.43-.627-.796-1.115-1.002-.524-.22.27-1.104.49-1.378.685-.853 1.694-1.496 2.523-2.217.796-.693 1.63-1.385 2.516-1.958.412-.266.813-.56 1.258-.768.154-.073.303-.155.47-.194.508-.12.133.126.47.272.737.32 1.58-.47 2.326-.59m10 1c-1.3.908-2.382 2.588-2.25 4.25.603-.445.804-1.56 1.18-2.206.292-.505 1.424-1.434 1.07-2.045m-17.25 1c-.106.77-1.016 1.414-1.75 1.5.033-.448-.024-.987.408-1.243.44-.262.832-.25 1.342-.257m14.25 0c-.114.716-.253 1.57-.506 2.25-.34.91-.977 1-1.89 1-.692 0 .154-1.558.355-1.766.603-.626 1.125-1.346 2.04-1.483m-19.75 1.5c.387.76-.544 1.502-1.25 1.5-.108-.805.547-1.32 1.25-1.5m31.25 3.75c.935.798 1.692.7 2.716-.02.367-.26.875-.84 1.36-.71.613.164.825.352 1.09.91.468.978.773 1.96 1.142 2.976.322.89.654 1.938.193 2.844-.912-.472-1.705-.79-2.75-.587-.793.154-2.11.56-2.5 1.337.69 0 1.285-.108 1.965-.243.594-.12 1.193-.533 1.797-.295.19.074.87.216.963.4.197.39.392.777.59 1.166.29.57-.18 1.148-.065 1.72-1.31-.04-2.33-1.654-3.75-1.106-.428.166-1.393.778-1.648 1.155-.323.47-.72 1.34-1.352 1.452 0-.653-.012-1.362.14-2 .145-.602.507-1.13.61-1.75-1.123.73-1.25 2.484-1.25 3.683 0 1.356.203 2.663.428 4 .19 1.142.697 2.955-.047 4.013-.773 1.093-3.038-.14-4.132-.196.01-.526.277-1.036.5-1.5-.93.555-1.365 2.014.023 2.308 1.273.27 2.488.672 3.728.15.398-.17 1.23-.543 1.398-.958.21-.512-.355-1.086-.554-1.52-.51-1.11-.344-2.532-.344-3.73.615.1 1.166.537 1.75.75l-.5-1c.563-.274 1.277-.055 1.88-.21.696-.18 1.407-.432 2.12-.54-.1.64-.48 1.176-.75 1.75.748-.262 1.217-1.138 2-1.25.727 4.208-1.023 8.666-2.885 12.39-.912 1.825-1.79 4.71-3.908 5.502-2.07.773-4.295.978-6.457.547-1.484-.297-3.096-.587-4.454-1.28-1.41-.718-2.732-1.53-4.046-2.41.466.893 1.355 1.548 2.228 2.014.942.505 2.004 1.232 3.047 1.493 1.997.5 4.428 1.404 6.518.986.978-.197 2.216-.72 3.202-.65 1.373.095.932 1.867.836 2.84-.107 1.075.32 2.062-.805 2.746-.966.588-1.79 1.05-2.853 1.423-.54.188-1.09.35-1.637.517-.453.138-1.22-.165-1.656-.255-.406-.084-.99.257-1.38.388-.177.06-.554.308-.75.247-.128-.04-.325-.422-.443-.54-.887-.897-1.922-.142-2.836-.7-.45-.276-.908-.648-1.415-.805-.64-.198-1.152-.258-1.66-.706-.77-.68-1.67-1.24-2.283-2.058-.323-.432-.628-.866-.927-1.316-.355-.537-.34-1.106-.42-1.744-.125-1.01.2-2.095.334-3.096.152-1.138.715-1.698 1.595-2.357.887-.663 1.942-1.35 2.028-2.553.078-1.11.037-2.242.008-3.354-.03-1.143-.24-2.255-.262-3.41-.02-1.078-.23-2.158-.25-3.25-.02-.993-.218-1.965-.218-2.972 0-1.162.01-2.322-.03-3.483l-.052-1.62c-.012-.4.53-1.086.744-1.453.267-.463.49-.953.818-1.375.444-.575.87-.596 1.52-.908.824-.396 1.453-.975 1.972-1.717.515-.735.765-1.612 1.278-2.333.998.602 1.418 2.105 2.535 2.534.785.304 1.182.69 1.768-.005.196-.232.43-.414.477-.717.043-.28.022-.8.26-1.004.922-.79 2.29-1.718 3.46-1.057.39.22 1.25.748 1.25 1.244 0 .86-.15 1.056-1 1.257m-32.75-2c-.046.357-.396.58-.75.5.17-.27.495-.32.75-.5m11.5.5c-.033 1.018-.513 2.048-.843 3-.376 1.086-.82 2.146-1.206 3.23-.745 2.09-1.094 4.314-1.555 6.477-.43 2.012-1.128 3.955-1.532 5.978-.45 2.26-.75 4.563-1.22 6.815-.927 4.44-3.31 8.002-5.777 11.702-1.307 1.96-2.62 3.884-4.016 5.783-.556.756-1.34 1.824-2.35 1.95-.984.12-2.136-.494-3.035-.82-.562-.205-1.132-.468-1.714-.616.155-.904 1.21-1.56 1.85-2.12.886-.777 1.767-1.553 2.632-2.353 1.67-1.547 3.318-3.073 4.912-4.704 1.514-1.548 2.93-3.276 3.8-5.26.432-.986.846-1.984 1.196-3.003.357-1.034.955-2.05 1.242-3.095.813-2.95 1.56-5.91 2.432-8.84.437-1.474 1.023-2.9 1.52-4.355.456-1.333 1.165-2.844 1.166-4.27-.762.486-1.043 1.702-1.33 2.5-.335.93-.754 1.884-1.013 2.836-.572 2.1-1.236 4.187-2.157 6.164-.444-.462-.04-1.505-.026-2.074.025-.89.194-1.736.27-2.62.062-.71.238-1.407.242-2.12.008-1.055.02-1.962.25-2.985.385-1.71.724-3.075 2.13-4.267 1.14-.965 2.618-2.648 4.134-2.933m29.5 1.5c.97.795.998 1.827 1 3-.834-.212-1.615-1.27-2-2 .523-.108.7-.617 1-1m-23 .5c.16.786-1.05.524 0 0m-13.75.25c.05.25-.12.88-.5.5s.25-.55.5-.5m35.5 1.25c.41.235.635.507.834.93.086.18.162 1.07-.162 1.07-.52 0-.656-.26-.79-.75-.105-.373-.17-.94.118-1.25m-21.25.25c-.118.52-.225 1-.75 1.25-.058-.574.038-1.382.75-1.25m22.75 2.75c.67 2.034.98 4.074.992 6.224.016 2.19.395 4.358.864 6.492.238 1.084.69 2.17 1.04 3.222.28.84.75 2.147-.02 2.847-1.565 1.425-3.94 2.437-6 2.885-.42.092-1.126.315-1.126-.215 0-.482.11-.878.287-1.328.356-.918.693-1.855 1.092-2.755.855-1.938 1.328-3.97 1.613-6.064.07-.508.15-1.014.223-1.52.068-.47-.164-1.062-.215-1.536-.105-.988-.25-1.964-.25-2.957 0-1.044.205-1.99.426-3.008.168-.77-.158-2.308 1.074-2.285m-29.25.25c-.565.89-1.057 1.817-1.607 2.716-.09.148-.525.984-.304 1.067.45.17.576.5.662.967.663-.32 1.22-.764 2-.75-.022-.584-.223-1.168-.364-1.73-.142-.57-.11-1.183-.136-1.77.28.006.568.063.84.12.563.122.66.028.66.632 0 .736-.028 1.452-.137 2.18-.216 1.423-.478 2.885-.612 4.317-.08.84-.224 1.42-.555 2.207-.232.548-.844 1.26-.964 1.822-.14.65.46 1.33.41 2.036-.04.57-.315 1.22-.642 1.685 1.528.504.75 2.777.75 3.976 0 1.48-.21 2.984-.05 4.45.138 1.294-.057 2.732-.226 4.018-.103.782-.43 1.464-.77 2.17-.27.562-.84 1.005-.954 1.637.355.082.693.175 1.04.284.493.155.466.286.342.745-.205.764-.523 1.517-.882 2.222.44.122 1 .084 1 .568-.002.634-.1 1.178-.225 1.802-.183.917-1.967 1.256-2.732 1.47-2.152.604-4.218 1.47-6.398 1.97-1.076.246-2.004.392-3.1.244-.375-.05-.884-.14-1.207-.342-.483-.302-.246-.773.02-1.245 1.07-1.905 2.187-3.785 3.156-5.745.535-1.08 1-1.827 1.87-2.658.472-.45.55-2.172.72-2.813.53-1.987 1.09-3.927 1.45-5.957.344-1.944.64-3.92 1.072-5.844.094-.423.277-.908.686-1.11.215-.108.443.037.434-.245-.01-.278.002-.565-.028-.843-.04-.392-.422-1.16-.017-1.34.41-.18.867-.285 1.3-.41-.095-.478-.393-.933-.527-1.422-.148-.543-.1-1.2-.102-1.762-.004-1.175.435-2.405.764-3.523.344-1.17.555-2.374.934-3.533.215-.658.472-.988 1.04-1.384.48-.335.762-.99 1.392-.876m6.75 3.25c.593-.103 1.013-.617 1.53-.88.766-.39 1.468-.808 2.345-.852.764-.037 1.512-.173 2.28-.207.742-.032 1.66.315 2.345.19-.674-1.998-3.283-1.24-4.732-.854-1.468.39-3.308.985-3.768 2.603m8.75-2.25c.22.51.418.874 1 1-.22-.414-.478-.935-1-1m-6.25 8c-.148-.425-.366-.822-.5-1.25 1 0 1.963.25 2.976.25.98 0 1.823-.013 2.774-.25-.137.58-.488 1.147-.5 1.75.766-.223 1.775-1.073 2.107-1.77.362-.755.553-.844.122-1.54-.297-.475-.72-.806-1.23-1.067-1.058-.546-2.065-.536-3.214-.472-.91.05-1.797 1.328-2.785 1.1.423-.343.802-.62 1.29-.86.585-.29 1.348-.872 1.995-.977.738-.118 1.28-.32 1.963-.013.533.24.982.586 1.502.85-.13-1.078-1.55-1.722-2.5-1.744-1.322-.03-2.405.692-3.522 1.3-.437.24-.86.51-1.307.733-.333.166-.555.325-.838.565-.33.285-.254.343-.2.787.11.892.904 2.412 1.866 2.61m16.5-4.75c-.3.216-.63.292-1 .25.11.465.076 1.154-.5 1.25 0-.448.236-1.25-.285-1.25-.4 0-.818.024-1.215 0 .564-.992 2.205-.816 3-.25m-12.5.75c.287.17.25.38.25.672 0 .162-.594.077-.75.077.125-.298.22-.562.5-.75m1.25.75c-.168 1.19-2.14 2.025-2.75.75.513.126 1.07.18 1.533-.076.392-.215.765-.608 1.218-.673m1 .25c.05.25-.12.88-.5.5s.25-.55.5-.5m10.166.167v.166h-.084c-.014-.102.055-.09.084-.166m-2.916.083c.51.255.96.486 1.25 1-.402-.056-1.656-.4-1.25-1m-12.5.25c-.047.357-.397.58-.75.5.168-.285.46-.378.75-.5m21 .25c.674.88 1.047 1.944 1.48 2.957.46 1.074.997 2.117 1.516 3.163.988 1.99 2.113 3.834 3.266 5.73 1.1 1.808 2.304 3.57 3.64 5.212 1.43 1.753 2.79 3.615 4.385 5.224.322.325.66.61.998.915.147.13.485.194.444.4-.047.243-.096.503-.204.728-.488 1.037-1.23 1.915-1.85 2.88-.474.74-1.228 2.08-2.208 1.19-.87-.79-1.604-1.643-2.313-2.576-2.646-3.477-4.793-7.48-6.843-11.347-.224-.42-.652-1.055-.656-1.534-.004-.7.19-1.307.27-2 .135-1.168-.67-2.676-1.002-3.787-.375-1.253-.768-2.405-.93-3.712-.117-.953-.642-2.618.006-3.443m-14.25 9.75c.414.34.996.25 1.5.25-.385.284-.86.413-1.316.548-.405.12-.63.353-.786-.073-.09-.242-.28-.487-.398-.725-.2.15-.978 1.107-.687 1.29.46.287 1.163.55 1.723.454 1.22-.21 2.52-.166 3.715-.493.45-.124 1.39-.432 1.36-.995-.034-.633-1.03-.748-1.534-.754-1.185-.014-2.54-.175-3.576.5m3.75 0c.047.483.047.5-.395.5h-1.355c.42-.43 1.18-.502 1.75-.5m-30.5 1.5c-.664 4.373-3.71 7.96-6.72 10.97-.908.907-1.812 1.772-2.78 2.61-.795.69-1.467 1.524-2.275 2.19-.835.686-1.69 1.586-2.624 2.13-1.05.61-1.934.432-3.102.285-1.97-.247-3.846.306-5.75.814.453-.964 1.343-1.612 2.125-2.3.775-.686 1.524-1.42 2.32-2.078 1.71-1.414 3.378-2.978 4.967-4.525 1.64-1.595 3.445-3.09 5.303-4.425 1.83-1.316 3.757-2.475 5.52-3.882.82-.656 1.91-1.758 3.015-1.79m6.25 0c-.45.57-.428 1.178 0 1.75.762-.354.646-1.35 0-1.75m24.5.5c-.83.738-1.3 1.09-2.426 1.09-.795.002-1.32-.71-2.074-.84.12.675.447.954.955 1.37.244.2 1.29.43 1.6.368.7-.143 2.756-.94 1.945-1.99m-26.5 1.5c-.125.996.68 1.25 1.5 1.25-.08-1.09-.39-1.34-1.5-1.25m37.5 0c2.363 3.665 4.275 7.552 6.828 11.11.705.984 1.403 1.97 2.15 2.925.53.677 1.72 1.803 1.772 2.717.022.39-.28 1.105-.504 1.435-.39.573-.82.635-1.45.757-1.02.197-2.118-.276-3.02-.703-1.573-.746-2.01-2.81-2.58-4.36-.592-1.61-1.188-3.22-1.82-4.814-.63-1.583-1.136-3.22-1.73-4.816-.476-1.284-1.787-3.796.354-4.25m-35.25.5c.087.4.326.72.75.803.228.045 1-.074 1-.38 0-.82-1.15-.733-1.75-.423m20.5 1c.506.374 1.236-.08 1.78.146.658.276 1.335.525 1.97.854-.148-1.02-.957-1.26-1.81-1.507-.73-.21-1.325.116-1.94.507m12.5-.25c.002.388-.03.772-.018 1.16.018.587.096.688.47 1.148.454.563.948 1.197 1.048 1.942-.904-.23-1.445-1.29-2.25-1.75-.246.987-.25 1.885-.25 2.898v.817c0 .028.55.098.652.125.407.107.743.446 1.098.66-.076-.656.76-2.075 1.377-1.083.553.887.86 1.857 1.227 2.833.734 1.957 1.48 3.91 2.2 5.87.167.45.34.897.51 1.345.15.402.282.65-.28.702-.725.065-2.153.342-2.82-.006-.478-.25-.962-.316-1.028-.868-.053-.443.035-1.033-.196-1.42-.468-.778-.94-1.638-1.74-2.123-.025 1.145.014 2.44-.5 3.5-.615-.355-.9-1.267-1.035-1.917-.047-.225-.328-1.026-.104-1.14l1.388-.693c-.53-.405-1.14-.567-1.74-.852-.346-.165-.457-1.31-.51-1.648-.197-1.26-.475-2.522-.65-3.785-.166-1.19-.758-2.782-.49-3.946.2-.858.738-.847 1.538-1.122.223-.077 1.106.718 1.352.853 0-.562.268-1.193.75-1.5m-33.5.25c-.206.748-.622 1.41-.803 2.183-.192.816.52 1.512.553 2.317 2.103-.436 1.443-3.457.25-4.5m12.5.75c.09.59.452 1.228 1 1.5-.092-.575-.514-1.187-1-1.5m18.5 1.75c.3.03.637 0 .916-.114.475-.193.273-.45.152-.886-.21-.763-1.168.432-1.068 1m-17-1c.1.362.316.677.5 1 .266-.372-.092-.915-.5-1m14.75.25c.65.678.62 2.263.742 3.156.19 1.39.477 2.685.508 4.094-.797-.776-.723-2.42-.96-3.44-.226-.975-.99-2.94-.29-3.81m-13.25.5c-.16.786 1.05.524 0 0m1.5.25c.133.29.195.596.5.75-.117-.303-.242-.545-.5-.75m.75 0c.22.288.398.605.75.75-.025-.392-.355-.73-.75-.75m10.25.25c-.156.875.377 2.05.45 2.944.09 1.104.25 2.203.3 3.307-.65-.613-.615-2.12-.865-2.957-.328-1.093-.33-2.156-.385-3.293.164 0 .334-.012.5 0m-33 2.25c-.032.958-.47 2.034-.887 2.88-.51 1.038-.94 2.12-1.452 3.155-.977 1.978-1.828 4.21-3.196 5.954-.367.467-.513.78-1.123.802-.626.022-1.24.117-1.842-.085-.547-.183-.518-.288-.262-.77.26-.496.597-.932.93-1.38 1.29-1.724 2.548-3.472 3.808-5.223.724-1.005 1.408-2.035 2.094-3.065.547-.818 1.06-1.755 1.93-2.268m10 .454c.187.037.65.375.64.58-.004.096-.55.772-.64.794-.212.05-.647-.38-.64-.577.003-.194.51-.634.64-.796m-9.25 3.547c.58-.328.814-1.168.5-1.75-.8.24-.977 1.132-.5 1.75m11 .25c-.588.148-.532-.313-.75-.75-.26.437-.782.376-.75-.145.016-.275.253-.605.527-.605.378 0 1.023-.158 1.11.372.07.41.06.75-.137 1.127m-10.5 1.25c.585-.1 1.64-.36.906-.996-.207-.178-.658-.117-.855.055-.288.25-.127.626-.052.942m20.25 3.5c.47.662 1.537 1.665 2.406 1.306.446-.186.996-.51 1.498-.45.47.055 1.22.276 1.662.092.498-.21.948-.467 1.434-.698.46-.22 1.105-.33 1.496-.683.72-.654 1.596-1.627 2.56-1.873.56-.143.864-.214 1.217.37.29.473.56.953.832 1.437.54.967 1.052 1.94 1.544 2.933.24.482.438.962.547 1.49.035.17.05.355.05.53.007.437-.292.347-.675.437-1.02.24-2.068.41-3.07.714-2.18.66-4.158 1.81-6.31 2.505-.91.294-2.102-.083-3.026-.284-1.1-.238-2.162-.452-3.276-.586-.5-.06-1.178-.277-1.674-.193-.6.102-1.164.207-1.77.21-.615.002-2.702.39-3.02-.087-1.298-1.95-2.337-4.075-3.604-6.057-.467-.728-1.192-1.627-1.25-2.517-.073-1.14.12-2.204.18-3.343 1.29.016 2.078 1.17 2.848 2 .858.925 2.073 1.074 2.97 1.965.478.476.99.617 1.626.663.807.058 1.044.02 1.737.454.532.334.978.484 1.566.312.534-.156.955-.528 1.502-.645m10.75-4.75c.05.25-.12.88-.5.5s.25-.55.5-.5m5.5 0c-.09.346-.06 2.33.75 1.75.654-.47-.174-1.677-.75-1.75m-23.75 2.25c-.223-.298-.294-.623-.25-1-.268.32-.506.66-.75 1-.584-.366-.526-1.74.25-1.827.957-.106 1.044 1.23.75 1.827m17.75.25c-.205-.22-.19-.464-.25-.75-.283.238-.51.467-.75.75-.383-.253-.598-1.344.055-1.442.125-.02.857.372.937.477.178.234.09.718.008.965m9.75 9.75c-.715.38-1.998.48-2.793.5-1.156.032-2.22.223-3.346.49-2.063.483-4.23.96-6.065 2.063-.467.28-.938.654-1.453.835-.797.28-1.06.25-1.893.077-1-.208-1.973-.52-2.987-.656-1.074-.145-2.14-.413-3.215-.525-1.14-.12-2.324-.026-3.465 0-1.14.025-2.342.642-3.467.544-.676-.06-1.125-.222-1.36-.957-.193-.607-.33-1.316-.597-1.896-.573-1.247-1.134-2.5-1.777-3.714-.67-1.265-.343-2.174-.335-3.51 1.046.003 1.68 1.303 2.14 2.084.552.937 1.03 1.94 1.377 2.973.135.402.272 1.165.563 1.476.587.628.66.716 1.513.754.97.042 2.122-.307 3.09-.455 1.122-.172 2.116.105 3.224.177 1.04.067 2.09.227 3.078.578 1.02.362 2.125.935 3.14.338 1.007-.59 2.04-1.11 3.083-1.63 2.457-1.23 5.21-1.266 7.793-2.046-.37-1.46-1.22-2.96-1.973-4.26-.78-1.35-2.027-2.873-2.027-4.49.434.01 1.373-.1 1.688.304.382.49.54.95.68 1.56.25 1.073.353 2.824 1.132 3.653.412.44 1.023.487 1.555.756.722.364.94.74 1.412 1.412.736 1.052.97 2.344 1.283 3.565m-2.5-10c.262.08.574.233.848.13.213-.08.586-.48.402-.76-.426-.652-1.1.305-1.25.63m-41 1.25c.695.48 1.033 1.156 1 2 .593-.332.988-.883 1.603-1.193.458-.23.403.004.336-.633-.034-.322.022-.928-.15-1.21-.417-.675-.894-1.177-1.677-.468-.443.402-1.007.877-1.112 1.505m19.25.25c-.453-.024-.877-.203-1.326-.25-.184-.02-.674.116-.674-.104 0-.306.087-.486.195-.776.15-.4.9-.537 1.25-.37.48.228.465 1.067.555 1.5m12-1.5c-.004.427-.05.867-.25 1.25l1-.5c.01.383-.06.67-.31.947-.143.16-.854.145-.932-.072-.236-.66-.682-1.647.492-1.625m-9 2.5c-.357-.098-.8-.265-1.116-.448-.34-.2-.416.083-.384-.448.005-.096.165-.443.222-.49.33-.275 1.084-.205 1.34.108.266.326.115.938-.062 1.277m4.25-.25c-.63.273-1.32.634-2 .75-.158-.528-.285-1.43.336-1.717.678-.315 1.514.292 1.664.967m3.25 0c-.48.11-.787.182-.967.66-.098.268-.977-.377-.887-.703.146-.53.136-1.2.855-1.132.557.054 1 .647 1 1.175m-47.25 1.836c1.015-.07 2.29-.265 3.244.223.466.24.87.622.78 1.115-.1.56-.296.946-.59 1.436-1.196 1.993-2.542 3.765-4.517 5.045-.83.54-1.835 1.204-2.792 1.44-.495.12-.997.2-1.5.27-.336.046-.436.028-.756-.09-.45-.17-.385-.193-.41-.677-.055-1.052.8-2.222 1.292-3.118.532-.97 1.277-1.835 1.983-2.683.47-.563.936-1.118 1.44-1.65.565-.595 1.106-.904 1.825-1.31m-3.25.665c-.038 1.745-1.724 3.32-2.516 4.78-.86 1.587-1.98 3.226-2.484 4.97-.64-.45-.75-2.033-.75-2.75 0-1.24.32-2.352.82-3.48.832-1.88 2.53-4.27 4.93-3.52m10 1c-.364 1.32-1.342 2.637-2.19 3.695-1.026 1.283-2.123 2.45-3.403 3.482-1.243 1.003-2.72 2.05-4.27 2.532-1.348.42-3.284.982-4.637.29.492-1.47 2.68-1.463 3.97-1.826 1.444-.408 3.004-1.398 4.062-2.455 1.186-1.187 2.233-2.386 3.202-3.756.82-1.16 1.583-3.16 3.266-1.963m56 4.5c-.953-.026-1.162-1.07-1.437-1.793-.187-.497-.374-.993-.558-1.492-.156-.43-.486-1.017.14-1.104 1.368-.19 1.856 3.452 1.856 4.39m1.75 1.5c-1.04-.193-1.225-1.823-1.424-2.653-.207-.85-.95-2.59-.01-3.14.3-.174 1.256.038 1.327.447.092.546.108 1.066.108 1.62v3.725m4.5-4.75c-.04 1.953-1.96 3.978-3 5.5-1.195-.68-1.062-3.372-.998-4.542.027-.495.002-.853.256-1.275.213-.35.816-.27 1.203-.32.704-.088 1.847.465 2.538.637m-24 22.75c-.705.38-2.486.293-2.215-.904.242-1.07.97-1.998 2.23-1.783.55.093 1.087.013 1.372.507.27.47.806 1.073.834 1.624.05 1.093-.046 2.15-.722 3.057-.32.43-.738.8-1.08 1.217-.332.406-.55.888-1.012 1.174-1.013.63-2.09.958-3.22 1.32-1.062.34-2.084.207-3.177.262-1.135.058-2.236.11-3.323-.22-4.355-1.322-6.81-5.373-7.566-9.693-.378-2.167-.464-4.356-.865-6.517-.08-.432.087-1.05.137-1.487.06-.508-.143-1.062-.147-1.58-.012-1.207-.236-2.367-.276-3.57-.037-1.09-.236-2.28-.402-3.363-.086-.562-.15-1.11-.272-1.666-.105-.478-.384-1.145-.298-1.627 1.187-.045 1.412 1.245 1.576 2.19.185 1.063.334 2.166.403 3.243.07 1.107.267 2.152.27 3.274.004.985.243 1.925.247 2.905.005 2.282.125 4.516.59 6.757.474 2.286 1.265 4.147 2.517 6.107 1.645 2.573 4.986 3.773 7.898 3.773 1.37 0 3.135-.338 4.283-1.143.65-.455 1.427-.94 1.886-1.607.553-.807.525-1.364.332-2.25m-34.75-23c.04 2.073-1.713 3.886-2.9 5.445-1.357 1.787-2.765 3.467-4.35 5.055-1.554 1.555-3.25 2.79-5.21 3.79-1.853.943-4.05 2.056-6.17 2.15-1.197.052-2.607.235-3.72-.295-.412-.196-.393-.068-.306-.546.034-.19.214-.476.322-.633.418-.615.843-1.2 1.305-1.785.653-.826 2.04-1.817 3.012-2.228.672-.283.76-.18 1.037.45.222.506.62 1.062.728 1.597.732-.816 1.4-1.816 1.898-2.8.38-.752 2.322 1.415 2.852 1.55 0-.962.11-2.04.474-2.938.114-.282 2.453.973 2.776 1.187.28-.955-.59-3.672 1.156-3.342.597.113 1.607.435 1.75-.383.13-.74-.092-1.43-.037-2.182.057-.78 1.15-.526 1.626-.643.973-.24 1.03-.74.92-1.644-.09-.724-.18-1.334.62-1.547.78-.21 1.41-.26 2.215-.26m17.25 0c.48.537 1.706 2.75.328 2.75-.588 0-.633-2.36-.328-2.75m-4.252.326c1.935-.18 2.168 4.01 2.226 5.37.095 2.193.12 4.366.276 6.555.15 2.155.654 4.29.748 6.444.082 1.922.877 4.402 1.877 6.035 1.147 1.876 2.554 3.95 4.66 4.868 1.1.482 2.107.803 3.308.92.544.055 1.083.15 1.622.23.45.064.983-.162 1.442-.19 1.152-.076 2.24-.42 3.34-.762.408-.126 1.006-.35 1.217.153.255.614.18.97.093 1.632-.075.568-.235 1.11-.38 1.666-.134.524-1.01.348-1.396.35-1.082.004-2.2-.077-3.26-.288-2.085-.415-4.193-.71-6.27-1.165-2.087-.456-4.11-1.128-6.13-1.813-1.077-.366-2.108-.814-3.162-1.238-.93-.373-2.064-.824-2.782-1.55-.785-.795-1.75-1.61-1.86-2.824-.1-1.13-.315-2.266-.315-3.4 0-.976.043-1.966-.036-2.94-.078-.983-.03-1.974-.126-2.945-.103-1.066.068-2.072.154-3.137.08-1.024.008-2.096.008-3.124 0-1.972-.145-4.017.027-5.98.105-1.203.657-1.463 1.745-1.868.99-.368 1.954-.73 2.976-.996m-11.498.33c.87.164 2.344.843 2.113 1.944-.263 1.25-.88 2.214-1.514 3.316-1.095 1.902-2.43 3.63-3.735 5.39-2.558 3.446-6.388 6.257-10.307 7.958-1.075.465-2.117 1.012-3.25 1.314-.99.265-1.987.43-2.995.598-2.24.374-4.267.304-6.52.002-.492-.066-.982-.287-1.33-.627-.3-.295 0-1.15.247-1.476.676-.897 1.36-1.852 2.464-2.21.82-.265 2.13.286 2.986.33 1.097.057 2.266-.036 3.342-.31 2.03-.52 3.904-1.694 5.724-2.69 1.832-1.005 3.36-2.42 4.877-3.837 1.61-1.508 3.064-3.186 4.32-4.997.52-.744 1.087-1.44 1.527-2.235.415-.75 1.03-2.427 2.05-2.467m5.5 17.344c-1.087-.59-1.464-1.875-2.5-2.5.225 1.37 1.252 2.605 2.105 3.646.687.837.82 3.04-.354 3.604-.25-.517-.207-1.19-.25-1.75-.34.054-.67.158-1 .25v-1.75c-1.522-.042-2.08 1.157-3.043 2.09-.988.957-2 2.137-3.227 2.795-.65.347-1.37.646-1.98 1.06-.784.53-1.003.856-1.186 1.74-.287 1.396-.342 2.556-1.064 3.815-1.584-.853-.656-2.868-.47-4.218.095-.706-.02-2.074.692-2.502.766-.46 1.516-.94 2.278-1.406 1.358-.83 2.756-1.715 3.796-2.948.965-1.145 2.64-2.576 2.704-4.177-.956 1.062-1.686 2.316-2.625 3.408-.996 1.157-2.348 1.97-3.596 2.822-1.115.76-3.043 1.063-3.503 2.41-.437 1.277-.218 2.712-1.026 3.86-.836-.505-1.387-1.42-1.967-2.184-.68-.898-1.595-1.533-2.503-2.176-1.715-1.214-4.154-.97-6.096-.647-2.057.343-4.08.867-6.104 1.36-.928.224-1.858.467-2.786.7-.86.213-2.4.878-3.292.697.626-1.68 1.732-4.943 4.035-4.457 2.162.457 4.317.85 6.53.623 4.243-.44 8.724-2.222 12.225-4.67 3.637-2.543 6.508-6.037 9.016-9.656.648-.933 1.176-1.94 1.81-2.888.526-.793.718-2.143 1.634-2.613 2.418-1.242 1.75 3.576 1.75 4.647 0 3.668-.085 7.348 0 11.013m-6.25-15.25c.13.427.43.556.808.724.662.295.442-.58.442-.973-.426.003-.868.05-1.25.25m17.5 8.5c-.03-1.34-.415-2.677-.464-4.024-.025-.676-.14-1.466-.005-2.13.046-.232.065-.968.26-1.103.19-.134.702-.673.95-.43.578.566.754 1.175 1.008 1.937.168.503.597 1.518.435 2.035-.313 1.003-.948 3.484-2.185 3.715m32.75-6.25c-.115.693-.28 1.473-.605 2.1-.21.403-.196.47-.645.18-.342-.218-.55-.564-.78-.886-.185-.256-.404-.493-.427-.816-.048-.685-.116-.678.51-.962.57-.258 1.46.038 1.948.385m-4.75-.25c.537 1.005-.934 4.734-2.115 3.125-.428-.582-1.094-1.698-.516-2.36.42-.48 2.057-.613 2.63-.765m6 0c1.023.55 2.046 1.796 2 3-.84-.17-2.546-2.137-2-3m-4.5.75c.888 1.238 2.095 2.646 1.616 4.306-.226.783-.478 1.56-.767 2.324-.14.37-.637 2.346-1.225 1.42-.618-.972-2.013-2.85-1.704-4.035.23-.87.89-4.24 2.082-4.015m-48.7.5c-.187.136-.478.433-.377.702.125.326.634.267.958.32 0-.43.178-1.454-.58-1.023m52.7 0c.785.944 1.27 1.56 1.662 2.715.078.236-.295 1.09-.43 1.314-.255.424-.496 1.302-1.015 1.124-1.79-.61-1.613-4.262-.217-5.153m-10 .25c-.12.803-.445 1.58-.713 2.344-.33.944-1.09 1.194-1.787.407-1.486-1.676 1.11-2.758 2.5-2.75m1 .5c.395.516.846 1 1.104 1.598l.562 1.305c.123.286-.072.778-.123 1.073-.12.723-.34 1.332-.59 2.024-.122.334-.24.67-.347 1.01-.128.41-.115.623-.605.372-.97-.496-1.947-2.564-1.766-3.584.207-1.174.62-3.157 1.766-3.8m-16.5.25c.006 1.032-.552 1.982-1.004 2.877-.438.867-.843 1.896-1.746 2.374-.862-1.41-1.593-2.614-1.526-4.3.04-.956 3.69-.937 4.276-.95m3.75 5.5c-.59.11-.624-.29-.8-.75-.197-.51-.363-1.03-.572-1.535-.43-1.04-.878-2.073-.878-3.215.83.01 1.646.01 2.472.1.32.033.8.034 1.065.21.5.333.465.366.494.968.036.802-.4 1.48-.76 2.18-.352.686-.612 1.386-1.022 2.042m-2.75-4.5c.558 1.747 2.054 3.616 2.05 5.5 0 .952-.628 1.958-1.01 2.793-.22.482-.414.976-.632 1.457-.203.445-.274.8-.793.62-.817-.284-1.246-1.68-1.604-2.348-.397-.744-.968-1.908-.84-2.773.133-.91.636-1.96.996-2.793.34-.783.867-2.542 1.832-2.457m9.75.5c-.023.702-.3 1.37-.584 2-.15.335-.277.746-.484 1.05-.303.447-.112.45-.74.45-.48 0-1.555-3.396-1.442-4 1.063-.036 2.252.68 3.25.5m1.25 0c.832.868 1.648 1.734 1.605 2.98-.04 1.188-.533 2.378-.855 3.52-.562-.548-.758-1.765-1-2.5-.668.815-.627 1.73-.75 2.75-1.486-.777-1.033-2.228-.828-3.565.16-1.04.898-2.63 1.828-3.185m-17 .25c.497 1.58 1.718 2.86 1.925 4.556.088.724-.575 1.747-.836 2.424-.218.57-.613 1.623-1.306 1.727-.472.072-.903-1.262-1.136-1.707-.422-.808-.885-1.563-.896-2.5-.012-.95.363-1.714.712-2.566.29-.706.666-2.02 1.538-1.933m12 0c.553 1.735 2.133 3.662 1.432 5.556-.37.997-.832 1.956-1.227 2.944-.176.436-.293.638-.767.344-.467-.29-.817-.69-1.188-1.093.207.585 1.088 1.664.95 2.272-.218.968-.378 1.936-.76 2.852-.227.542-.65 2.09-1.19 2.375-.64.336-1.256-1.252-1.505-1.664-.535-.885-.915-1.797-1.322-2.75-.264-.622.407-1.854.68-2.403l.677-1.374c.064-.13.34-1.003.47-1.06.522-.222 1.702 1.422 2 1.75-.124-.62-.608-1.176-.8-1.792-.277-.897-.305-1.523-.027-2.457.32-1.085 1.232-3.48 2.578-3.5m-37.38 1.25v1.012c.424-.008.907.107 1.005-.428.113-.617-.586-.53-1.006-.585m54.63 0c.265.565.483 1.077.626 1.685.14.587-.148 1.207-.29 1.786-.122.48-.653 1.006-.935 1.428-.332.5-.607 1.053-1.15 1.35-.36-1.2-.408-1.977-.006-3.206.237-.723.713-3.238 1.756-3.043m-5 1c.578 1.623 1.777 2.92 1.664 4.73-.103 1.658-.892 3.444-1.414 5.02-.62-.5-.984-1.54-1.287-2.25-.376-.883-.648-1.794-.91-2.715-.22-.77.374-1.86.585-2.57.2-.666.42-2.392 1.363-2.215m-5.5 7.75c.236-1.006 1.238-1.37.75-2.5-.29.163-.63.386-.826.66-.166.234-.516 1.12-.777 1.07-.958-.176-1.624-.505-1.897-1.48.393.153.727.25 1.147.25.1 0 .578.86.853 1-.113-.965.832-1.688.82-2.556-.017-1.033-.062-1.927.18-2.943.723.1 1.09.944 1.41 1.492.287.493.787 1.326.748 1.888-.056.814-.025 1.636-.56 2.32-.348.44-1.278.92-1.848.8m-47.75-4c.26.034.593-.004.794-.185.183-.164.393-.704.206-.942-.153-.192-.727-.12-.823.098-.15.34-.15.656-.177 1.03m43.5-.25c.45.886.688 2.025.986 2.98.375 1.202-.472 2.095-1.736 2.02-1.436-.087-1.342-1.286-.95-2.313.257-.675.725-2.87 1.7-2.688m-17.25.25c.826.76 1.296 1.892 1.805 2.874.65 1.255-.09 2.12-.305 3.377-1.038-.218-1.173-2.37-1.33-3.15-.144-.736-.74-2.482-.17-3.1m5.5 0c.97 1.558 1.92 2.974 2.376 4.765.164.648-.45 1.714-.734 2.313-.168.355-.38.72-.516 1.084-.105.28-.066.337-.366.337-.184 0-.617.09-.76 0-.114-.07-.34-.668-.432-.815-.19-.305-.396-.598-.568-.913-.46-.843-.823-1.582-1.094-2.503-.226-.765.34-1.607.64-2.29.27-.607.65-2.13 1.454-1.98m-35.696 1.5c-.63.27-.098 1.68.64 1.257.6-.342.1-1.657-.64-1.257m48.196 2.5c.262-.51.014-2.08-.75-1.632-.95.56.104 1.44.75 1.632m6.75-1.5c.287.17.25.38.25.672 0 .162-.594.077-.75.077.125-.298.22-.562.5-.75m-58.886.75c-.048.147-.27.56-.224.7.057.18.57.42.744.307.532-.348-.035-1.302-.52-1.007m-7.864.25c-.018.18.003 1.143.25 1.25.447.194.886-.773 1-1-.383-.2-.825-.247-1.25-.25m3.5 1.5c.496 0 1.947.036 1.25-.722-.586-.638-1.397-.115-1.25.722m60 5c-.203 0-1.75.042-1.752-.035-.014-.668.002-1.312-.14-1.965-.12-.556-.315-1.082-.465-1.63-.255-.932-.283-1.186.018-2.1.164-.493.988-.05 1.168.344.248.546.62 1.1.645 1.703.05 1.25.532 2.452.528 3.684m2-3.25c-.424 1.608 1.725 2.82.865 4.3-.297.51-1.27-.59-1.488-.91-.547-.793-1.014-1.473-1.186-2.446-.19-1.078.007-1.526.458-2.528.307-.68 1.2-.975 1.914-.838 1.21.233 1.436.45 1.356 1.674-.023.347.018.828-.488.838-.47.01-.983.092-1.432-.09m-20.25-1.25c.523.967 1.15 1.878 1.66 2.86.365.706 1.452 3.36-.313 2.688-1.286-.488-2.016-1.866-2.61-2.99-.276-.52-.056-1.14.16-1.667.094-.23.194-.457.28-.69.122-.337.49-.2.823-.2m5.25.673c.57.356.904.56 1.266 1.103.42.63.866 1.235 1.196 1.914.602 1.24.72 2.916-1.023 3.046-1.63.12-2.47-1.024-3.065-2.356-.214-.48.228-1.512.432-2.005.305-.736.6-1.174 1.194-1.702m-23.5 1.827c-.39 2.056-.916 4.002-1.5 6-.598-.623.052-2.52.253-3.248.164-.585.29-1.172.408-1.767.103-.523.226-1.1.84-.986m41 0c-.25.406-.47.772-1 .5.21-.284.656-.458 1-.5m-12.5.25c.596.57 1.172.955 1.912 1.33.98.494-.924 1.45-1.37 1.665-.134.064-.886.32-1.042.255-.29-.12-.393-.868-.416-1.125-.064-.683.313-1.74.916-2.125m-27.25.75c-.32 2.668-1.02 5.32-1.543 7.957-.25 1.26-.6 2.5-.85 3.763-.205 1.018-.273 3.254-1.357 3.78.153-2.76 1.168-5.444 1.57-8.184.19-1.296.66-2.558.877-3.86.104-.63.18-1.285.36-1.9.183-.623.153-1.666.943-1.556m-3.25 1c-.054 1.368-.502 2.804-.852 4.12-.232.873-.294 3.138-1.398 3.38.34-1.354.642-2.74.848-4.12.097-.647.343-1.302.507-1.937.158-.616.117-1.552.895-1.443m4.5.25c-.004 1.667-.592 3.39-.97 5-.388 1.644-.488 3.483-1.28 5-.54-.658-.1-1.756.043-2.482.176-.883.368-1.76.574-2.638.215-.913.402-1.83.63-2.74l.33-1.32c.12-.473.033-.976.674-.82m-6.25.5c.013.843-.2 1.65-.386 2.465-.177.776-.242 1.564-.482 2.328-.28.9-.52 1.754-.66 2.687-.097.653-.25 1.523-.722 2.02-.343-.692.062-1.755.197-2.45.164-.84.314-1.678.494-2.515.257-1.2.313-3.853 1.558-4.535m42.25 1.75c-.408.01-.953-.107-1.037.396-.108.65-.1 1.07-.478 1.62-.24.354-1.064.3-1.43.302-.43.003-.986.234-1.304.518-.816.727-1.164 1.946-1.59 2.906-.156.354-1.22.257-1.504.257-.33 0-.156-1.13-.156-1.42 0-2.094.223-4.403 2.2-5.556.905-.53 1.868-.797 2.925-.75.95.04 2.365.59 2.375 1.727m-16.75-1.5c.158.317.426.65.5 1-.35-.078-.764-.123-1.013-.407-.403-.46.013-.686.513-.593m-18 .25c-.002.987-.247 2.05-.502 3-.19.704-.22 2.475-.998 2.75-.08-.39.138-.892.19-1.285.08-.594.157-1.183.27-1.77.11-.553.22-1.104.333-1.656.118-.586-.01-1.14.708-1.04m-9.25.75c-.005 1.155-.436 2.314-.68 3.434-.115.523-.183 1.048-.32 1.567-.057.214-.09.616-.216.8-.26.38.182.45-.456.45-.348 0 .284-2.788.37-3.14.23-.952.346-2.587 1.302-3.11m40.62.25c-.47.362.107.982.51.758.538-.298-.15-.938-.51-.758m-2.257 1c0 .184-.073 1.548.523.944.252-.252.07-1.326-.522-.943m-.862 2.5c-.172.588.05 1.255.75 1.25-.006-.574 0-1.39-.75-1.25m4 0c-.025 1.147-.982 2.71-2 3.25 0-1.41.11-3.295 2-3.25m-30 11.5c-.795.11-.756-.856-.733-1.478.026-.678-.017-1.346-.017-2.024-.887.572-1.133 2.037-2.25 2.25 0-.52.007-1.043-.012-1.564-.012-.334.027-1.47-.238-1.686-.485-.395-.708.595-.91.817-.32.357-.655.72-1.09.933-.778-1.522.44-3.175 1.29-4.375.396-.56.834-1.454 1.415-1.847.892-.602 1.427-.23 2.293.305.826.51 1.22.948 1.486 1.87.226.787.236 1.693.264 2.505.025.742-.05 1.592-.3 2.293-.27.757-.852 1.304-1.198 2m-8.5-8.5c-.043 1-.22 1.977-.364 2.965-.11.76-.293 1.85-.636 2.536-.797-.49-.2-2.15-.072-2.87.15-.855.463-1.975 1.072-2.63m35 .75c-.002 1.532.053 3.4-1.5 4.25-.012-.418-.148-.83-.152-1.25-.004-.478.11-.962.125-1.442.008-.204-.097-1.423.028-1.558.147-.158 1.254 0 1.5 0m-46 6.5c-.857.14-1.057.707-1.5 1.39-.46.708-.35 1.003-.25 1.86-.657-.168-2.407-1.316-2.862-.498-.164.295-.902 1.22-.824 1.54.124.505.29.968.436 1.458-.398 0-.938-.165-1.308-.097-.653.12-.964.397-1.546.678-.614.295-.883.38-1.523.12-.45-.18-.875-.403-1.288-.655-2-1.23-4.038-2.418-5.88-3.885-.916-.73-1.806-1.473-2.683-2.25-.38-.335-.832-.6-1.245-.892-.253-.178.578-.906.726-.977 2.062-.975 4.16-1.603 6.373-2.133 2.753-.66 5.48-1.588 8.332-1.655 1.466-.033 2.502.903 3.253 2.084.72 1.13 1.83 2.512 1.79 3.91m3-3.75c-.362.22-.617.502-.873.834-.238.31-.672-.186-.874-.435-.487-.604-1.426-1.817-1.252-2.65.746.12 1.526.316 2.25.535.468.14 1.74.363 1.997.836.495.915.93 1.366-.09 1.967-.303.18-.57.364-.827-.016-.217-.323-.395-.665-.33-1.07m21 3.5c.892-.45 1.344-1.39 1.963-2.128.334-.396.718-.887 1.288-.92.462-.024 1.09.397 1.16.847.152.966-.486 2.176-.785 3.074-.342 1.03-.697 2.047-1.044 3.072-.745 2.185-1.566 4.398-2.467 6.525-.427 1.007-.856 2.013-1.262 3.03-.305.76-.653 2.325-1.602 2.5.6-3.468.25-7.195.25-10.708 0-.82.126-1.544.19-2.348.064-.83-.128-1.676-.058-2.49.16-1.814.118-3.633.118-5.456 1.015.083 2.335.202 2.344 1.48.01 1.176-.094 2.337-.094 3.52m-17.75 1.5c-.64.342-.684.877-.358 1.446.424.734.984.896 1.627 1.412.725.582.748.914.287 1.74-.174.31-.344.5-.62.73-.4.33-.516.057-.718-.277-.758-1.258-1.347-2.66-2.027-3.965-.482-.92-1.925-2.496-1.692-3.586 1.34.028 2.713.578 3.84 1.258.503.305.816 1.06.78 1.617-.01.153-.554.488-.69.422-.296-.146-.43-.472-.43-.796m34.25-1.75c0 .975.013 1.804.25 2.75.406-.624.518-1.39.766-2.087.132-.375.297-.417.664-.566.166-.066.974-.032 1.07.152.178.348-.713 1.44-.887 1.73-.41.685-.823 1.372-1.235 2.057-.8 1.33-1.635 2.632-2.427 3.963-.652 1.096-1.25 2.645-2.45 3.25 0-1.203.027-2.368.24-3.554.23-1.27.47-2.394.51-3.696.017-.57.126-1.105.207-1.672.07-.506-.03-1.152.254-1.613.31-.505.61-1.03 1.33-.936.495.064 1.217.31 1.708.222m-61.25 0c.43.81.298 2.125.216 3-.103 1.093-.216 2.102-.216 3.207 0 2.22.062 4.3.43 6.488.706 4.206 1.765 9.007 5.84 11.22 3.026 1.643 6.35-.736 7.382-3.693 1.117-3.202 1.598-6.336 1.598-9.72 2.138 0 1.002 4.304.81 5.5-.36 2.23-.695 4.216-1.754 6.25-.842 1.618-2.65 4-4.713 4-1.233 0-2.292-.064-3.463-.456-1.073-.36-1.95-1.134-2.862-1.78-.676-.48-1.29-1.776-1.66-2.514-.49-.983-.87-2.057-1.12-3.125-.484-2.046-.71-4.083-1.068-6.144-.37-2.134-.67-4.43-.67-6.6 0-1.073.203-2.088.23-3.15.02-.685.04-2.662 1.02-2.48m41.25 5.25c-1.67-.525-3.23-1.604-4.874-2.25-.903-.353-1.827-.65-2.746-.955-.35-.116-.71-.212-1.042-.376-.44-.217-.35-.744.07-1.052.628-.463 1.846-.157 2.532.06.967.305 1.89.723 2.81 1.146 1.163.533 4.182 1.7 3.25 3.428m-26.75 1.75c1.268.05 1.993 1.434 3.25 1.5.024-.88-.55-1.567-1.017-2.258-.43-.636-1.26-1.696-.258-2.11.534-.22.662-.386 1.15-.107.358.204.744.373 1.044.656.582.55 1.25 1.4 2.082 1.57 0-.882-.34-1.54-.646-2.345-.15-.4-.594-1.097-.505-1.525.11-.53.694-.733 1.115-1.01.678-.45 1.7 1.21 1.93 1.63.274.5.37.88.434 1.435.062.545-.494.82-.875 1.18-.617.586-1.427.91-2.054 1.513-.727.7-1.476 1.387-2.136 2.147-.716.825-1.417.956-2.327.26-.822-.628-.997-1.582-1.185-2.534m24.5 6c-.59-1.176-.5-2.72-.5-4-1.024.68-1.47 2.504-2.75 2.75-.012-.51-.194-.996-.25-1.5-.062-.545.046-1.113-.07-1.652-.032-.156-.06-.748-.18-.848-.317-.257-.554.13-.64.338-.185.443-.547.862-.803 1.266-.262.412-.347.89-.532 1.334-.15.364-.888-.598-.927-.766-.27-1.154-.098-2.492-.098-3.672-.88.58-1.424 2.036-2.5 2.25.03-1.12-.233-2.088-.01-3.207.143-.713.958-2.237 1.58-2.674 1.502-1.057 4.533.562 5.965 1.185 1.04.454 1.993.953 2.943 1.576 1.016.665 1.245 1.4 1.27 2.566.04 1.828-.776 4.14-2.498 5.054m-18-10.5c.02.396.357.725.75.75.05-.516-.29-.703-.75-.75m-8.5 6.25c-.465.246-1 .35-1.5.5.46.877 1.587 1.488 1.89 2.412.19.584-.43.506-.895.47-.587-.042-1.156-.11-1.745-.132.072 1.844 2 3.353 2 5.25-.68-.12-1.295-.47-1.9-.79-.354-.19-.634-.327-1.022-.42-.377-.087-.61.43-.81.68-.4.495-.428 1.655-.56 2.25-.135.596-.19 1.227-.458 1.78-.57-.4-.645-1.354-.79-1.965-.203-.833-.36-1.663-.597-2.49-.16-.564-.523-1.527-1.17-1.556-.906-.04-1.784-.027-2.692.012.27-.984 1.03-1.897 1.625-2.707.37-.505.55-.874.69-1.473.1-.44-.76-1.008-1.028-1.22-.38-.3-.82-.62-1.102-1.017-.33-.464-.617-.73-.035-1.03.81-.42 2.414-.41 2.6-1.554-1.09-.224-2.723-1.877-2.75-3 .995-.033 1.745.443 2.544.983.836.562 1.735 1.034 2.565 1.606.85.588 1.707 1.15 2.594 1.684.855.512 1.868.978 2.548 1.726m4.25-4c-.025.13.03.934.314.697.236-.2.314-.41.436-.697h-.75m-13.25 1.25c-.743.414-1.492-.223-1.5-1 .623-.025 1.413.31 1.5 1m19.5.09l1.153.27c.15.036.453.827.386.975-.272.602-1.22 1-1.754 1.33-1.18.733-2.036 2.086-3.23 2.78-.404.24-.486.402-.893.175-.447-.248-.764-.294-.702-.87.077-.694.85-1.41 1.274-1.922 1.033-1.26 2.33-2.023 3.766-2.736m-8.75.66c-.118.52-.225 1-.75 1.25-.084-.518.245-1.094.75-1.25m-7.25 1.25c-.657.32-.858 1.71-.725 2.38.086.426.03 1.04.456 1.217.404.168 1.045.628 1.468.425.81-.387.8-1.848.768-2.578-.017-.39-.1-.846-.467-1.008-.36-.158-1.133-.73-1.502-.438m.5.674c.47-.04.697.625.732 1.003.053.596-.23 1.01-.68 1.302-.38.244-.802-.834-.802-1.103 0-.33.407-1.127.75-1.202m6.5 23.826c.16-.924 1.173-1.352 1.89-1.76.805-.457 1.502-1.348 2.182-1.974.572-.532.637-1.514.64-2.266.003-.89-.005-1.754.012-2.645.035-1.895.178-3.866.55-5.723.32-1.602 1.032-3.682 2.976-3.63-.54-.624-1.93-1.757-1.574-2.75.32-.885 1.503-1.74 2.25-2.258.798-.557 2.178-1.244 2.988-.44.86.858.468 2.22.084 3.196-.818 2.078-2.102 3.97-2.864 6.066-.76 2.092-1.174 4.307-1.898 6.414-.315.914-.74 1.78-1.033 2.703-.288.912-.495 1.882-.99 2.714-1.144 1.94-3.093 2.352-5.212 2.352m-10.25-22.25c-.038 1.305-1.588.84-2 0 .658-.34 1.312-.136 2 0m37.5 6.25c-.895.484-1.887-.365-2.65-.754-1.02-.52-2.048-1.035-3.07-1.55-1.975-.997-3.932-1.764-6.03-2.446-.422-.137-2.863-1.213-1.6-1.66.964-.342 2.157.24 3.044.56 2.122.766 4.095 1.957 6.194 2.805 1.325.538 3.858 1.446 4.112 3.046m-.25 7c-.46-.56-.03-3-.75-3-.354 0-.663.97-.89 1.326-.277.438-.57 1.03-1.11 1.174 0-1.088-.25-2.147-.25-3.25-1.082.215-1.55 1.726-2.5 2.25-.576-1.125-.106-2.545-.5-3.75-.69.76-1.428 2.29-2.5 2.5-.313-1.248-.23-2.492-.5-3.75-.69.76-1.428 2.29-2.5 2.5-.112-.438-.53-3.5-.83-3.5-.586 0-.65.53-.97 1.004-.32.47-.695.967-1.2 1.246-.217-1.082-.172-2.186-.414-3.25-.256-1.125.05-2.074.78-2.96.66-.807 2.15-.155 2.94.13 1.055.38 2.123.762 3.138 1.246 2.07.982 4.06 2.045 6.077 3.14.99.538 1.91 1.014 2.042 2.16.118 1.03.283 2.155.127 3.19-.078.514-.232 1.072-.192 1.594m-27.5-8.75c-1.167-.08-1.928-.56-2.25-1.75 1.166.2 2.223.29 2.25 1.75m4.5 0c.378.713.242 1.695.25 2.467.008.92 0 1.84-.01 2.76-.01.82-.24 1.61-.24 2.42-.002.826.14 1.84-.25 2.603-.612-.363-.61-1.692-.49-2.305.193-.98.23-1.91.24-2.91.008-.91 0-1.817 0-2.727 0-.66-.133-1.88.5-2.307m-14 4.25c-.485-.272-.03-1.69-.014-2.225.017-.665.055-2.05.987-1.274 1.094.912.43 3.258-.972 3.5m-12.25-2.5c-.172.6-.076 1.14 0 1.75 1.09-.004 1.085-1.77 0-1.75m18.5 5c-.702-.426-1.288-1.254-1.387-2.074-.04-.328-.227-2.823.49-2.65 1.792.43 1.18 3.41.898 4.724m6.5-3c0 1.254.02 2.484-.147 3.726-.138 1.038.132 2.327-.352 3.274-.893-.53-.5-2.795-.5-3.693 0-.627.226-1.354.31-1.98.072-.54-.017-1.497.69-1.327m-25.75 5.25c.55-.065.918.52 1 1 .363-.1.642-.418.882-.692.383-.437 1-.404.797-1.048-.32-1.022-.72-1.95-.93-3.01.786.092 1.536-.426 1.5-1.25-.617-.012-1.035.144-1.605.38-.55.227-.7.99-.945 1.51-.428.907-.735 2.104-.7 3.11m49.75 3.75c-1.073-.188-1.958-.93-2.94-1.358-1.046-.457-2.09-.914-3.126-1.39-2.07-.947-4.11-1.817-6.247-2.608-1.07-.394-2.123-.828-3.185-1.244-.448-.174-.918-.312-1.35-.523-.33-.162-.48-.063-.343-.504.056-.18.203-.337.377-.396 1.075-.365 2.157.12 3.19.49 1.083.39 2.165.798 3.22 1.255 1.007.434 2.025.852 3.03 1.295.988.434 1.923 1.024 2.92 1.426 1.145.464 5.442 1.712 4.456 3.556m-.5 9.75v-5c-1.063.617-1.448 1.92-2.5 2.5-.557-1.088-.25-2.824-.25-4-1.155.764-1.64 2.547-3 3-.352-.688-.293-1.557-.424-2.31-.14-.8-.076-1.63-.076-2.44-.55.32-.908.732-1.286 1.232-.193.258-1.037 1.608-1.464 1.518-.47-.098-.5-1.602-.504-1.95-.008-.775 0-1.552-.246-2.3-.903 1.014-1.758 2.637-3 3.25-.666-1.37-.5-3.027-.5-4.5-1.123.662-1.655 2.516-3 2.75-.273-1.436-.5-2.785-.5-4.25-.88.533-1.33 1.535-2.25 2 0-1.03.28-2.063.635-3.035.204-.556.72-2.818 1.515-2.83 1.178-.02 2.25.538 3.314.995 1.035.445 2.12.763 3.156 1.21 2.003.86 4.018 1.684 5.976 2.655 1.01.5 2.116.926 3.077 1.508 1.193.722 2.06 1.04 2.214 2.52.07.68-.142 1.37-.064 2.02.088.74.166 1.464.178 2.208.012.853.357 3.25-1 3.25m-25.25-14c-.008.795.126 1.764-.25 2.5-.83-.49-.45-2.06.25-2.5m-1.5 2c.01.53-.16 1.14-.75 1.25-.058-.572.038-1.38.75-1.25m4.75 2.25c-.65-.016-1.313.1-1.957.174-.567.064-1.224-.342-1.792-.424.164-.78 1.546-.975 2.182-1.158 1.068-.31 1.607.406 1.568 1.408m-12.75-1c.636.588.912 4.5 0 4.5-.596 0-.264-1.77-.258-2.25.01-.672-.192-1.69.258-2.25m6 .25c.49.38.513.998.46 1.568-.023.25-.173 1.932-.29 1.932-.493 0-.42.006-.42-.47v-1.464c0-.53-.096-1.125.25-1.566m-4.25.5c.404.76.65 3.834-.5 4 0-.92-.422-3.377.5-4m1.25 0c.816.642.84 3.596-.25 4v-2.414c0-.533-.1-1.14.25-1.586m1.5 0c.738.574.886 3.52-.25 3.75 0-.934-.375-2.953.25-3.75m7.75.75c-.025.812-.77 1.906-1.547 2.142-1.135.346-1.927.165-3.073-.11-.43-.104-.014-.737.32-.776.44-.05 1.083-.45 1.508-.604.822-.3 1.92-.52 2.793-.652m-19.75.5c-.36.658-.227 1.652.5 2 .43-.695.403-1.71-.5-2m22.75 1c2.16.02 4.203 1.172 6.194 1.902 2.124.78 4.253 1.688 6.306 2.64 1.064.497 2.04 1.14 3.093 1.653.908.445 1.908.96 2.7 1.6.285.23.918.84.746 1.247-.224.527-.954.344-1.356.146-1.005-.492-1.948-1.088-2.932-1.615-2.66-1.426-5.532-2.568-8.336-3.658-1.502-.584-3.008-1.055-4.54-1.547-.72-.232-1.444-.44-2.136-.744-.694-.308-.492-1.566.262-1.624m-25.25 2.25c.423 0 .816.02 1.224-.076.225-.053.963-.422.463-.71-.723-.413-1.852-.343-1.687.786m1.5 4.5c.675.008 1.168.617 1.25 1.25.355-.08.578-.318.818-.572.123-.13.63-.327.682-.428.234-.44-.327-1.662-.45-2.06-.195-.622-.556-1.387-.55-2.04.005-.582.074-.26.5-.4.293-.096.75-.234.94-.48.103-.133.438-.58.31-.77-.08-.115-.916-.19-1.08-.162-.803.142-1.143.756-1.354 1.486-.21.727-.39 1.455-.612 2.176-.17.558-.572 1.422-.454 2m39 8v-2c-1.155.682-1.707 2.316-3 2.75-.635-1.24-.203-3.137-.25-4.5-.48.277-3.1 2.99-3.29 2.687-.805-1.29-.44-3.213-.71-4.687-.32.336-3.018 3.578-3.33 2.8-.257-.638-.202-1.372-.328-2.05-.12-.647-.456-1.61-.342-2.25-1.28.73-1.832 2.54-3.25 3-.66-1.358-.5-3.04-.75-4.5-1.27.724-1.694 2.342-3 3-.403-1.95.076-4.565 1.36-6.108.516-.62.503-.78 1.288-.71.666.056 1.17.177 1.81.388 1.014.334 2.03.67 3.042 1.014 4.21 1.43 8.263 3.42 12.164 5.537.47.254 1.127.582 1.392 1.064.226.408-.192 1.31-.433 1.693-.56.89-1.234 2.654-2.372 2.873m-45.5-12.25c-.163.682-.213 1.3-.25 2 .625.148.55-.39.6-.865.04-.415.036-.872-.35-1.134m27.25 1c-.042.344-.217.79-.5 1-.095-.486-.282-1.186.5-1m-1.5.25c.376.707.3 1.76.17 2.52-.12.693-.048 2.283-.92 2.48v-2.75c0-.693-.233-2.387.75-2.25m-25.25 1.75c-.26.484-.123.998 0 1.5.403-.385.48-1.16 0-1.5m17 .75c.37.77 1.28.685 2 .75.02-1.03-1.306-1.108-2-.75m5.75 1c-.625 1.19-.87 3.79-.25 5 .552-.55.48-1.8.5-2.5.02-.67.22-1.95-.25-2.5m-6.25.25c-.277 1.16-.29 2.096 0 3.25.553-.63.66-2.69 0-3.25m-16 1c-.12.51-.26 1.012 0 1.5.356-.36.44-1.18 0-1.5m25.085 1.87c1.037-.362 2.39.284 3.37.554.96.263 1.925.523 2.86.873 2.155.806 4.274 1.685 6.41 2.547.8.322 5.734 2.195 5.025 3.533-.526.99-5.363-1.824-6.188-2.176-2.105-.893-4.256-1.662-6.38-2.508-1.077-.43-2.2-.75-3.32-1.048-.472-.123-1.247-.185-1.67-.43-.458-.263-.808-1.093-.107-1.347m-24.585.88c0 .67-.064 1.388.25 2 .417-.446.243-1.452.25-2-.163 0-.34-.02-.5 0m20 0c-.07.35-.205.673 0 1 .24-.265.234-.728 0-1m16.75 14.75v-3.75c-1.528.296-2.245 2.313-3.75 2.75-.383-.747-.25-1.66-.25-2.474 0-.868-.103-1.67-.25-2.524-1.364.63-2.13 2.226-3.55 2.685-.468.154-.61-1.696-.677-2.053-.142-.776-.136-1.592-.272-2.38-1.194.684-2.284 2.755-3.75 2.75-.03-1.26-.192-2.495-.25-3.75-1.72.34-1.936 3.192-3.75 3.5-.18-.85.585-2.296.835-3.12.315-1.033.726-2.065 1.106-3.074.384-1.02.917-2.006 2.058-2.182 1.04-.157 2.074.25 3.066.544 2.225.662 4.363 1.504 6.518 2.365 1.983.792 4.04 1.55 5.904 2.597.734.412 1.74.838 1.51 1.87-.176.786-.9 1.7-1.293 2.39-.442.78-.98 1.51-1.485 2.25-.4.587-.965 1.462-1.72 1.61m-25-12.5c-.55.702-.518 1.778.5 2 .125-.77.322-1.558-.5-2m-11 .25V156c0 .03.46.07.5.026.136-.14 0-1.098 0-1.295 0-.57.144-.76-.5-.704m8.5 2.75c.482.25.968.25 1.5.25.03-.96-1.135-1.022-1.5-.25m3.25-.25c.357.566 1.218.54 1.75.25-.372-.71-1.168-.627-1.75-.25m-10.75 0v1.5c.53-.375.51-1.117 0-1.5m10 .75c-.355 1.068-.713 2.135-1.055 3.207-.06.187-.05.43-.16.594-.284.41.144.427.344.58.396.304.61.687.87 1.12.366-.36.572-.7 1.05-.948.427-.226.4.122.435-.455.016-.265-.12-.597-.187-.85-.24-.903-.528-2.657-1.297-3.25m-9.25 1.75c0 .642.09 1.13.25 1.75.376-.403.242-1.25.25-1.75-.163 0-.34-.02-.5 0m1 2.75v1.5c.417-.34.503-.983.5-1.5-.156 0-.35-.034-.5 0m17 .09c4.343.218 8.712 2.143 12.566 4.07.937.468 2.212.87 2.758 1.815.198.346-.32 1.043-.69.99-.615-.09-.994-.198-1.54-.47-2.07-1.033-4.188-2.014-6.344-2.846-1.547-.597-3.098-1.127-4.715-1.492-.66-.15-1.467-.205-2.1-.43-.445-.156-.73-.152-.643-.652.114-.65.123-.67.708-.986m9.75 14.662c0-1.768.21-3.486.25-5.25-.812.473-1.508 1.156-2.223 1.76-.756.638-1.456 1.472-2.527 1.49v-5.5c-2.035.71-2.932 3.398-5 4-.4-.783-.25-1.77-.25-2.62 0-.907-.096-1.738-.25-2.63-1.123 1.183-2.263 3.02-3.75 3.75.178-2.25 1.17-4.356 1.974-6.465.783-2.054 4.562-.524 5.996-.143 2.108.556 4.12 1.458 6.094 2.37 1.012.467 2.04.93 2.986 1.522.23.144 1.166.634 1.055 1.036-.17.602-.305 1.153-.605 1.68-.518.91-1.107 1.777-1.653 2.668-.482.785-1.1 2.14-2.097 2.332m-25.75-12.25v1.75c.347-.39.35-1.36 0-1.75m1 2.75c-.077.387.15.88.25 1.25.333-.39.126-.963-.25-1.25m1.25 2c-.174.474-.034 1.014 0 1.5.337-.377.3-1.113 0-1.5m1 2.25v1.25c.464-.28.398-.95 0-1.25m8.25 1.625c2.336.052 4.636.76 6.765 1.704 2.03.902 4.172 1.44 6.04 2.717.298.202.652.852.382 1.157-.298.338-1.154.065-1.504-.096-1.07-.49-2.11-1.046-3.182-1.532-2.036-.924-4.19-1.543-6.344-2.123-.63-.168-1.283-.26-1.906-.435-.225-.065-.59-.13-.695-.38-.132-.312.145-.892.445-1.01m-7.25 1.126c-.082.457.17 1.045.25 1.5.335-.377.24-1.037.25-1.5-.16 0-.342-.026-.5 0m14.25 11.25c0-1.754.43-3.504.5-5.25-1.142.24-2.116 1.418-2.913 2.185-.82.79-1.564 1.79-2.587 2.316-.444-.867-.25-2.01-.25-2.953 0-1.198.028-2.377-.25-3.547-1.563.922-2.7 3.092-3.75 4.5-.83-.494-.5-2.41-.5-3.225 0-.985.378-2.153.822-3.024.618-1.21 1.23-1.516 2.52-1.365 1.06.122 2.103.49 3.138.737 2.006.477 4.248 1.385 6.05 2.396.513.29 2.586 1.15 2.413 1.922-.222.996-.554 2.04-1.308 2.782-.895.878-2.533 2.53-3.884 2.53m-13.25-9.25c-.082.456.17 1.044.25 1.5.335-.378.24-1.038.25-1.5-.16 0-.342-.027-.5 0" fill="#000"/></g></svg>